<?xml version="1.0" encoding="UTF-8" standalone="no"?>
<svg
   version="1.1"
   width="45"
   height="45"
   id="svg13"
   sodipodi:docname="black-canadian-queen3.svg"
   inkscape:version="1.3.2 (091e20ef0f, 2023-11-25, custom)"
   xmlns:inkscape="http://www.inkscape.org/namespaces/inkscape"
   xmlns:sodipodi="http://sodipodi.sourceforge.net/DTD/sodipodi-0.dtd"
   xmlns="http://www.w3.org/2000/svg"
   xmlns:svg="http://www.w3.org/2000/svg">
  <defs
     id="defs13" />
  <sodipodi:namedview
     id="namedview13"
     pagecolor="#505050"
     bordercolor="#ffffff"
     borderopacity="1"
     inkscape:showpageshadow="0"
     inkscape:pageopacity="0"
     inkscape:pagecheckerboard="1"
     inkscape:deskcolor="#505050"
     inkscape:zoom="9.9530075"
     inkscape:cx="10.09745"
     inkscape:cy="26.72559"
     inkscape:window-width="1900"
     inkscape:window-height="1028"
     inkscape:window-x="8"
     inkscape:window-y="40"
     inkscape:window-maximized="1"
     inkscape:current-layer="svg13" />
  <path
     style="fill:#ff0000;stroke:#000000;stroke-width:1.5;stroke-linecap:butt;stroke-linejoin:round;fill-opacity:1"
     d="M 14,25 6.5,13.5 9,26"
     id="path17" />
  <path
     style="fill:#000000;stroke:#000000;stroke-width:1.5;stroke-linecap:butt;stroke-linejoin:round"
     d="M 19.5,24.5 14.3,10.9 14,25"
     id="path16" />
  <path
     style="fill:#ff0000;stroke:#000000;stroke-width:1.5;stroke-linecap:butt;stroke-linejoin:round;fill-opacity:1"
     d="m 25.5,24.5 -3,-14.5 -3,14.5"
     id="path15" />
  <path
     style="fill:#000000;stroke:#000000;stroke-width:1.5;stroke-linecap:butt;stroke-linejoin:round"
     d="M 31,25 30.7,10.9 25.5,24.5"
     id="path14" />
  <path
     style="fill:#ff0000;stroke:#000000;stroke-width:1.5;stroke-linecap:butt;stroke-linejoin:round;fill-opacity:1"
     d="M 36,26 38.5,13.5 31,25"
     id="path13" />
  <path
     style="fill:#000000;stroke:#000000;stroke-width:1.5;stroke-linecap:butt;stroke-linejoin:round"
     d="m 9,26 c 8.5,-1.5 21,-1.5 27,0"
     id="path1" />
  <path
     d="m 9,26 c 0,2 1.5,2 2.5,4 1,1.5 1,1 0.5,3.5 -1.5,1 -1,2.5 -1,2.5 -1.5,1.5 0,2.5 0,2.5 6.5,1 16.5,1 23,0 0,0 1.5,-1 0,-2.5 0,0 0.5,-1.5 -1,-2.5 -0.5,-2.5 -0.5,-2 0.5,-3.5 1,-2 2.5,-2 2.5,-4 -8.5,-1.5 -18.5,-1.5 -27,0 z"
     id="path2"
     style="fill:#000000;stroke:#000000;stroke-width:1.5;stroke-linecap:round;stroke-linejoin:round" />
  <path
     d="M 11.5,30 C 15,29 30,29 33.5,30"
     id="path3"
     style="fill:#000000;stroke:#000000;stroke-width:1.5;stroke-linecap:round;stroke-linejoin:round" />
  <path
     d="m 12,33.5 c 6,-1 15,-1 21,0"
     id="path4"
     style="fill:#000000;stroke:#000000;stroke-width:1.5;stroke-linecap:round;stroke-linejoin:round" />
  <circle
     cx="6"
     cy="12"
     r="2"
     id="circle4"
     style="fill:#ff0000;stroke:#000000;stroke-width:1.5;stroke-linecap:round;stroke-linejoin:round;fill-opacity:1" />
  <circle
     cx="14"
     cy="9"
     r="2"
     id="circle5"
     style="fill:#000000;stroke:#000000;stroke-width:1.5;stroke-linecap:round;stroke-linejoin:round" />
  <circle
     cx="22.5"
     cy="8"
     r="2"
     id="circle6"
     style="fill:#ff0000;stroke:#000000;stroke-width:1.5;stroke-linecap:round;stroke-linejoin:round;fill-opacity:1" />
  <circle
     cx="31"
     cy="9"
     r="2"
     id="circle7"
     style="fill:#000000;stroke:#000000;stroke-width:1.5;stroke-linecap:round;stroke-linejoin:round" />
  <circle
     cx="39"
     cy="12"
     r="2"
     id="circle8"
     style="fill:#ff0000;stroke:#000000;stroke-width:1.5;stroke-linecap:round;stroke-linejoin:round;fill-opacity:1" />
  <path
     d="m 11,38.5 a 35,35 0 0 0 23,0"
     style="fill:none;stroke:#000000;stroke-width:1.5;stroke-linecap:butt;stroke-linejoin:round"
     id="path8" />
  <g
     style="display:inline;fill:none;stroke:#ffffff;stroke-width:1.5;stroke-linecap:round;stroke-linejoin:round"
     id="g12">
    <path
       d="m 11,29 a 35,35 1 0 1 23,0"
       id="path9"
       style="stroke:#ff0000;stroke-opacity:1" />
    <path
       d="m 12.5,31.5 h 20"
       id="path10"
       style="stroke:#ff0000;stroke-opacity:1" />
    <path
       d="m 11.5,34.5 a 35,35 1 0 0 22,0"
       id="path11"
       style="stroke:#ff0000;stroke-opacity:1" />
    <path
       d="m 10.5,37.5 a 35,35 1 0 0 24,0"
       id="path12"
       style="stroke:#ff0000;stroke-opacity:1" />
  </g>
</svg>
