<?xml version="1.0" encoding="UTF-8" standalone="no"?>
<!-- Created with Inkscape (http://www.inkscape.org/) -->

<svg
   xmlns:dc="http://purl.org/dc/elements/1.1/"
   xmlns:cc="http://creativecommons.org/ns#"
   xmlns:rdf="http://www.w3.org/1999/02/22-rdf-syntax-ns#"
   xmlns:svg="http://www.w3.org/2000/svg"
   xmlns="http://www.w3.org/2000/svg"
   xmlns:sodipodi="http://sodipodi.sourceforge.net/DTD/sodipodi-0.dtd"
   xmlns:inkscape="http://www.inkscape.org/namespaces/inkscape"
   version="1.1"
   id="svg815"
   width="1816.5"
   height="853.5"
   viewBox="0 0 1816.5 853.5"
   sodipodi:docname="Alvarezsauroidea.svg"
   inkscape:version="0.92.2 (5c3e80d, 2017-08-06)"
   inkscape:export-filename="C:\Users\customer\Documents\ThatChapThere.github.io\dinosaurs\alt_images\Silluettes\Ornithomimosauria.png"
   inkscape:export-xdpi="88.678566"
   inkscape:export-ydpi="88.678566">
  <metadata
     id="metadata821">
    <rdf:RDF>
      <cc:Work
         rdf:about="">
        <dc:format>image/svg+xml</dc:format>
        <dc:type
           rdf:resource="http://purl.org/dc/dcmitype/StillImage" />
        <dc:title></dc:title>
      </cc:Work>
    </rdf:RDF>
  </metadata>
  <defs
     id="defs819">
    <inkscape:path-effect
       effect="bspline"
       id="path-effect4536"
       is_visible="true"
       weight="33.333333"
       steps="2"
       helper_size="0"
       apply_no_weight="true"
       apply_with_weight="true"
       only_selected="false" />
    <inkscape:path-effect
       effect="bspline"
       id="path-effect4532"
       is_visible="true"
       weight="33.333333"
       steps="2"
       helper_size="0"
       apply_no_weight="true"
       apply_with_weight="true"
       only_selected="false" />
    <inkscape:path-effect
       effect="bspline"
       id="path-effect4528"
       is_visible="true"
       weight="33.333333"
       steps="2"
       helper_size="0"
       apply_no_weight="true"
       apply_with_weight="true"
       only_selected="false" />
    <inkscape:path-effect
       effect="bspline"
       id="path-effect4520"
       is_visible="true"
       weight="33.333333"
       steps="2"
       helper_size="0"
       apply_no_weight="true"
       apply_with_weight="true"
       only_selected="false" />
    <inkscape:path-effect
       effect="bspline"
       id="path-effect4516"
       is_visible="true"
       weight="33.333333"
       steps="2"
       helper_size="0"
       apply_no_weight="true"
       apply_with_weight="true"
       only_selected="false" />
  </defs>
  <sodipodi:namedview
     pagecolor="#ffffff"
     bordercolor="#666666"
     borderopacity="1"
     objecttolerance="10"
     gridtolerance="10"
     guidetolerance="10"
     inkscape:pageopacity="0"
     inkscape:pageshadow="2"
     inkscape:window-width="1920"
     inkscape:window-height="1027"
     id="namedview817"
     showgrid="false"
     inkscape:zoom="0.80924855"
     inkscape:cx="919.99438"
     inkscape:cy="346.98995"
     inkscape:window-x="-8"
     inkscape:window-y="-8"
     inkscape:window-maximized="1"
     inkscape:current-layer="svg815" />
  <path
     style="fill:#ff0000;fill-opacity:1;stroke:none;stroke-width:0.80414391px;stroke-linecap:butt;stroke-linejoin:miter;stroke-opacity:1"
     d="m 208.29207,389.31311 c 44.96544,-13.09759 126.05065,-35.12553 199.76391,-39.8882 73.71325,-4.76268 140.05658,7.73983 210.40064,1.62854 70.34407,-6.11128 146.3749,-31.39623 218.61396,-48.6612 72.23905,-17.26497 141.53105,-26.7907 211.55852,-29.76738 70.0276,-2.97669 140.794,0.59547 185.3908,0.29768 44.5968,-0.29779 63.0254,-4.46527 79.4802,-9.80252 16.4547,-5.33725 30.9374,-11.84483 35.7156,-22.9168 4.7783,-11.07197 -0.1458,-26.70762 0.341,-40.47967 0.4869,-13.77205 6.3838,-25.67866 18.9157,-34.60867 12.5319,-8.93 31.697,-14.88334 53.8111,-15.47842 22.1142,-0.59508 47.1765,4.16764 66.3423,6.54898 19.1659,2.38134 32.4341,2.38134 40.1736,4.46492 7.7394,2.08358 9.9509,6.25112 10.3197,11.31097 0.3688,5.05986 -1.1057,11.01388 -6.6335,14.88395 -5.5279,3.87007 -15.1112,5.65621 -26.5367,8.03757 -11.4256,2.38137 -23.284,5.04177 -36.2296,8.5004 -12.9455,3.45863 -22.0041,6.38668 -32.4576,13.24371 -10.4534,6.85702 -21.2249,17.29551 -28.2104,27.18845 -6.9856,9.89295 -10.1827,19.23783 -17.4723,32.72645 -7.2896,13.48863 -18.6714,31.11985 -25.7727,45.54583 -7.1013,14.42597 -9.9202,25.64378 -13.0541,33.7601 -3.1339,8.11631 -7.0561,13.81824 -11.4794,22.15404 -4.4234,8.3358 -9.5826,19.64557 -28.0119,32.74408 -18.4294,13.09851 -50.124,27.98116 -92.9299,40.19517 -42.806,12.214 -96.5132,21.7212 -147.0077,25.59105 -50.4944,3.86986 -97.67028,2.08385 -133.43464,-1.12297 -35.76437,-3.20681 -61.53811,-8.10473 -86.9688,-9.87338 -25.43068,-1.76866 -49.75722,-0.61293 -82.56065,0.5778 -32.80343,1.19074 -73.34452,2.38139 -109.83333,1e-5 -36.48881,-2.38139 -68.92215,-8.33475 -91.40524,-15.77669 -22.48309,-7.44194 -35.01418,-16.37201 -56.39107,-25.0046 -21.37689,-8.6326 -51.59942,-16.96746 -74.45075,-21.73032 -22.85133,-4.76287 -38.33096,-5.95355 -57.45904,-8.03236 -19.12808,-2.07881 -42.05446,-5.06534 -81.86074,-2.68393 -39.80629,2.3814 -96.56411,10.1207 -120.52102,11.90654 -23.9569,1.78584 -15.11139,-2.38154 29.85405,-15.47913 z"
     id="path4514"
     inkscape:connector-curvature="0"
     inkscape:path-effect="#path-effect4516"
     inkscape:original-d="m 172.17128,398.24373 c 81.08611,-22.02866 162.17132,-44.0566 243.25565,-66.08381 66.34246,12.50145 132.68579,25.00395 199.02735,37.50702 74.45115,-24.40981 150.37712,-50.01009 225.56434,-75.01407 69.29093,-9.52618 138.58293,-19.0519 207.87298,-28.57677 70.7651,3.57131 141.5315,7.14346 212.2959,10.71629 18.4291,-4.16813 36.8577,-8.33563 55.2853,-12.50235 14.4818,-6.5077 28.9645,-13.01529 43.4457,-19.52165 -4.9233,-15.63752 -9.8474,-31.27316 -14.7727,-46.90852 5.8982,-11.90815 11.7951,-23.81477 17.6913,-35.72099 19.167,-5.95462 38.3321,-11.90795 57.4968,-17.86049 25.064,4.76184 50.1263,9.52456 75.1882,14.2884 13.2696,-0.001 26.5378,-0.001 39.8055,0 2.2125,4.1665 4.4239,8.33406 6.6342,12.50234 -1.4732,5.95225 -2.9476,11.90628 -4.4229,17.86049 -9.5813,1.78495 -19.1646,3.5711 -28.7484,5.35814 -13.2674,2.97573 -25.1258,5.63613 -39.8054,8.93024 -11.2115,3.62329 -20.2701,6.55134 -30.4062,9.82835 -10.7706,10.43764 -21.5421,20.87609 -32.3159,31.31691 -3.1967,9.3453 -6.3938,18.6902 -9.5922,28.03661 -11.3812,17.63078 -22.763,35.262 -34.147,52.89609 -2.8181,11.2179 -5.637,22.4357 -8.4569,33.65469 -2.9479,5.35787 -7.3705,10.71558 -11.0571,16.07444 -5.16,11.31274 -10.319,22.62257 -15.48,33.93494 -31.6984,14.88417 -63.393,29.76676 -95.0907,44.65124 -53.812,10.12055 -107.6214,19.05046 -161.4334,28.57678 -47.1768,-1.78681 -94.35265,-3.57283 -141.53045,-5.35815 -24.3251,-4.7636 -50.12454,-9.52632 -75.18814,-14.2884 -25.79962,1.19001 -50.1245,2.38068 -75.18811,3.57211 -40.54324,1.19002 -81.08433,2.38068 -121.62783,3.5721 -32.43394,-5.95436 -64.86728,-11.90773 -97.30227,-17.86049 -12.53071,-8.93115 -25.0618,-17.86122 -37.59405,-26.79075 -30.22192,-8.33565 -60.44445,-16.67051 -90.66801,-25.00469 -15.47929,-1.19144 -30.95892,-2.38212 -46.43972,-3.5721 -22.85158,-2.38224 -45.70169,-5.95421 -68.55387,-8.93024 -56.76058,7.73908 -113.5184,15.47837 -170.27896,23.21864 8.84671,-4.16825 17.69222,-8.33562 26.53699,-12.50235 z"
     sodipodi:nodetypes="ccccccccccccccccccccccccccccccccccccc" />
  <path
     style="fill:#ff0000;fill-opacity:1;stroke:none;stroke-width:1.10443151px;stroke-linecap:butt;stroke-linejoin:miter;stroke-opacity:1"
     d="m 934.88072,347.73072 c -19.9084,10.69596 -40.22325,35.14541 -51.1938,81.49914 -10.97054,46.35373 -12.59565,114.60502 -22.34653,162.4854 -9.75089,47.88039 -27.62761,75.38548 -37.78546,102.89177 -10.15785,27.5063 -12.59551,55.01055 -17.21757,72.55638 -4.62207,17.54583 -12.44145,26.25957 -16.09866,34.91936 -3.6572,8.6598 -3.6572,17.82705 -1.62513,22.92144 2.03208,5.09439 6.0945,6.11298 15.87757,6.15948 9.78308,0.0465 28.40924,-1.06545 36.12827,-4.12186 7.71904,-3.0564 6.09375,-8.15034 2.16913,-12.92624 -3.92461,-4.77589 -9.07656,-8.46667 -11.10795,-18.1457 -2.0314,-9.67903 -0.4063,-24.95906 8.12572,-40.23915 8.53203,-15.28008 23.9727,-30.56237 32.91065,-51.44544 8.93794,-20.88307 11.37589,-47.37183 31.69013,-89.64749 20.31423,-42.27567 58.50807,-100.34605 76.3847,-148.22569 17.87663,-47.87965 15.43881,-85.57343 4.46949,-105.94726 -10.96932,-20.37383 -30.47215,-23.4301 -50.38056,-12.73414 z"
     id="path4526"
     inkscape:connector-curvature="0"
     inkscape:path-effect="#path-effect4528"
     inkscape:original-d="m 935.28613,333.97847 c -20.31382,24.4482 -40.6287,48.89763 -60.94451,73.34831 -1.6243,68.25683 -3.2494,136.50812 -4.87557,204.76404 -17.87642,27.50491 -35.75314,55.01 -53.63119,82.51685 -2.43692,27.50574 -4.87458,55.00999 -7.31333,82.51686 -7.31274,7.13019 -14.6257,16.29838 -21.94003,24.44945 -0.81174,9.16859 6.4e-4,18.33584 0,27.50559 4.0645,1.01762 8.12692,2.03622 12.1889,3.05619 15.43739,-2.03831 34.12991,-2.03868 51.1934,-3.05619 -1.6241,-5.09454 -3.24939,-10.18848 -4.87557,-15.28088 -6.49894,-4.07562 -11.37532,-8.15107 -17.06446,-12.22471 1.62626,-15.28303 3.25135,-30.56306 4.87556,-45.84269 15.43887,-15.28077 30.87954,-30.56306 46.31784,-45.84271 2.4386,-26.48627 4.87655,-52.97503 7.31334,-79.46067 38.19093,-58.06569 76.38476,-116.13608 114.57569,-174.20227 -2.43667,-37.69324 -4.8746,-75.38701 -7.31329,-113.07864 -19.50074,-3.05731 -39.00357,-6.11361 -58.50678,-9.16853 z" />
  <path
     style="fill:#ff0000;fill-opacity:1;stroke:none;stroke-width:0.72663635px;stroke-linecap:butt;stroke-linejoin:miter;stroke-opacity:1"
     d="m 928.06424,347.73069 c 24.38931,2.87645 63.07596,27.80161 84.94226,49.21141 21.8664,21.4098 26.9125,39.30495 29.1552,58.1588 2.2428,18.85386 1.6821,38.6657 -1.9623,57.83928 -3.6443,19.17357 -10.3722,37.70696 -11.4936,59.11785 -1.1215,21.41089 3.3637,45.69578 19.9043,59.75656 16.5407,14.06078 45.1347,17.89535 63.9173,19.17349 18.7827,1.27814 27.7538,-1.2e-4 37.2845,4.47327 9.5306,4.47339 19.6237,14.69992 31.118,18.21497 11.4942,3.51504 24.3899,0.31948 30.8374,0.31909 6.4474,-4e-4 6.4474,3.19534 2.2416,9.90721 -4.2058,6.71187 -12.614,16.93508 -22.7069,19.81136 -10.0929,2.87627 -21.8661,-1.59707 -30.5564,-2.23648 -8.6903,-0.63941 -14.2969,2.55603 -18.7831,-0.32055 -4.4862,-2.87658 -7.8497,-11.82283 -27.1886,-18.24411 -19.3389,-6.42129 -53.5486,-10.19501 -74.5388,-13.48363 -20.9902,-3.28861 -27.2282,-5.65881 -33.9567,-13.00916 -6.72861,-7.35035 -13.45633,-19.49267 -14.01686,-34.51186 -0.56054,-15.0192 5.04625,-32.91454 -0.84064,-59.43633 -5.88689,-26.52179 -23.26872,-61.67456 -31.39843,-86.91956 -8.1297,-25.245 -7.00835,-40.58372 -18.22117,-54.32375 -11.21283,-13.74002 -34.76255,-25.88375 -41.49048,-41.54254 -6.72793,-15.65879 3.36412,-34.83177 27.75342,-31.95532 z"
     id="path4530"
     inkscape:connector-curvature="0"
     inkscape:path-effect="#path-effect4532"
     inkscape:original-d="m 913.76669,325.68185 c 38.68739,24.92446 77.374,49.84969 116.06031,74.7757 5.0466,17.89415 10.0927,35.78929 15.1382,53.68511 -0.56,19.81212 -1.1207,39.62396 -1.6821,59.43709 -6.7277,18.53413 -13.4555,37.06753 -20.1843,55.60244 4.4863,24.28658 8.9715,48.57147 13.4562,72.85837 28.5959,3.83398 57.1899,7.66852 85.7838,11.50395 8.9712,-1.27895 17.9423,-2.55721 26.9123,-3.83464 10.0922,10.22409 20.1852,20.45069 30.2768,30.67719 12.8961,-3.1963 25.7918,-6.39184 38.6868,-9.58661 0,3.19456 0,6.3903 0,9.58661 -8.4116,10.22745 -16.8197,20.45071 -25.2307,30.67721 -11.7746,-4.47487 -23.5477,-8.94828 -35.3227,-13.42127 -5.6061,3.19488 -11.2127,6.3903 -16.8203,9.58662 -3.3638,-8.94958 -6.7274,-17.89581 -10.0921,-26.84256 -35.3205,-3.83525 -69.5235,-7.67007 -104.2862,-11.50394 -7.2882,-2.55726 -13.4554,-5.11366 -20.1842,-7.6693 -6.72787,-12.14459 -13.4556,-24.2869 -20.18438,-36.42919 5.60728,-17.89551 11.21407,-35.79085 16.82008,-53.68512 -17.37924,-35.14991 -34.76102,-70.30271 -52.14283,-105.4529 1.12208,-15.33926 2.2435,-30.67798 3.36403,-46.0158 -23.54647,-12.14317 -47.09619,-24.28691 -70.64532,-36.42919 10.09304,-19.17428 20.18503,-38.34729 30.27661,-57.51977 z" />
  <path
     style="fill:#ff0000;fill-opacity:1;stroke:none;stroke-width:1.23497939px;stroke-linecap:butt;stroke-linejoin:miter;stroke-opacity:1"
     d="m 1195.6108,424.65463 c 37.3377,12.44589 73.3797,24.4599 104.1792,31.02434 30.7995,6.56444 60.4844,7.6361 70.5872,7.81722 10.1028,0.18111 10.2101,-0.35499 14.6201,-0.99144 4.4101,-0.63646 13.1937,-1.46619 18.4678,-2.61902 5.2741,-1.15282 6.9917,-2.57035 6.3388,-3.1512 -0.6528,-0.58085 -3.5748,-0.23532 -9.4331,-0.61163 -5.8582,-0.37631 -14.529,-1.48922 -17.8301,-2.22573 -3.301,-0.73651 -1.2329,-1.09618 -3.3462,-2.3548 -2.1133,-1.25861 -8.4068,-3.41638 -14.3885,-4.8107 -5.9818,-1.39432 -11.6452,-2.02359 -24.2854,-5.29395 -12.6402,-3.27035 -32.4125,-9.22914 -41.6747,-12.8719 -9.2621,-3.64276 -8.0932,-4.99158 -6.0264,-7.86713 2.0667,-2.87556 5.0371,-7.28613 5.4865,-14.25354 0.4494,-6.96742 -1.6195,-16.50258 -3.6876,-26.03373"
     id="path4534"
     inkscape:connector-curvature="0"
     inkscape:path-effect="#path-effect4536"
     inkscape:original-d="m 1195.6108,424.65463 c 37.4101,12.2286 73.3802,24.45843 110.0685,36.6895 24.9102,0.89825 54.5951,1.9699 74.7278,2.69775 0.091,-0.36096 0.1811,-0.90049 0.2698,-1.34887 8.7304,-0.82561 17.514,-1.65535 26.2709,-2.48166 1.7913,-1.47855 3.5089,-2.89608 5.3704,-4.43219 -3.1672,0.37364 -6.0892,0.71918 -9.1353,1.08027 -8.6702,-1.11395 -17.341,-2.22685 -26.0131,-3.3388 2.0697,-0.36097 4.1378,-0.72064 6.2049,-1.0791 -6.2931,-2.15896 -12.5866,-4.31675 -18.8843,-6.47461 -5.666,-0.63093 -11.3294,-1.2602 -16.9959,-1.88844 -19.6062,-5.93743 -39.386,-11.87136 -59.0808,-17.80519 1.1702,-1.35018 2.3391,-2.699 3.5069,-4.04664 2.966,-4.40327 5.9363,-8.8139 8.9026,-13.21901 -2.0663,-9.53023 -4.1353,-19.06538 -6.2048,-28.59622"
     sodipodi:nodetypes="ccccccccccccccc" />
</svg>
