<?xml version="1.0" encoding="UTF-8" standalone="no"?>
<!-- Created with Inkscape (http://www.inkscape.org/) -->

<svg
   xmlns:osb="http://www.openswatchbook.org/uri/2009/osb"
   xmlns:dc="http://purl.org/dc/elements/1.1/"
   xmlns:cc="http://creativecommons.org/ns#"
   xmlns:rdf="http://www.w3.org/1999/02/22-rdf-syntax-ns#"
   xmlns:svg="http://www.w3.org/2000/svg"
   xmlns="http://www.w3.org/2000/svg"
   xmlns:sodipodi="http://sodipodi.sourceforge.net/DTD/sodipodi-0.dtd"
   xmlns:inkscape="http://www.inkscape.org/namespaces/inkscape"
   width="1920px"
   height="1080px"
   viewBox="0 0 1920 1080"
   version="1.1"
   id="SVGRoot"
   inkscape:version="0.92.2 (5c3e80d, 2017-08-06)"
   sodipodi:docname="Herrerasauridae.svg"
   inkscape:export-filename="C:\Users\customer\Documents\ThatChapThere.github.io\dinosaurs\alt_images\Silluettes\Sauropoda.png"
   inkscape:export-xdpi="64"
   inkscape:export-ydpi="64">
  <sodipodi:namedview
     id="base"
     pagecolor="#ffffff"
     bordercolor="#666666"
     borderopacity="1.0"
     inkscape:pageopacity="0.0"
     inkscape:pageshadow="2"
     inkscape:zoom="0.49497475"
     inkscape:cx="1156.6039"
     inkscape:cy="408.42267"
     inkscape:document-units="px"
     inkscape:current-layer="layer1"
     showgrid="false"
     inkscape:window-width="1920"
     inkscape:window-height="1027"
     inkscape:window-x="-8"
     inkscape:window-y="-8"
     inkscape:window-maximized="1" />
  <defs
     id="defs5119">
    <inkscape:path-effect
       effect="bspline"
       id="path-effect5770"
       is_visible="true"
       weight="33.333333"
       steps="2"
       helper_size="0"
       apply_no_weight="true"
       apply_with_weight="true"
       only_selected="false" />
    <inkscape:path-effect
       effect="bspline"
       id="path-effect5766"
       is_visible="true"
       weight="33.333333"
       steps="2"
       helper_size="0"
       apply_no_weight="true"
       apply_with_weight="true"
       only_selected="false" />
    <inkscape:path-effect
       effect="bspline"
       id="path-effect5762"
       is_visible="true"
       weight="33.333333"
       steps="2"
       helper_size="0"
       apply_no_weight="true"
       apply_with_weight="true"
       only_selected="false" />
    <inkscape:path-effect
       effect="bspline"
       id="path-effect5754"
       is_visible="true"
       weight="33.333333"
       steps="2"
       helper_size="0"
       apply_no_weight="true"
       apply_with_weight="true"
       only_selected="false" />
    <inkscape:path-effect
       effect="bspline"
       id="path-effect5746"
       is_visible="true"
       weight="33.333333"
       steps="2"
       helper_size="0"
       apply_no_weight="true"
       apply_with_weight="true"
       only_selected="false" />
    <inkscape:path-effect
       effect="bspline"
       id="path-effect5742"
       is_visible="true"
       weight="33.333333"
       steps="2"
       helper_size="0"
       apply_no_weight="true"
       apply_with_weight="true"
       only_selected="false" />
    <inkscape:path-effect
       effect="bspline"
       id="path-effect5738"
       is_visible="true"
       weight="33.333333"
       steps="2"
       helper_size="0"
       apply_no_weight="true"
       apply_with_weight="true"
       only_selected="false" />
    <inkscape:path-effect
       effect="bspline"
       id="path-effect5726"
       is_visible="true"
       weight="33.333333"
       steps="2"
       helper_size="0"
       apply_no_weight="true"
       apply_with_weight="true"
       only_selected="false" />
    <linearGradient
       id="linearGradient5708"
       osb:paint="solid">
      <stop
         style="stop-color:#000000;stop-opacity:1;"
         offset="0"
         id="stop5706" />
    </linearGradient>
    <inkscape:path-effect
       effect="bspline"
       id="path-effect5704"
       is_visible="true"
       weight="33.333333"
       steps="2"
       helper_size="0"
       apply_no_weight="true"
       apply_with_weight="true"
       only_selected="false" />
    <inkscape:path-effect
       effect="bspline"
       id="path-effect5700"
       is_visible="true"
       weight="33.333333"
       steps="2"
       helper_size="0"
       apply_no_weight="true"
       apply_with_weight="true"
       only_selected="false" />
    <inkscape:path-effect
       only_selected="false"
       apply_with_weight="true"
       apply_no_weight="true"
       helper_size="0"
       steps="2"
       weight="33.333333"
       is_visible="true"
       id="path-effect5696"
       effect="bspline" />
    <inkscape:path-effect
       effect="bspline"
       id="path-effect5692"
       is_visible="true"
       weight="33.333333"
       steps="2"
       helper_size="0"
       apply_no_weight="true"
       apply_with_weight="true"
       only_selected="false" />
  </defs>
  <metadata
     id="metadata5122">
    <rdf:RDF>
      <cc:Work
         rdf:about="">
        <dc:format>image/svg+xml</dc:format>
        <dc:type
           rdf:resource="http://purl.org/dc/dcmitype/StillImage" />
        <dc:title></dc:title>
      </cc:Work>
    </rdf:RDF>
  </metadata>
  <g
     id="layer1"
     inkscape:groupmode="layer"
     inkscape:label="Layer 1">
    <path
       style="fill:#ff0000;fill-opacity:1;stroke:none;stroke-width:1.13195074px;stroke-linecap:butt;stroke-linejoin:miter;stroke-opacity:1"
       d="m 76.520096,500.90335 c 64.032754,-11.05301 174.565564,-24.01203 299.962374,-47.26193 125.39681,-23.2499 265.66073,-56.79127 396.01251,-74.32875 130.35177,-17.53749 249.27112,-19.05239 354.08622,-18.67123 104.8152,0.38116 194.7669,2.66807 261.0863,1.52457 66.3195,-1.1435 109.0085,-5.71732 150.172,-14.48368 41.1634,-8.76637 80.8039,-21.72578 99.0982,-36.59045 18.2944,-14.86468 15.2451,-31.63577 12.96,-51.42962 -2.2851,-19.79386 -3.8131,-42.71453 27.8213,-56.05412 31.6345,-13.33958 96.4325,-17.15123 139.5019,-17.91345 43.0694,-0.76223 64.414,1.52469 75.8478,8.00342 11.4339,6.47872 12.9586,17.15136 9.9097,23.63125 -3.0488,6.4799 -10.671,8.76655 -34.3057,14.10343 -23.6347,5.33689 -63.267,13.72065 -74.7012,17.15104 -11.4342,3.43038 5.3357,1.90584 28.9658,-1.90548 23.6301,-3.81133 54.1242,-9.91015 69.7505,-8.38614 15.6263,1.52402 16.3886,10.67194 16.7698,19.05757 0.3812,8.38563 0.3812,16.00772 -20.2031,26.30002 -20.5844,10.2923 -61.7422,23.24939 -91.0908,32.77816 -29.3487,9.52876 -46.881,15.62695 -63.2712,30.87336 -16.3901,15.24641 -31.6349,39.638 -49.1682,65.55682 -17.5332,25.91882 -37.3518,53.35992 -65.9385,77.37297 -28.5868,24.01304 -65.9376,44.59407 -106.7211,65.5576 -40.7836,20.96353 -84.9951,42.30703 -142.1807,59.39167 -57.1856,17.08465 -128.8145,30.17812 -193.2866,36.06454 -64.472,5.88642 -122.5191,4.70007 -206.37316,2.032 C 887.3702,650.60885 777.7166,646.45926 706.88021,638.2861 636.04383,630.11294 604.02773,617.91633 543.84403,604.65725 483.66032,591.39816 395.31237,577.07735 296.21404,564.49945 197.1157,551.92155 87.268547,541.0869 41.111638,531.09535 c -46.1569099,-9.99155 -28.624291,-19.139 35.408458,-30.192 z"
       id="path5724"
       inkscape:connector-curvature="0"
       inkscape:path-effect="#path-effect5726"
       inkscape:original-d="M 30.018784,502.80951 C 140.55273,489.84936 251.08554,476.89034 361.61722,463.93245 501.87909,430.39071 642.14301,396.84934 782.40421,363.30948 c 120.44265,-1.52571 239.36189,-3.05031 359.04099,-4.57377 89.9512,2.28573 179.9029,4.57264 269.8525,6.86065 42.6892,-4.57485 85.3782,-9.14867 128.0657,-13.72131 39.6393,-12.95977 79.2798,-25.91917 118.9179,-38.87705 -3.0478,-16.77106 -6.0971,-33.54214 -9.1475,-50.3115 -0.7611,-22.86877 -3.048,-45.73885 -4.5737,-68.60657 64.7933,-3.81243 129.5913,-7.62408 194.3852,-11.43442 21.3451,2.2857 42.6897,4.57264 64.0329,6.86065 1.5256,10.6705 3.0503,21.34313 4.5738,32.0164 -7.6226,2.28596 -15.2448,4.57264 -22.869,6.86066 -39.6452,8.38559 -79.2775,16.76936 -118.9179,25.15574 16.7721,-1.52577 33.542,-3.05032 50.3114,-4.57377 30.4907,-6.09904 60.9848,-12.19786 91.4755,-18.29509 0.7633,9.14603 1.5257,18.29395 2.2868,27.44263 0,7.62268 0,15.24477 0,22.86886 -41.1689,12.95981 -82.3267,25.9169 -123.4918,38.87706 -17.5322,6.09743 -35.0645,12.19559 -52.5984,18.29508 -15.2459,24.39422 -30.4907,48.78577 -45.7377,73.18035 -19.8197,27.44299 -39.6382,54.88413 -59.459,82.32789 -37.3531,20.5818 -74.7039,41.16281 -112.0575,61.74591 -44.2135,21.34391 -88.425,42.68741 -132.6393,64.03281 -70.1322,12.95829 -141.7858,25.9169 -212.6803,38.87705 -58.0494,-1.18755 -116.0965,-2.3739 -174.14812,-3.55919 -109.65644,-4.15088 -219.31004,-8.30047 -328.96677,-12.449 C 636.04435,630.11158 604.02825,617.91497 572.01072,605.71937 483.66053,591.39688 395.31258,577.07606 306.96181,562.75611 197.11582,551.92033 87.268668,541.08567 -22.579589,530.25214 -5.0454913,521.10338 12.487124,511.95592 30.018784,502.80951 Z"
       sodipodi:nodetypes="ccccccccccccccccccccccccccccccc" />
    <path
       style="fill:#ff0000;fill-opacity:1;stroke:none;stroke-width:1.75026762px;stroke-linecap:butt;stroke-linejoin:miter;stroke-opacity:1"
       d="m 699.46403,424.43388 c 77.681,72.38065 155.36166,144.76099 193.59577,189.11132 38.23411,44.35033 36.7207,64.72793 16.27712,115.70345 -20.44358,50.97552 -59.96188,134.56246 -72.90897,184.51632 -12.94709,49.95385 0.68085,66.26459 17.03493,86.14398 16.35407,19.87935 35.43304,43.32595 56.55787,55.55925 21.12483,12.2332 44.29236,13.2527 55.8753,13.7623 11.58293,0.5097 130.14825,0.5097 132.87435,-4.0785 2.726,-4.5882 8.1776,-13.7636 2.7283,-19.3692 -5.4492,-5.6056 -21.8063,-7.6449 -50.9922,-10.1937 -29.1858,-2.5488 -69.74634,-5.5014 -97.23873,-19.7388 -27.4924,-14.2373 -38.24477,-37.86023 -42.60298,-53.71343 -4.35821,-15.85319 -1.32605,-24.92592 25.47128,-52.33356 26.79734,-27.40764 79.34233,-75.60604 108.79363,-126.57839 29.4513,-50.97234 36.6481,-105.48694 36.6881,-167.40512 0.04,-61.91817 -7.0764,-131.24017 -14.1926,-200.5609"
       id="path5740"
       inkscape:connector-curvature="0"
       inkscape:path-effect="#path-effect5742"
       inkscape:original-d="m 699.46403,424.43388 c 77.6827,72.37882 155.36335,144.75917 233.04199,217.14102 -1.36079,16.30959 -2.72359,36.69837 -4.08847,55.04983 -39.52313,83.59995 -79.04144,167.18689 -118.56522,250.78264 13.63052,16.30979 27.25842,32.62056 40.88457,48.93311 19.08195,23.44632 38.16095,46.89282 57.23839,70.34142 23.17036,1.018 46.33789,2.0374 69.50369,3.0583 h 118.56532 c 5.453,-9.1759 10.9046,-18.3513 16.3538,-27.5248 -16.3484,-2.04 -32.7055,-4.0794 -49.0614,-6.1166 -42.0159,-3.0603 -82.57642,-6.0128 -126.04076,-9.1751 -11.51833,-25.3117 -22.2707,-48.93465 -33.4091,-73.39978 2.72757,-7.13736 5.45328,-16.31251 8.1769,-24.46661 50.86964,-46.66167 103.41466,-94.86007 155.12036,-142.28853 7.1981,-54.51605 14.3948,-109.03065 21.5902,-163.54383 -7.1143,-69.32355 -14.2307,-138.64554 -21.3491,-207.96605"
       sodipodi:nodetypes="cccccccccccccccc" />
    <path
       style="fill:#ff0000;fill-opacity:1;stroke:none;stroke-width:1.27824306px;stroke-linecap:butt;stroke-linejoin:miter;stroke-opacity:1"
       d="m 1445.084,514.14771 c -12.6028,48.56328 -25.2059,97.12802 -27.0063,125.52701 -1.8004,28.39898 7.2014,36.62991 24.3352,50.58522 17.1338,13.9553 40.4805,32.14018 53.646,45.51554 13.1655,13.37537 15.191,21.19519 17.4425,25.00249 2.2515,3.80731 4.7268,3.60155 5.9077,1.69858 1.1808,-1.90297 1.0683,-5.50628 1.6869,-6.27783 0.6186,-0.77155 1.9694,1.28697 3.8264,3.55096 1.857,2.26399 4.2196,4.73289 4.8384,3.85789 0.6188,-0.87499 -0.5065,-5.09356 -0.1124,-6.94518 0.394,-1.85162 2.3079,-1.3369 5.5699,-0.10265 3.2621,1.23425 7.8779,3.19009 12.3227,4.42468 4.4448,1.23458 8.7213,1.7491 10.2226,0.36686 1.5012,-1.38223 0.2978,-4.4833 -4.2584,-8.64943 -4.5562,-4.16613 -12.4349,-9.31184 -14.7977,-11.47254 -2.3627,-2.16069 0.7881,-1.33755 5.5694,0.71983 4.7813,2.05738 11.1973,5.35088 15.2483,5.50438 4.051,0.1535 5.7391,-2.8306 2.2527,-6.78978 -3.4865,-3.95919 -12.1553,-8.90038 -14.7429,-11.47286 -2.5876,-2.57249 0.9005,-2.77826 5.5128,-2.05817 4.6123,0.72008 10.3535,2.36701 14.4607,1.95485 4.1073,-0.41216 6.5831,-2.88181 2.141,-6.27538 -4.4421,-3.39356 -15.8133,-7.71723 -31.7368,-17.85252 -15.9235,-10.13529 -36.4024,-26.08262 -46.8113,-35.85795 -10.409,-9.77533 -10.7465,-13.37649 -3.3004,-24.89708 7.4461,-11.5206 22.6842,-30.97232 30.3003,-51.89858 7.6161,-20.92626 7.6161,-43.33646 7.6161,-65.74385"
       id="path5744"
       inkscape:connector-curvature="0"
       inkscape:path-effect="#path-effect5746"
       inkscape:original-d="m 1445.084,514.14771 c -12.6018,48.56353 -25.2049,97.12828 -37.8094,145.69425 9.004,8.23033 18.0057,16.46139 27.0067,24.69393 25.2073,19.75393 48.6132,37.86281 72.9178,56.79607 2.0269,7.81847 4.0525,15.63827 6.0765,23.45924 2.4772,-0.20704 4.9525,-0.41279 7.4268,-0.61735 -0.111,-3.60032 -0.2236,-7.20362 -0.3375,-10.80359 1.3512,2.05592 2.702,4.11442 4.0509,6.17347 2.3649,2.46869 4.7275,4.93757 7.0892,7.40819 -1.1239,-4.21975 -2.2491,-8.43833 -3.3757,-12.65565 1.9135,0.51301 3.8274,1.0277 5.7388,1.54338 4.6129,1.95282 9.2287,3.90865 13.841,5.86481 4.2769,0.51317 8.5534,1.02768 12.8281,1.54338 -1.2361,-3.29288 -2.4742,-6.38049 -3.7134,-9.56891 -7.8739,-5.14466 -15.7526,-10.29036 -23.6308,-15.43371 3.1522,0.82193 6.303,1.64504 9.4523,2.46939 6.4137,3.29037 12.8297,6.58383 19.2423,9.87758 1.6892,-2.98486 3.3773,-5.96892 5.0637,-8.95155 -8.659,-4.9376 -17.3278,-9.8788 -25.9938,-14.81637 3.4898,-0.20701 6.9779,-0.41279 10.465,-0.61736 5.738,1.64438 11.4792,3.29131 17.2167,4.9388 2.4766,-2.47026 4.9524,-4.94001 7.4269,-7.40818 -11.3581,-4.32044 -22.7293,-8.64411 -34.096,-12.96432 -20.4797,-15.95032 -40.9587,-31.89756 -61.44,-47.84451 -0.3363,-3.60245 -0.6738,-7.20361 -1.0127,-10.80359 15.2299,-19.44094 30.468,-38.89262 45.7,-58.33708 0.3195,-22.40824 0,-44.81844 0,-67.22583"
       sodipodi:nodetypes="ccccccccccccccccccccccccccc" />
    <path
       style="fill:#ff0000;fill-opacity:1;stroke:none;stroke-width:1.39478219px;stroke-linecap:butt;stroke-linejoin:miter;stroke-opacity:1"
       d="m 1095.5422,1045.0862 c 10.0064,-0.5788 20.0114,-1.1575 29.2055,1.3017 9.1941,2.4592 17.5805,7.9575 21.6785,10.7781 4.0981,2.8205 3.9075,2.9652 -0.7945,2.3825 -4.702,-0.5827 -13.7844,-1.8755 -23.1001,-0.8708 -9.3158,1.0047 -18.8885,4.3476 -28.4187,7.6756"
       id="path5752"
       inkscape:connector-curvature="0"
       inkscape:path-effect="#path-effect5754"
       inkscape:original-d="m 1095.5422,1045.0862 c 10.0063,-0.5804 20.0113,-1.1591 30.0154,-1.7361 8.3854,5.4952 16.7717,10.9936 25.1557,16.4929 -0.1894,0.143 -0.38,0.2876 -0.5716,0.434 -9.2117,-1.3131 -18.2941,-2.6059 -27.4427,-3.9062 -9.5287,3.1814 -19.0563,6.6533 -28.5861,9.9825"
       sodipodi:nodetypes="cccccc" />
    <path
       style="fill:#ff0000;fill-opacity:1;stroke:none;stroke-width:1.13195074px;stroke-linecap:butt;stroke-linejoin:miter;stroke-opacity:1"
       d="m 1565.0909,723.49399 c 4.4314,1.66773 8.8622,3.33525 11.9347,5.69308 3.0725,2.35783 4.7879,5.40745 5.4556,6.97972 0.6678,1.57228 0.2867,1.66755 -1.3865,0.71143 -1.6733,-0.95611 -4.6168,-2.95011 -8.333,-4.76059 -3.7161,-1.81049 -8.1943,-3.43025 -12.6735,-5.05038"
       id="path5760"
       inkscape:connector-curvature="0"
       inkscape:path-effect="#path-effect5762"
       inkscape:original-d="m 1565.0909,723.49399 c 4.4319,1.66639 8.8627,3.33391 13.2925,5.00257 1.716,3.04761 3.4314,6.09723 5.1455,9.14754 -0.3801,0.0942 -0.7612,0.18944 -1.1435,0.28586 -2.9631,-2.00915 -5.9066,-4.00319 -8.8617,-6.00308 -4.4776,-1.62115 -8.9558,-3.24088 -13.4355,-4.85963" />
    <path
       style="fill:#ff0000;fill-opacity:1;stroke:none;stroke-width:1.13195074px;stroke-linecap:butt;stroke-linejoin:miter;stroke-opacity:1"
       d="m 1559.0878,740.35977 c 3.4308,1.6201 6.8611,3.24002 9.8145,5.8361 2.9534,2.59608 5.4312,6.16988 6.4087,8.05164 0.9774,1.88175 0.4533,2.07234 -1.0157,1.19806 -1.4691,-0.87429 -3.9159,-2.84132 -7.3461,-4.72321 -3.4303,-1.8819 -7.8608,-3.69222 -12.2923,-5.50295"
       id="path5764"
       inkscape:connector-curvature="0"
       inkscape:path-effect="#path-effect5766"
       inkscape:original-d="m 1559.0878,740.35977 c 3.4314,1.61875 6.8618,3.23863 10.2909,4.85964 2.4783,3.57162 4.9562,7.14538 7.4324,10.71977 -0.5229,0.18946 -1.047,0.38002 -1.5721,0.57172 -2.4351,-1.91182 -4.8586,-3.90789 -7.2896,-5.86014 -4.4299,-1.81168 -8.8604,-3.62203 -13.2925,-5.43135" />
    <path
       style="fill:#ff0000;fill-opacity:1;stroke:none;stroke-width:1.13195074px;stroke-linecap:butt;stroke-linejoin:miter;stroke-opacity:1"
       d="m 1550.369,752.79472 c 5.2891,2.04891 10.5776,4.0976 14.1741,7.0509 3.5965,2.95329 5.5024,6.81288 6.2654,8.93271 0.7629,2.11982 0.3818,2.50091 -1.3384,1.47362 -1.7201,-1.0273 -4.7603,-3.44995 -8.6907,-5.45095 -3.9304,-2.00101 -8.7422,-3.57315 -13.5549,-5.14563"
       id="path5768"
       inkscape:connector-curvature="0"
       inkscape:path-effect="#path-effect5770"
       inkscape:original-d="m 1550.369,752.79472 c 5.2896,2.04754 10.5781,4.0962 15.8653,6.146 1.9066,3.85754 3.8126,7.71711 5.7172,11.57736 -0.3801,0.38006 -0.7612,0.76116 -1.1435,1.14345 -3.057,-2.43817 -6.0972,-4.86077 -9.1475,-7.28946 -4.8111,-1.57343 -9.6228,-3.1456 -14.436,-4.7167" />
  </g>
</svg>
