<?xml version="1.0" encoding="UTF-8" standalone="no"?>
<!-- Created with Inkscape (http://www.inkscape.org/) -->

<svg
   xmlns:osb="http://www.openswatchbook.org/uri/2009/osb"
   xmlns:dc="http://purl.org/dc/elements/1.1/"
   xmlns:cc="http://creativecommons.org/ns#"
   xmlns:rdf="http://www.w3.org/1999/02/22-rdf-syntax-ns#"
   xmlns:svg="http://www.w3.org/2000/svg"
   xmlns="http://www.w3.org/2000/svg"
   xmlns:sodipodi="http://sodipodi.sourceforge.net/DTD/sodipodi-0.dtd"
   xmlns:inkscape="http://www.inkscape.org/namespaces/inkscape"
   width="1920px"
   height="1080px"
   viewBox="0 0 1920 1080"
   version="1.1"
   id="SVGRoot"
   inkscape:version="0.92.2 (5c3e80d, 2017-08-06)"
   sodipodi:docname="Iguanodontia.svg"
   inkscape:export-filename="C:\Users\customer\Documents\ThatChapThere.github.io\dinosaurs\alt_images\Silluettes\Ornithischia.png"
   inkscape:export-xdpi="73.809662"
   inkscape:export-ydpi="73.809662">
  <sodipodi:namedview
     id="base"
     pagecolor="#ffffff"
     bordercolor="#666666"
     borderopacity="1.0"
     inkscape:pageopacity="0.0"
     inkscape:pageshadow="2"
     inkscape:zoom="0.49497475"
     inkscape:cx="1149.0774"
     inkscape:cy="307.81066"
     inkscape:document-units="px"
     inkscape:current-layer="layer1"
     showgrid="false"
     inkscape:window-width="1920"
     inkscape:window-height="1027"
     inkscape:window-x="-8"
     inkscape:window-y="-8"
     inkscape:window-maximized="1" />
  <defs
     id="defs5119">
    <inkscape:path-effect
       effect="bspline"
       id="path-effect5814"
       is_visible="true"
       weight="33.333333"
       steps="2"
       helper_size="0"
       apply_no_weight="true"
       apply_with_weight="true"
       only_selected="false" />
    <inkscape:path-effect
       effect="bspline"
       id="path-effect5806"
       is_visible="true"
       weight="33.333333"
       steps="2"
       helper_size="0"
       apply_no_weight="true"
       apply_with_weight="true"
       only_selected="false" />
    <inkscape:path-effect
       effect="bspline"
       id="path-effect5802"
       is_visible="true"
       weight="33.333333"
       steps="2"
       helper_size="0"
       apply_no_weight="true"
       apply_with_weight="true"
       only_selected="false" />
    <inkscape:path-effect
       effect="bspline"
       id="path-effect5770"
       is_visible="true"
       weight="33.333333"
       steps="2"
       helper_size="0"
       apply_no_weight="true"
       apply_with_weight="true"
       only_selected="false" />
    <inkscape:path-effect
       effect="bspline"
       id="path-effect5766"
       is_visible="true"
       weight="33.333333"
       steps="2"
       helper_size="0"
       apply_no_weight="true"
       apply_with_weight="true"
       only_selected="false" />
    <inkscape:path-effect
       effect="bspline"
       id="path-effect5762"
       is_visible="true"
       weight="33.333333"
       steps="2"
       helper_size="0"
       apply_no_weight="true"
       apply_with_weight="true"
       only_selected="false" />
    <inkscape:path-effect
       effect="bspline"
       id="path-effect5754"
       is_visible="true"
       weight="33.333333"
       steps="2"
       helper_size="0"
       apply_no_weight="true"
       apply_with_weight="true"
       only_selected="false" />
    <inkscape:path-effect
       effect="bspline"
       id="path-effect5746"
       is_visible="true"
       weight="33.333333"
       steps="2"
       helper_size="0"
       apply_no_weight="true"
       apply_with_weight="true"
       only_selected="false" />
    <inkscape:path-effect
       effect="bspline"
       id="path-effect5742"
       is_visible="true"
       weight="33.333333"
       steps="2"
       helper_size="0"
       apply_no_weight="true"
       apply_with_weight="true"
       only_selected="false" />
    <inkscape:path-effect
       effect="bspline"
       id="path-effect5738"
       is_visible="true"
       weight="33.333333"
       steps="2"
       helper_size="0"
       apply_no_weight="true"
       apply_with_weight="true"
       only_selected="false" />
    <inkscape:path-effect
       effect="bspline"
       id="path-effect5726"
       is_visible="true"
       weight="33.333333"
       steps="2"
       helper_size="0"
       apply_no_weight="true"
       apply_with_weight="true"
       only_selected="false" />
    <linearGradient
       id="linearGradient5708"
       osb:paint="solid">
      <stop
         style="stop-color:#000000;stop-opacity:1;"
         offset="0"
         id="stop5706" />
    </linearGradient>
    <inkscape:path-effect
       effect="bspline"
       id="path-effect5704"
       is_visible="true"
       weight="33.333333"
       steps="2"
       helper_size="0"
       apply_no_weight="true"
       apply_with_weight="true"
       only_selected="false" />
    <inkscape:path-effect
       effect="bspline"
       id="path-effect5700"
       is_visible="true"
       weight="33.333333"
       steps="2"
       helper_size="0"
       apply_no_weight="true"
       apply_with_weight="true"
       only_selected="false" />
    <inkscape:path-effect
       only_selected="false"
       apply_with_weight="true"
       apply_no_weight="true"
       helper_size="0"
       steps="2"
       weight="33.333333"
       is_visible="true"
       id="path-effect5696"
       effect="bspline" />
    <inkscape:path-effect
       effect="bspline"
       id="path-effect5692"
       is_visible="true"
       weight="33.333333"
       steps="2"
       helper_size="0"
       apply_no_weight="true"
       apply_with_weight="true"
       only_selected="false" />
  </defs>
  <metadata
     id="metadata5122">
    <rdf:RDF>
      <cc:Work
         rdf:about="">
        <dc:format>image/svg+xml</dc:format>
        <dc:type
           rdf:resource="http://purl.org/dc/dcmitype/StillImage" />
        <dc:title></dc:title>
      </cc:Work>
    </rdf:RDF>
  </metadata>
  <g
     id="layer1"
     inkscape:groupmode="layer"
     inkscape:label="Layer 1">
    <path
       style="fill:#ff0000;fill-opacity:1;stroke:none;stroke-width:1px;stroke-linecap:butt;stroke-linejoin:miter;stroke-opacity:1"
       d="m 118.62423,405.05463 c 62.53074,1.51039 172.97409,6.89787 288.80446,3.86738 115.83037,-3.03048 237.04971,-14.47898 342.44192,-26.60078 105.3922,-12.1218 194.95986,-24.91718 288.56669,-31.31473 93.6068,-6.39755 191.2561,-6.39755 263.9867,-0.67333 72.7305,5.72423 120.5449,17.17274 156.9105,15.48883 36.3655,-1.6839 61.283,-16.49971 77.445,-30.30506 16.162,-13.80536 23.5701,-26.60126 28.6562,-37.2177 5.0861,-10.61644 7.8513,-19.05555 28.8963,-21.74865 21.0451,-2.69311 58.8951,0.24336 90.4738,5.66888 31.5787,5.42552 52.3205,12.55551 64.1052,23.32993 11.7848,10.77442 13.805,24.91593 13.8893,31.23014 0.084,6.31421 -1.7675,4.7991 -5.6182,3.64614 -3.8508,-1.15297 -9.6991,-1.94339 -12.236,-1.02813 -2.537,0.91526 -1.7595,3.53481 -1.5174,5.70935 0.242,2.17454 -0.052,3.89782 0.7485,4.86732 0.8007,0.9695 2.6931,1.17977 5.3765,1.16916 2.6834,-0.0106 6.1557,-0.24209 8.4812,-0.7791 2.3254,-0.53702 3.5039,-1.37881 4.2609,-0.87373 0.757,0.50508 1.0936,2.35623 -9e-4,6.73524 -1.0945,4.379 -3.6184,11.27756 -12.8998,16.63579 -9.2814,5.35822 -25.3122,9.16821 -51.3933,8.57983 -26.0811,-0.58838 -62.1983,-5.5757 -95.0097,7.7555 -32.8114,13.3312 -62.3063,44.97932 -95.2379,72.25324 -32.9315,27.27391 -69.2958,50.16995 -126.7124,92.58036 -57.4166,42.41041 -135.8782,104.32987 -223.2864,134.15906 -87.4082,29.82918 -183.75463,27.56384 -269.78239,20.50964 -86.02777,-7.0542 -161.72949,-18.89678 -253.69545,-57.7183 C 542.3116,612.15938 434.08746,546.36101 351.67612,507.99193 269.26477,469.62285 212.66848,458.68454 162.83421,446.63743 112.99995,434.59031 69.92872,421.43457 55.702037,413.67286 c -14.226684,-7.76172 0.391448,-10.12862 62.922193,-8.61823 z"
       id="path5800"
       inkscape:connector-curvature="0"
       inkscape:path-effect="#path-effect5802"
       inkscape:original-d="m 70.710678,401.17749 c 110.444342,5.38648 220.887692,10.77396 331.330032,16.16244 121.21827,-11.4493 242.43761,-22.89779 363.65492,-34.34519 89.56706,-12.79615 179.13472,-25.59153 268.70057,-38.38579 97.6479,-10e-4 195.2972,-10e-4 292.9442,0 47.8144,11.44728 95.6288,22.89579 143.4417,34.34518 24.9177,-14.81634 49.8352,-29.63214 74.7513,-44.44671 7.4084,-12.79566 14.8166,-25.59153 22.2233,-38.38579 2.7657,-8.43863 5.5309,-16.87773 8.2948,-25.3151 39.3257,3.04988 77.1757,5.98635 117.9743,9.15266 22.3591,7.68461 43.1009,14.81458 64.6498,22.22336 2.0213,14.14111 4.0415,28.28262 6.0609,42.4264 -1.851,-1.5163 -3.7028,-3.03138 -5.5558,-4.54569 -5.8492,-0.79167 -11.6975,-1.58208 -17.5496,-2.37187 0.7792,2.62107 1.5567,5.24062 2.3342,7.86458 -0.2938,1.72561 -0.588,3.44889 -0.8839,5.17703 1.8966,0.20962 3.789,0.41989 5.6821,0.63135 3.4735,-0.23251 6.9458,-0.46399 10.4172,-0.69448 1.1795,-0.8428 2.358,-1.68459 3.5355,-2.52538 0.3377,1.85094 0.6743,3.70209 1.0102,5.55583 -2.5255,6.90467 -5.0494,13.80322 -7.5762,20.70813 -16.0367,3.81063 -32.0675,7.62062 -48.1048,11.43292 -36.1245,-4.98946 -72.2417,-9.97678 -108.3673,-14.96411 -29.4974,31.65087 -58.9923,63.29898 -88.4899,94.94999 -36.3657,22.89655 -72.73,45.79258 -109.0965,68.69038 -78.4666,61.92314 -156.9282,123.84261 -235.3952,185.76654 -96.3493,-2.26644 -192.69571,-4.53178 -289.04726,-6.79623 C 801.94542,701.64388 726.2437,689.8013 650.53824,677.95929 542.31231,612.15821 434.08818,546.35983 325.86085,480.56112 269.26499,469.6217 212.6687,458.68339 156.07112,447.74603 113.00031,434.58912 69.929085,421.43338 26.8557,408.27829 c 14.619522,-2.36796 29.237652,-4.73487 43.854978,-7.1008 z"
       sodipodi:nodetypes="cccccccccccccccccccccccccccccccc" />
    <path
       style="fill:#ff0000;fill-opacity:1;stroke:none;stroke-width:1.26639068px;stroke-linecap:butt;stroke-linejoin:miter;stroke-opacity:1"
       d="m 535.61685,483.51808 c 108.62363,71.63689 216.54532,142.81085 269.29391,191.34535 52.7486,48.5345 49.92922,74.60574 37.48595,123.10913 -12.44327,48.50339 -34.53032,119.63441 -40.66958,158.01093 -6.13925,38.37652 3.6703,43.9928 17.4517,50.71531 13.78141,6.7225 31.53358,14.5507 53.62038,18.2782 22.0868,3.7276 48.5073,3.3547 65.97703,0.7334 17.46972,-2.6213 25.98845,-7.49 17.05206,-12.3258 -8.93638,-4.8357 -35.33526,-9.6407 -34.91856,-11.6081 0.4167,-1.96731 27.64451,-1.0974 40.65906,-3.50826 13.01456,-2.41081 11.81638,-8.10162 5.19603,-11.3626 -6.62035,-3.26097 -20.14314,-4.19565 -28.33595,-5.01191 -8.19281,-0.81626 -11.7928,-1.56507 -5.49066,-2.45273 6.30215,-0.88765 22.51333,-1.91432 32.21333,-5.16554 9.69999,-3.25121 12.8931,-8.72665 4.10787,-11.31068 -8.78523,-2.58402 -29.55951,-2.27835 -40.28827,-4.21359 -10.72875,-1.93524 -11.41598,-6.10975 -13.55023,-14.57743 -2.13426,-8.46768 -5.7175,-21.23589 5.96488,-39.95848 11.68239,-18.72259 38.63256,-43.40743 55.90969,-83.96815 17.27712,-40.56073 24.88531,-97.00457 13.60629,-144.351 C 979.62277,628.54969 949.45744,590.29685 908.75893,559.22937 868.06042,528.16189 816.8282,504.27939 765.59561,480.39672"
       id="path5804"
       inkscape:connector-curvature="0"
       inkscape:path-effect="#path-effect5806"
       inkscape:original-d="m 535.61685,483.51808 c 108.44395,71.90933 216.54626,142.80943 324.81781,214.21616 -2.1213,25.73441 -5.59378,51.73503 -8.39226,77.60456 -22.08837,71.13733 -44.17542,142.26835 -66.26473,213.40455 9.81104,5.6152 19.62064,11.2314 29.42937,16.84925 17.75388,7.8271 35.50601,15.6554 53.25743,23.485 26.42152,-0.3743 52.84202,-0.7473 79.26132,-1.1189 8.51988,-4.8701 17.03858,-9.7389 25.55638,-14.6064 -26.38998,-4.8049 -52.78888,-9.6098 -79.18598,-14.41305 27.2303,0.8685 54.4581,1.73855 81.68548,2.60965 -1.197,-5.69175 -2.3952,-11.38255 -3.5944,-17.07185 -12.0427,-0.8337 -25.56548,-1.7685 -38.35138,-2.6508 -3.5995,-0.75032 -7.1995,-1.49909 -10.8008,-2.24661 16.2052,-1.02755 32.41638,-2.05425 48.62298,-3.07933 3.1937,-5.47593 6.3868,-10.95137 9.5786,-16.42506 -20.7625,0.30418 -41.53678,0.60987 -62.30678,0.9168 -0.6863,-4.1763 -1.3735,-8.35081 -2.0618,-12.52422 -3.5801,-12.76212 -7.1633,-25.53034 -10.7466,-38.29349 26.9465,-24.68187 53.89668,-49.3667 80.84348,-74.04806 7.6086,-56.43975 15.21683,-112.88358 22.82343,-169.32336 C 979.62407,628.54866 949.45879,590.29579 919.29229,552.04423 868.06113,528.16038 816.82891,504.27788 765.59561,480.39672"
       sodipodi:nodetypes="cccccccccccccccccccccc" />
    <path
       style="fill:#ff0000;fill-opacity:1;stroke:none;stroke-width:1.20294642px;stroke-linecap:butt;stroke-linejoin:miter;stroke-opacity:1"
       d="m 1201.7255,572.82845 c 11.6907,57.80842 23.3817,115.61784 33.6747,148.00016 10.293,32.38232 19.1875,39.33617 44.8933,50.89722 25.7058,11.56105 68.2184,27.7275 97.0904,36.66977 28.872,8.94226 44.0954,10.65909 54.8942,11.4628 10.7987,0.8037 17.1564,0.69316 21.4011,-0.59225 4.2448,-1.28542 6.3743,-3.74429 -2e-4,-6.00234 -6.3744,-2.25806 -21.2525,-4.31672 -26.1046,-5.19475 -4.8522,-0.87803 0.3214,-0.57536 7.7605,0.45404 7.4391,1.02939 17.1434,2.78536 23.22,1.74238 6.0766,-1.04298 8.5255,-4.88377 2.323,-7.57261 -6.2026,-2.68884 -21.9037,-4.31529 -22.7856,-4.18849 -0.8819,0.12681 12.6319,1.96292 20.6852,1.18225 8.0534,-0.78068 10.646,-4.17692 5.9272,-6.78782 -4.7188,-2.6109 -16.7578,-4.43944 -16.7578,-4.43944 0,0 12.0342,1.82781 19.33,0.98737 7.2959,-0.84044 9.8525,-4.3476 2.3707,-6.3643 -7.4818,-2.0167 -25.0034,-2.54429 -42.5239,-3.07184 0,0 0,0 1.4606,-4.72946 1.4605,-4.72947 4.3811,-14.18641 3.9012,-16.80787 -0.4799,-2.62146 -4.3609,1.59248 -8.3651,4.73354 -4.0042,3.14106 -8.1318,5.2087 -18.1352,3.38413 -10.0033,-1.82457 -25.88,-7.54173 -43.225,-15.51335 -17.3451,-7.97161 -36.158,-18.19753 -42.733,-40.23024 -6.575,-22.03271 -0.9122,-55.87181 -2.9999,-85.71136 -2.0878,-29.83956 -11.9262,-55.68272 -21.7639,-81.52419"
       id="path5812"
       inkscape:connector-curvature="0"
       inkscape:path-effect="#path-effect5814"
       inkscape:original-d="m 1201.7255,572.82845 c 11.6922,57.80812 23.383,115.61757 35.0728,173.42835 8.8959,6.95279 17.7904,13.90665 26.684,20.86195 42.5176,16.16663 85.0302,32.33302 127.5435,48.50152 15.2303,1.71616 30.4537,3.43298 45.6876,5.15246 6.3634,-0.11195 12.7211,-0.22249 19.0798,-0.33172 2.1308,-2.46024 4.2603,-4.91914 6.3887,-7.37671 -14.8771,-2.06 -29.7552,-4.11868 -44.6345,-6.17601 5.1749,0.30136 10.3485,0.60404 15.5212,0.90803 9.7057,1.75468 19.41,3.51064 29.1133,5.26798 2.4498,-3.84166 4.8987,-7.68249 7.3464,-11.52169 -14.8528,-1.54004 -30.554,-3.16644 -45.8334,-4.74777 13.5157,1.8349 27.0295,3.67097 40.5424,5.50848 2.5936,-3.39733 5.1863,-6.79357 7.7778,-10.18835 -12.029,-1.82851 -24.068,-3.65706 -36.1046,-5.48375 12.0366,1.82669 24.0708,3.65448 36.1046,5.48375 2.5578,-3.5086 5.1144,-7.01578 7.67,-10.52171 -17.5193,-0.52888 -52.5614,-1.58266 -52.5614,-1.58266 0,0 10e-4,-10e-4 0,0 2.9218,-9.45872 5.8422,-18.9157 8.7618,-28.37161 -3.8801,4.21267 -7.7611,8.4266 -11.643,12.6419 -4.1266,2.06635 -8.2542,4.13401 -12.383,6.20302 -15.8771,-5.71904 -31.7537,-11.43623 -47.6322,-17.15235 -18.8114,-10.22711 -37.6243,-20.45296 -56.438,-30.67745 5.6638,-33.83932 11.3266,-67.67842 16.9882,-101.51561 -9.8366,-25.84259 -19.6748,-51.68582 -29.5141,-77.5267"
       sodipodi:nodetypes="cccccccccccccccccccccccccc" />
  </g>
</svg>
