<?xml version="1.0" encoding="UTF-8" standalone="no"?>
<!-- Created with Inkscape (http://www.inkscape.org/) -->

<svg
   xmlns:dc="http://purl.org/dc/elements/1.1/"
   xmlns:cc="http://creativecommons.org/ns#"
   xmlns:rdf="http://www.w3.org/1999/02/22-rdf-syntax-ns#"
   xmlns:svg="http://www.w3.org/2000/svg"
   xmlns="http://www.w3.org/2000/svg"
   xmlns:sodipodi="http://sodipodi.sourceforge.net/DTD/sodipodi-0.dtd"
   xmlns:inkscape="http://www.inkscape.org/namespaces/inkscape"
   version="1.1"
   id="svg815"
   width="1816.5"
   height="853.5"
   viewBox="0 0 1816.5 853.5"
   sodipodi:docname="Ornithomimosauria.svg"
   inkscape:version="0.92.2 (5c3e80d, 2017-08-06)">
  <metadata
     id="metadata821">
    <rdf:RDF>
      <cc:Work
         rdf:about="">
        <dc:format>image/svg+xml</dc:format>
        <dc:type
           rdf:resource="http://purl.org/dc/dcmitype/StillImage" />
        <dc:title></dc:title>
      </cc:Work>
    </rdf:RDF>
  </metadata>
  <defs
     id="defs819">
    <inkscape:path-effect
       effect="bspline"
       id="path-effect4536"
       is_visible="true"
       weight="33.333333"
       steps="2"
       helper_size="0"
       apply_no_weight="true"
       apply_with_weight="true"
       only_selected="false" />
    <inkscape:path-effect
       effect="bspline"
       id="path-effect4532"
       is_visible="true"
       weight="33.333333"
       steps="2"
       helper_size="0"
       apply_no_weight="true"
       apply_with_weight="true"
       only_selected="false" />
    <inkscape:path-effect
       effect="bspline"
       id="path-effect4528"
       is_visible="true"
       weight="33.333333"
       steps="2"
       helper_size="0"
       apply_no_weight="true"
       apply_with_weight="true"
       only_selected="false" />
    <inkscape:path-effect
       effect="bspline"
       id="path-effect4520"
       is_visible="true"
       weight="33.333333"
       steps="2"
       helper_size="0"
       apply_no_weight="true"
       apply_with_weight="true"
       only_selected="false" />
    <inkscape:path-effect
       effect="bspline"
       id="path-effect4516"
       is_visible="true"
       weight="33.333333"
       steps="2"
       helper_size="0"
       apply_no_weight="true"
       apply_with_weight="true"
       only_selected="false" />
  </defs>
  <sodipodi:namedview
     pagecolor="#ffffff"
     bordercolor="#666666"
     borderopacity="1"
     objecttolerance="10"
     gridtolerance="10"
     guidetolerance="10"
     inkscape:pageopacity="0"
     inkscape:pageshadow="2"
     inkscape:window-width="1920"
     inkscape:window-height="1027"
     id="namedview817"
     showgrid="false"
     inkscape:zoom="0.57222514"
     inkscape:cx="617.90724"
     inkscape:cy="437.83112"
     inkscape:window-x="-8"
     inkscape:window-y="-8"
     inkscape:window-maximized="1"
     inkscape:current-layer="svg815" />
  <path
     style="fill:#ff0000;fill-opacity:1;stroke:none;stroke-width:0.8947922px;stroke-linecap:butt;stroke-linejoin:miter;stroke-opacity:1"
     d="m 208.29212,368.01702 c 44.96545,-16.21692 126.05066,-43.49103 199.76384,-49.38799 73.71319,-5.89695 140.05651,9.58315 210.37675,2.02624 70.32024,-7.55691 146.39887,-38.8834 218.63792,-60.26019 72.23904,-21.3768 141.53104,-33.17117 211.55857,-36.85678 70.0274,-3.68561 140.7938,0.73729 185.3907,0.36857 44.5969,-0.36871 63.0255,-5.52873 73.7135,-16.21715 10.688,-10.68841 13.6367,-26.90637 11.4254,-43.8597 -2.2114,-16.95334 -9.5833,-34.64579 -10.3202,-50.86297 -0.7369,-16.217182 5.1603,-30.960331 17.5678,-41.969298 12.4075,-11.008967 31.8215,-18.475874 53.9347,-19.212894 22.1133,-0.73702 47.1773,5.160389 66.3429,8.108886 19.1656,2.948497 32.4344,2.948497 40.1738,5.52808 7.7394,2.579584 9.9509,7.739913 10.3338,13.934708 0.3828,6.194795 -1.1197,13.70735 -6.2985,18.418529 -5.1788,4.711179 -15.4602,7.083789 -26.4493,9.911079 -10.9892,2.82729 -25.1307,6.75549 -35.4307,12.67093 -10.2999,5.91544 -16.2371,12.51238 -19.2077,22.09724 -2.9705,9.58486 -2.1903,22.84931 0.3898,37.96134 2.5801,15.11203 7.0026,32.80216 3.4673,52.7826 -3.5354,19.98043 -15.6296,43.413 -27.0553,59.99895 -11.4257,16.58595 -22.4823,26.90548 -29.7671,35.22625 -7.2847,8.32076 -11.144,15.26743 -15.5674,25.58849 -4.4233,10.32107 -9.5825,24.32439 -28.0118,40.54239 -18.4293,16.21799 -50.1239,34.64509 -92.9559,49.77369 -42.8319,15.1286 -96.4872,26.88864 -146.9816,31.68015 -50.4945,4.79151 -97.67039,2.58014 -133.44128,-1.39195 -35.77089,-3.97208 -61.53165,-10.03344 -86.96185,-12.22333 -25.43019,-2.18989 -49.75761,-0.75887 -82.56104,0.71545 -32.80344,1.47432 -73.34453,2.94854 -109.83338,-10e-6 -36.48886,-2.94854 -68.9222,-10.31976 -91.40535,-19.53415 -22.48314,-9.21439 -35.01424,-20.27124 -56.39109,-30.95971 -21.37685,-10.68847 -51.59938,-21.00836 -74.45066,-26.90553 -22.85129,-5.89718 -38.33092,-7.37143 -57.43921,-9.94214 -19.10828,-2.57071 -42.07427,-6.2749 -81.88051,-3.32634 -39.80624,2.94857 -96.56406,12.53106 -120.52096,14.7422 -23.9569,2.21115 -15.1114,-2.94873 29.85405,-19.16564 z"
     id="path4514"
     inkscape:connector-curvature="0"
     inkscape:path-effect="#path-effect4516"
     inkscape:original-d="m 172.17128,379.07458 c 81.08611,-27.27501 162.17132,-54.54913 243.25565,-81.82235 66.34246,15.4788 132.68579,30.9589 199.02735,46.4397 74.45115,-30.22325 150.37712,-61.9205 225.56434,-92.87943 69.29093,-11.79494 138.58293,-23.58931 207.87298,-35.38262 70.7651,4.42185 141.5315,8.84475 212.2959,13.26848 18.4291,-5.16081 36.8577,-10.32084 55.2853,-15.47991 2.9493,-16.21701 5.898,-32.43498 8.8457,-48.65113 -7.37,-17.6911 -14.7419,-35.38354 -22.1142,-53.07395 5.8979,-14.743299 11.7952,-29.486429 17.6913,-44.228309 19.1651,-6.63465 38.3321,-14.74366 57.4968,-22.11415 25.0622,5.89588 50.1262,11.79332 75.1882,17.69133 13.269,-9e-4 26.5378,-9e-4 39.8055,0 2.2121,5.15872 4.4237,10.31903 6.6342,15.4799 -0.7363,7.3711 -2.9477,14.74188 -4.4229,22.114149 -8.846,2.21083 -19.1646,4.42194 -28.7484,6.63424 -12.5319,2.94799 -26.5361,7.3705 -39.8054,11.05707 -7.3711,8.10828 -13.2676,14.74188 -19.9027,22.11416 0.738,11.79482 1.4751,25.06181 2.2114,37.59405 4.424,17.69161 8.8465,35.38175 13.2685,53.07396 -11.7937,22.11405 -23.5875,45.70169 -35.3827,68.55387 -11.0566,10.31953 -22.1133,20.63898 -33.1712,30.95981 -2.9479,6.6339 -7.3705,13.2676 -11.0571,19.90273 -5.16,14.00699 -10.319,28.01037 -15.48,42.01689 -31.6984,18.42899 -63.393,36.85602 -95.0907,55.28539 -53.812,12.53086 -107.6214,23.58752 -161.4334,35.38263 -47.1768,-2.21235 -94.35265,-4.42373 -141.53045,-6.63424 -24.3251,-5.89811 -50.12454,-11.79511 -75.18814,-17.69133 -25.79962,1.47342 -50.1245,2.94766 -75.18811,4.42284 -40.54324,1.47344 -81.08433,2.94766 -121.62783,4.42283 -32.43394,-7.37245 -64.86728,-14.74367 -97.30227,-22.11415 -12.53071,-11.05819 -25.0618,-22.11505 -37.59405,-33.17123 -30.22192,-10.32088 -60.44445,-20.64077 -90.66801,-30.95982 -15.47929,-1.47519 -30.95892,-2.94944 -46.43972,-4.42283 -22.85158,-2.9496 -45.70169,-7.37227 -68.55387,-11.05707 -56.76058,9.58222 -113.5184,19.16471 -170.27896,28.7484 8.84671,-5.16096 17.69222,-10.32084 26.53699,-15.47991 z" />
  <path
     style="fill:#ff0000;fill-opacity:1;stroke:none;stroke-width:1.26550603px;stroke-linecap:butt;stroke-linejoin:miter;stroke-opacity:1"
     d="m 934.88072,347.73071 c -26.13896,10.69595 -52.81152,35.14541 -67.21537,81.49912 -14.40386,46.35372 -16.53756,114.60501 -29.34005,162.48538 -12.80248,47.88038 -36.27387,75.38547 -49.61071,102.89176 -13.33685,27.50629 -16.53739,55.01054 -22.68713,72.62527 -6.14973,17.61474 -16.25397,26.19074 -21.05572,34.85052 -4.80174,8.65979 -4.80174,17.82704 -2.13362,22.92145 2.66812,5.0944 8.00192,6.113 20.82831,6.16031 12.8264,0.0473 37.31828,-1.0663 47.45312,-4.12258 10.13484,-3.05629 8.0009,-8.15023 2.78966,-12.95808 -5.21125,-4.80784 -11.85847,-8.43474 -14.52579,-18.11391 -2.66733,-9.67917 -0.53365,-24.9592 10.66851,-40.23924 11.20216,-15.28003 31.47512,-30.56232 43.21029,-51.44544 11.73517,-20.88312 14.9361,-47.37188 41.60785,-89.64753 26.67174,-42.27566 76.81865,-100.34604 100.2899,-148.22564 23.47123,-47.87959 20.27053,-85.57338 5.86833,-105.94723 -14.40221,-20.37385 -40.00862,-23.43011 -66.14758,-12.73416 z"
     id="path4526"
     inkscape:connector-curvature="0"
     inkscape:path-effect="#path-effect4528"
     inkscape:original-d="m 935.41295,333.97845 c -26.6712,24.4482 -53.34378,48.89763 -80.01759,73.34831 -2.13264,68.25683 -4.26632,136.50812 -6.40142,204.76404 -23.47098,27.50491 -46.94237,55.01 -70.4155,82.51685 -3.19957,27.50574 -6.40012,55.00999 -9.6021,82.51686 -9.60131,7.13019 -19.20293,16.29838 -28.80634,24.44945 -1.06577,9.16859 8.4e-4,18.33584 0,27.50559 5.33652,1.01762 10.67031,2.03622 16.00352,3.05619 20.26864,-2.03831 44.81114,-2.03868 67.21479,-3.05619 -2.13238,-5.09454 -4.26632,-10.18848 -6.40142,-15.28088 -8.53284,-4.07562 -14.93532,-8.15107 -22.40492,-12.22471 2.13521,-15.28303 4.26889,-30.56306 6.40141,-45.84269 20.27058,-15.28077 40.54353,-30.56306 60.81337,-45.84271 3.20178,-26.48627 6.40271,-52.97503 9.60211,-79.46067 50.14309,-58.06569 100.28999,-116.13608 150.43304,-174.20227 -3.1992,-37.69324 -6.4001,-75.38701 -9.602,-113.07864 -25.60365,-3.05731 -51.21005,-6.11361 -76.81695,-9.16853 z" />
  <path
     style="fill:#ff0000;fill-opacity:1;stroke:none;stroke-width:0.80548418px;stroke-linecap:butt;stroke-linejoin:miter;stroke-opacity:1"
     d="m 934.88072,347.73072 c 29.96955,2.87651 77.50758,27.80166 104.37678,49.21146 26.8692,21.40981 33.0698,39.30498 35.8257,58.15878 2.7558,18.85379 2.0669,38.66563 -2.4113,57.83919 -4.4782,19.17356 -12.7453,37.70695 -14.1234,59.11789 -1.378,21.41094 4.1333,45.69584 24.4584,59.75658 20.3251,14.06075 55.4613,17.89532 78.5413,19.17346 23.0801,1.27815 34.1037,-1.1e-4 45.8151,4.47335 11.7113,4.47346 24.1136,14.69998 38.2376,18.21496 14.124,3.51498 29.9702,0.31942 37.8928,0.31902 7.9226,-4e-4 7.9226,3.19534 2.7545,9.9072 -5.168,6.71187 -15.4999,16.93511 -27.902,19.81139 -12.4021,2.87628 -26.8689,-1.59707 -37.5476,-2.23647 -10.6787,-0.6394 -17.568,2.55602 -23.0806,-0.32051 -5.5126,-2.87653 -9.6457,-11.82278 -33.4106,-18.24425 -23.765,-6.42147 -65.799,-10.19494 -91.605,-13.48769 -25.8061,-3.29274 -33.4444,-5.65465 -41.7125,-13.00494 -8.268,-7.35029 -16.535,-19.4926 -17.2238,-34.5119 -0.6889,-15.01929 6.2008,-32.91463 -1.033,-59.43632 -7.2337,-26.5217 -28.59246,-61.67444 -38.58227,-86.91954 -9.98981,-25.2451 -8.6119,-40.58383 -22.39009,-54.32381 -13.77819,-13.73997 -42.716,-25.8837 -50.98332,-41.54255 -8.26732,-15.65884 4.13375,-34.83181 34.1033,-31.9553 z"
     id="path4530"
     inkscape:connector-curvature="0"
     inkscape:path-effect="#path-effect4532"
     inkscape:original-d="m 917.31185,325.68185 c 47.5389,24.92446 95.07685,49.84969 142.61445,74.7757 6.2012,17.89415 12.4019,35.78929 18.6017,53.68511 -0.6881,19.81212 -1.3771,39.62396 -2.0669,59.43709 -8.267,18.53413 -16.5341,37.06753 -24.8024,55.60244 5.5127,24.28658 11.0241,48.57147 16.5349,72.85837 35.1385,3.83398 70.2747,7.66852 105.4108,11.50395 11.0238,-1.27895 22.0474,-2.55721 33.0698,-3.83464 12.4012,10.22409 24.8034,20.45069 37.2039,30.67719 15.8467,-3.1963 31.6929,-6.39184 47.5382,-9.58661 0,3.19456 0,6.3903 0,9.58661 -10.3361,10.22745 -20.668,20.45071 -31.0033,30.67721 -14.4686,-4.47487 -28.9354,-8.94828 -43.4044,-13.42127 -6.8888,3.19488 -13.7781,6.3903 -20.6687,9.58662 -4.1335,-8.94958 -8.2667,-17.89581 -12.4012,-26.84256 -43.4017,-3.83525 -85.4302,-7.67007 -128.1464,-11.50394 -8.9558,-2.55726 -16.534,-5.11366 -24.8023,-7.6693 -8.2672,-12.14459 -16.5342,-24.2869 -24.8025,-36.42919 6.8902,-17.89551 13.7798,-35.79085 20.6685,-53.68512 -21.3556,-35.14991 -42.71425,-70.30271 -64.07295,-105.4529 1.3788,-15.33926 2.7568,-30.67798 4.1337,-46.0158 -28.9338,-12.14317 -57.8716,-24.28691 -86.80868,-36.42919 12.40228,-19.17428 24.80328,-38.34729 37.20378,-57.51977 z" />
  <path
     style="fill:#ff0000;fill-opacity:1;stroke:none;stroke-width:1.23497939px;stroke-linecap:butt;stroke-linejoin:miter;stroke-opacity:1"
     d="m 1195.6108,424.65463 c 37.3377,12.44589 73.3797,24.4599 107.5511,33.09263 34.1714,8.63273 65.8257,13.66865 82.5519,16.0515 16.7263,2.38284 18.5249,2.11305 19.5078,1.30298 0.983,-0.81008 1.1741,-2.33847 -3.0512,-4.25831 -4.2253,-1.91984 -13.0398,-4.37337 -17.3651,-5.76975 -4.3253,-1.39638 -4.218,-1.93248 0.2644,-1.08079 4.4824,0.85169 13.4132,3.01673 18.3592,3.46564 4.9459,0.4489 5.9352,-0.81015 5.8679,-2.04712 -0.067,-1.23697 -1.1028,-2.35872 -6.6326,-4.3369 -5.5298,-1.97818 -15.5119,-4.76598 -19.4682,-6.33991 -3.9563,-1.57394 -1.8882,-1.93361 2.426,-2.78747 4.3142,-0.85385 10.8832,-2.20365 13.9822,-3.6082 3.099,-1.40455 2.7445,-2.82252 -1.4794,-3.58593 -4.2238,-0.7634 -12.5009,-0.85436 -18.7509,-0.53968 -6.25,0.31468 -10.5657,1.03397 -15.5577,1.079 -4.992,0.045 -10.6554,-0.58424 -23.2956,-3.8546 -12.6402,-3.27035 -32.4125,-9.22914 -41.6747,-12.8719 -9.2621,-3.64276 -8.0932,-4.99158 -6.0264,-7.86713 2.0667,-2.87556 5.0371,-7.28613 5.4865,-14.25354 0.4494,-6.96742 -1.6195,-16.50258 -3.6876,-26.03373"
     id="path4534"
     inkscape:connector-curvature="0"
     inkscape:path-effect="#path-effect4536"
     inkscape:original-d="m 1195.6108,424.65463 c 37.4101,12.2286 73.3802,24.45843 110.0685,36.6895 31.6542,5.03448 63.3085,10.07039 94.961,15.10744 1.7996,-0.27101 3.5982,-0.54079 5.3955,-0.80933 0.1809,-1.34907 0.3609,-2.87885 0.5396,-4.31642 -8.6234,-2.42691 -17.4444,-4.8572 -26.1683,-7.28394 0.091,-0.36096 0.1811,-0.90049 0.2698,-1.34887 8.8756,2.15012 17.8064,4.31516 26.7078,6.47461 0.9903,-1.26006 1.9795,-2.51915 2.9675,-3.77686 -1.0767,-1.25883 -2.1569,-2.33929 -3.2373,-3.50708 -9.9801,-2.7888 -19.9622,-5.5766 -29.9451,-8.36305 2.0697,-0.36097 4.1378,-0.72064 6.2049,-1.0791 6.5613,-1.3492 13.1303,-2.699 19.6936,-4.04663 -0.4483,-1.43973 -0.7182,-2.87885 -1.0791,-4.31642 -8.0872,-0.18097 -16.3653,-0.18108 -24.5496,-0.26978 -4.3159,0.71828 -8.6316,1.43757 -12.9492,2.15822 -5.666,-0.63093 -11.3294,-1.2602 -16.9959,-1.88844 -19.6062,-5.93743 -39.386,-11.87136 -59.0808,-17.80519 1.1702,-1.35018 2.3391,-2.699 3.5069,-4.04664 2.966,-4.40327 5.9363,-8.8139 8.9026,-13.21901 -2.0663,-9.53023 -4.1353,-19.06538 -6.2048,-28.59622" />
</svg>
