<?xml version="1.0" encoding="UTF-8" standalone="no"?>
<!-- Created with Inkscape (http://www.inkscape.org/) -->

<svg
   xmlns:osb="http://www.openswatchbook.org/uri/2009/osb"
   xmlns:dc="http://purl.org/dc/elements/1.1/"
   xmlns:cc="http://creativecommons.org/ns#"
   xmlns:rdf="http://www.w3.org/1999/02/22-rdf-syntax-ns#"
   xmlns:svg="http://www.w3.org/2000/svg"
   xmlns="http://www.w3.org/2000/svg"
   xmlns:sodipodi="http://sodipodi.sourceforge.net/DTD/sodipodi-0.dtd"
   xmlns:inkscape="http://www.inkscape.org/namespaces/inkscape"
   width="1920px"
   height="1080px"
   viewBox="0 0 1920 1080"
   version="1.1"
   id="SVGRoot"
   inkscape:version="0.92.2 (5c3e80d, 2017-08-06)"
   sodipodi:docname="Sauropodomorpha.svg"
   inkscape:export-filename="C:\Users\customer\Documents\ThatChapThere.github.io\dinosaurs\alt_images\Silluettes\Herrerasauridae.png"
   inkscape:export-xdpi="64"
   inkscape:export-ydpi="64">
  <sodipodi:namedview
     id="base"
     pagecolor="#ffffff"
     bordercolor="#666666"
     borderopacity="1.0"
     inkscape:pageopacity="0.0"
     inkscape:pageshadow="2"
     inkscape:zoom="0.49497475"
     inkscape:cx="1156.6039"
     inkscape:cy="408.42267"
     inkscape:document-units="px"
     inkscape:current-layer="layer1"
     showgrid="false"
     inkscape:window-width="1920"
     inkscape:window-height="1027"
     inkscape:window-x="-8"
     inkscape:window-y="-8"
     inkscape:window-maximized="1" />
  <defs
     id="defs5119">
    <inkscape:path-effect
       effect="bspline"
       id="path-effect5770"
       is_visible="true"
       weight="33.333333"
       steps="2"
       helper_size="0"
       apply_no_weight="true"
       apply_with_weight="true"
       only_selected="false" />
    <inkscape:path-effect
       effect="bspline"
       id="path-effect5766"
       is_visible="true"
       weight="33.333333"
       steps="2"
       helper_size="0"
       apply_no_weight="true"
       apply_with_weight="true"
       only_selected="false" />
    <inkscape:path-effect
       effect="bspline"
       id="path-effect5762"
       is_visible="true"
       weight="33.333333"
       steps="2"
       helper_size="0"
       apply_no_weight="true"
       apply_with_weight="true"
       only_selected="false" />
    <inkscape:path-effect
       effect="bspline"
       id="path-effect5754"
       is_visible="true"
       weight="33.333333"
       steps="2"
       helper_size="0"
       apply_no_weight="true"
       apply_with_weight="true"
       only_selected="false" />
    <inkscape:path-effect
       effect="bspline"
       id="path-effect5746"
       is_visible="true"
       weight="33.333333"
       steps="2"
       helper_size="0"
       apply_no_weight="true"
       apply_with_weight="true"
       only_selected="false" />
    <inkscape:path-effect
       effect="bspline"
       id="path-effect5742"
       is_visible="true"
       weight="33.333333"
       steps="2"
       helper_size="0"
       apply_no_weight="true"
       apply_with_weight="true"
       only_selected="false" />
    <inkscape:path-effect
       effect="bspline"
       id="path-effect5738"
       is_visible="true"
       weight="33.333333"
       steps="2"
       helper_size="0"
       apply_no_weight="true"
       apply_with_weight="true"
       only_selected="false" />
    <inkscape:path-effect
       effect="bspline"
       id="path-effect5726"
       is_visible="true"
       weight="33.333333"
       steps="2"
       helper_size="0"
       apply_no_weight="true"
       apply_with_weight="true"
       only_selected="false" />
    <linearGradient
       id="linearGradient5708"
       osb:paint="solid">
      <stop
         style="stop-color:#000000;stop-opacity:1;"
         offset="0"
         id="stop5706" />
    </linearGradient>
    <inkscape:path-effect
       effect="bspline"
       id="path-effect5704"
       is_visible="true"
       weight="33.333333"
       steps="2"
       helper_size="0"
       apply_no_weight="true"
       apply_with_weight="true"
       only_selected="false" />
    <inkscape:path-effect
       effect="bspline"
       id="path-effect5700"
       is_visible="true"
       weight="33.333333"
       steps="2"
       helper_size="0"
       apply_no_weight="true"
       apply_with_weight="true"
       only_selected="false" />
    <inkscape:path-effect
       only_selected="false"
       apply_with_weight="true"
       apply_no_weight="true"
       helper_size="0"
       steps="2"
       weight="33.333333"
       is_visible="true"
       id="path-effect5696"
       effect="bspline" />
    <inkscape:path-effect
       effect="bspline"
       id="path-effect5692"
       is_visible="true"
       weight="33.333333"
       steps="2"
       helper_size="0"
       apply_no_weight="true"
       apply_with_weight="true"
       only_selected="false" />
  </defs>
  <metadata
     id="metadata5122">
    <rdf:RDF>
      <cc:Work
         rdf:about="">
        <dc:format>image/svg+xml</dc:format>
        <dc:type
           rdf:resource="http://purl.org/dc/dcmitype/StillImage" />
        <dc:title></dc:title>
      </cc:Work>
    </rdf:RDF>
  </metadata>
  <g
     id="layer1"
     inkscape:groupmode="layer"
     inkscape:label="Layer 1">
    <path
       style="fill:#ff0000;fill-opacity:1;stroke:none;stroke-width:1.13195074px;stroke-linecap:butt;stroke-linejoin:miter;stroke-opacity:1"
       d="m 70.459178,618.08105 c 64.032752,-11.05301 174.565562,-24.01203 299.962372,-47.26193 125.39681,-23.2499 265.66073,-56.79127 396.01251,-74.32875 130.35177,-17.53749 249.27114,-19.05239 354.08624,-18.67123 104.8152,0.38116 194.7669,2.66807 261.0863,1.52457 66.3195,-1.1435 109.0085,-5.71732 150.172,-14.48368 41.1634,-8.76637 80.8039,-21.72578 102.4655,-36.59064 21.6616,-14.86487 25.347,-31.63594 38.2128,-48.4249 12.8657,-16.78897 34.9116,-33.59708 63.1796,-46.93694 28.268,-13.33985 62.7587,-23.21231 90.6758,-27.00485 27.9171,-3.79254 49.2617,-1.50562 60.6955,4.97311 11.4339,6.47872 12.9586,17.15136 9.9097,23.63125 -3.0488,6.4799 -10.671,8.76655 -34.3057,14.10343 -23.6347,5.33689 -63.267,13.72065 -74.7012,17.15104 -11.4342,3.43038 5.3357,1.90584 28.9658,-1.90548 23.6301,-3.81133 54.1242,-9.91015 69.7505,-8.38614 15.6263,1.52402 16.3886,10.67194 16.7698,15.24623 0.3812,4.57429 0.3812,27.44315 -20.2031,33.92341 -20.5844,6.48025 -61.7422,19.43734 -91.0908,28.96611 -29.3487,9.52876 -46.881,15.62695 -65.6281,24.47553 -18.7472,8.84858 -38.7047,20.44535 -69.7078,32.22202 -31.003,11.77667 -73.0421,23.72918 -109.9408,44.28132 -36.8988,20.55214 -68.6475,49.69944 -95.9626,84.80567 -27.3152,35.10624 -50.1914,76.16578 -96.7087,103.10916 -46.5173,26.94337 -118.1462,40.03684 -182.6183,45.92326 -64.472,5.88642 -122.5191,4.70007 -206.37317,2.032 C 881.30928,767.78655 771.65568,763.63696 706.87988,739.30091 642.10408,714.96487 622.21,670.44437 560.00622,653.14472 497.80244,635.84508 393.29235,645.76746 288.13286,649.3521 182.97338,652.93674 77.167098,650.1833 33.030455,644.2324 -11.106187,638.2815 6.4264316,629.13405 70.459178,618.08105 Z"
       id="path5724"
       inkscape:connector-curvature="0"
       inkscape:path-effect="#path-effect5726"
       inkscape:original-d="M 23.957869,619.98721 C 134.49181,607.02706 245.02462,594.06804 355.5563,581.11015 495.81817,547.56841 636.08209,514.02704 776.34329,480.48718 c 120.44265,-1.52571 239.36191,-3.05031 359.04101,-4.57377 89.9512,2.28573 179.9029,4.57264 269.8525,6.86065 42.6892,-4.57485 85.3782,-9.14867 128.0657,-13.72131 39.6393,-12.95977 79.2798,-25.91917 118.9179,-38.87705 3.6861,-16.77101 7.3714,-33.54209 11.0556,-50.3115 22.0465,-16.80885 44.0924,-33.61696 66.137,-50.42382 34.4913,-9.87335 68.982,-19.74581 103.4714,-29.61717 21.3451,2.2857 42.6897,4.57264 64.0329,6.86065 1.5256,10.6705 3.0503,21.34313 4.5738,32.0164 -7.6226,2.28596 -15.2448,4.57264 -22.869,6.86066 -39.6452,8.38559 -79.2775,16.76936 -118.9179,25.15574 16.7721,-1.52577 33.542,-3.05032 50.3114,-4.57377 30.4907,-6.09904 60.9848,-12.19786 91.4755,-18.29509 0.7633,9.14603 1.5257,18.29395 2.2868,27.44263 v 22.86886 c -41.1689,12.95981 -82.3267,25.9169 -123.4918,38.87706 -17.5322,6.09743 -35.0645,12.19559 -52.5984,18.29508 -19.9604,11.598 -39.9179,23.19478 -59.8798,34.79455 -42.0442,11.95323 -84.0833,23.90575 -126.1291,35.86088 -31.7515,29.14976 -63.5002,58.29706 -95.2533,87.44847 -22.8768,41.06131 -45.7531,82.12083 -68.6313,123.18306 -70.1322,12.95829 -141.7858,25.9169 -212.6803,38.87705 -58.0494,-1.18755 -116.0965,-2.3739 -174.14814,-3.55919 -109.65644,-4.15088 -219.31004,-8.30047 -328.96677,-12.449 -19.89371,-44.52292 -39.78778,-89.04342 -59.6837,-133.56482 -104.51294,9.92175 -209.02303,19.84413 -313.53623,29.76772 -105.80565,-2.75444 -211.611935,-5.50787 -317.419564,-8.26031 17.534097,-9.14876 35.0667127,-18.29622 52.598373,-27.44263 z"
       sodipodi:nodetypes="ccccccccccccccccccccccccccccccc" />
    <path
       style="fill:#ff0000;fill-opacity:1;stroke:none;stroke-width:1.42838192px;stroke-linecap:butt;stroke-linejoin:miter;stroke-opacity:1"
       d="m 606.52999,528.01636 c 61.63378,60.7571 123.26738,121.51402 153.60327,158.74176 30.33589,37.22775 29.13504,54.33393 12.91463,97.12341 -16.2204,42.78947 -47.57513,112.95335 -57.84766,154.88515 -10.27254,41.93179 0.54017,55.62322 13.51586,72.31022 12.9757,16.687 28.1134,36.3683 44.87434,46.6371 16.76095,10.2688 35.1426,11.1245 44.33276,11.5524 9.19017,0.4278 103.2626,0.4278 105.42552,-3.4236 2.16292,-3.8514 6.48829,-11.5533 2.16473,-16.2588 -4.32357,-4.7054 -17.30169,-6.4172 -40.4584,-8.5567 -23.15671,-2.1395 -55.33833,-4.6179 -77.15144,-16.569 -21.81311,-11.951 -30.34426,-31.78036 -33.80347,-45.0835 -3.45921,-13.30314 -1.0508,-20.92723 20.21082,-43.93355 21.26162,-23.00632 62.95203,-63.46462 86.31937,-106.25141 23.36734,-42.78678 29.0774,-88.54699 29.10914,-140.52186 0.0317,-51.97487 -5.61454,-110.16458 -11.26073,-168.35321"
       id="path5740"
       inkscape:connector-curvature="0"
       inkscape:path-effect="#path-effect5742"
       inkscape:original-d="m 606.52999,528.01636 c 61.63522,60.75564 123.26881,121.51257 184.9008,182.27076 -1.07968,13.69046 -2.16096,30.80504 -3.24388,46.20948 -31.35855,70.17479 -62.71327,140.33867 -94.07234,210.50993 10.81477,13.69064 21.62745,27.38209 32.43875,41.07507 15.14005,19.6811 30.27776,39.3624 45.41423,59.0454 18.38389,0.8545 36.76554,1.7102 55.14581,2.5672 h 94.07243 c 4.32653,-7.7024 8.65196,-15.4043 12.97548,-23.1047 -12.9712,-1.7124 -25.94931,-3.4243 -38.92645,-5.1343 -33.33637,-2.5689 -65.518,-5.0472 -100.0036,-7.7017 -9.1389,-21.247 -17.67008,-41.07634 -26.50753,-61.61266 2.16411,-5.99119 4.32675,-13.69292 6.48773,-20.53757 40.36113,-39.16836 82.05154,-79.62667 123.07602,-119.43868 5.71113,-45.76142 11.42116,-91.52163 17.13017,-137.28064 -5.64467,-58.19101 -11.29098,-116.38072 -16.93888,-174.56918"
       sodipodi:nodetypes="cccccccccccccccc" />
    <path
       style="fill:#ff0000;fill-opacity:1;stroke:none;stroke-width:1.56750071px;stroke-linecap:butt;stroke-linejoin:miter;stroke-opacity:1"
       d="m 1234.303,659.28848 c 15.248,72.52327 30.4964,145.04852 44.5888,185.40234 14.0924,40.35382 27.0278,48.53387 50.7201,61.72337 23.6923,13.1895 55.4425,29.96243 75.1038,43.79514 19.6613,13.8327 25.885,24.01365 30.0912,28.50354 4.2063,4.48989 6.3925,3.28852 6.4334,0.19306 0.041,-3.09546 -2.064,-8.08976 -1.9177,-9.39669 0.1463,-1.30693 2.5445,1.07133 5.5271,3.54986 2.9826,2.47852 6.5489,5.05679 6.6385,3.6056 0.09,-1.45118 -3.2981,-6.93153 -3.96,-9.66461 -0.6619,-2.73308 1.4025,-2.72028 5.1192,-2.19964 3.7168,0.52063 9.0923,1.55001 13.9088,1.6346 4.8165,0.0846 9.0765,-0.77509 9.7011,-3.26573 0.6246,-2.49064 -2.209,-6.3715 -8.7565,-10.51186 -6.5475,-4.14036 -16.7263,-8.42326 -20.1215,-10.57054 -3.3952,-2.14728 -0.01,-2.16008 5.5756,-1.04999 5.5856,1.11009 13.3767,3.34437 17.2272,2.06359 3.8504,-1.28077 3.7626,-6.07441 -1.6759,-10.32081 -5.4385,-4.2464 -16.2381,-7.95176 -20.0707,-10.59159 -3.8325,-2.63983 -0.7051,-4.2151 3.9809,-4.91146 4.6859,-0.69636 10.9359,-0.51416 14.5245,-2.60644 3.5885,-2.09228 4.5184,-6.45789 -1.4942,-9.56075 -6.0126,-3.10286 -18.9809,-4.94754 -39.4064,-13.23395 -20.4255,-8.2864 -48.311,-23.01354 -63.4112,-32.83235 -15.1002,-9.81881 -17.4132,-14.72707 -16.8888,-33.5767 0.5244,-18.84963 3.8872,-51.66018 -0.6521,-83.71777 -4.5394,-32.05759 -16.9806,-63.37737 -29.4203,-94.69321"
       id="path5744"
       inkscape:connector-curvature="0"
       inkscape:path-effect="#path-effect5746"
       inkscape:original-d="m 1234.303,659.28848 c 15.249,72.52306 30.4974,145.04831 45.7452,217.57578 12.9372,8.17841 25.8725,16.35868 38.8081,24.54129 34.3933,18.30158 66.1991,34.96913 99.2979,52.45703 6.2242,10.17857 12.448,20.35946 18.6709,30.5426 2.1873,-1.20388 4.3735,-2.40524 6.5594,-3.60457 -2.1019,-4.99071 -4.2069,-9.985 -6.3113,-14.97415 2.3971,2.37446 4.7953,4.75267 7.192,7.13236 3.5683,2.5771 7.1347,5.15531 10.7011,7.7363 -3.3871,-5.48247 -6.7748,-10.96283 -10.1631,-16.44091 2.0631,0.0105 4.1275,0.0233 6.1902,0.0384 5.3712,1.02624 10.7467,2.05562 16.1192,3.08674 4.2597,-0.86172 8.5197,-1.72143 12.7788,-2.57881 -2.9769,-4.14569 -5.8417,-8.00376 -8.7634,-12.00231 -10.1738,-4.28318 -20.3527,-8.56604 -30.5297,-12.84579 3.3858,-0.015 6.771,-0.0279 10.1555,-0.0384 7.7873,2.23075 15.5785,4.46496 23.3666,6.70084 -0.087,-4.79515 -0.1749,-9.58878 -0.2635,-14.37978 -10.7885,-3.70395 -21.5881,-7.40932 -32.3831,-11.11066 3.1284,-1.57765 6.2558,-3.15296 9.383,-4.7262 6.2456,0.17981 12.4956,0.36202 18.7424,0.54636 0.9302,-4.36665 1.86,-8.73229 2.7895,-13.09525 -12.9543,-1.845 -25.9226,-3.68967 -38.8847,-5.53118 -27.8881,-14.73109 -55.7737,-29.45813 -83.6614,-44.18392 -2.3124,-4.91051 -4.6253,-9.81879 -6.9389,-14.72489 3.3613,-32.79249 6.7241,-65.60304 10.0853,-98.40123 -12.1432,-31.43498 -24.8814,-62.6368 -37.3211,-93.95264"
       sodipodi:nodetypes="ccccccccccccccccccccccccccc" />
    <path
       style="fill:#ff0000;fill-opacity:1;stroke:none;stroke-width:1.13827252px;stroke-linecap:butt;stroke-linejoin:miter;stroke-opacity:1"
       d="m 920.78741,1048.9993 c 7.93931,-0.4858 15.8775,-0.9716 23.17229,1.0927 7.2948,2.0642 13.94868,6.6796 17.20024,9.0472 3.25155,2.3676 3.10035,2.4891 -0.63036,2 -3.73071,-0.4892 -10.93689,-1.5743 -18.32633,-0.7317 -7.38944,0.8427 -14.98835,3.6501 -22.54988,6.4437"
       id="path5752"
       inkscape:connector-curvature="0"
       inkscape:path-effect="#path-effect5754"
       inkscape:original-d="m 920.78741,1048.9993 c 7.93923,-0.4872 15.87742,-0.9729 23.8149,-1.4573 6.65317,4.6128 13.30705,9.2282 19.9591,13.8444 -0.15027,0.12 -0.3015,0.2414 -0.45352,0.3643 -7.30877,-1.1023 -14.51495,-2.1875 -21.77366,-3.2789 -7.56028,2.6705 -15.1197,5.5848 -22.68086,8.3794"
       sodipodi:nodetypes="cccccc" />
    <path
       style="fill:#ff0000;fill-opacity:1;stroke:none;stroke-width:1.38810337px;stroke-linecap:butt;stroke-linejoin:miter;stroke-opacity:1"
       d="m 1462.0536,907.56071 c 5.0436,0.69473 10.0872,1.38946 14.2517,3.55021 4.1645,2.16076 7.4518,5.78956 8.9455,7.74053 1.4938,1.95098 1.1925,2.2248 -0.8938,1.50621 -2.0863,-0.71859 -5.9289,-2.41868 -10.3876,-3.57692 -4.4587,-1.15823 -9.5197,-1.76873 -14.5814,-2.3793"
       id="path5760"
       inkscape:connector-curvature="0"
       inkscape:path-effect="#path-effect5762"
       inkscape:original-d="m 1462.0536,907.56071 c 5.0439,0.69274 10.0875,1.38748 15.1308,2.08418 3.2866,3.62574 6.5739,7.25452 9.8603,10.88473 -0.3009,0.27198 -0.6022,0.54577 -0.904,0.82165 -3.8692,-1.71402 -7.7118,-3.41416 -11.5684,-5.1182 -5.0613,-0.61265 -10.1224,-1.22311 -15.1843,-1.83163" />
    <path
       style="fill:#ff0000;fill-opacity:1;stroke:none;stroke-width:1.38810337px;stroke-linecap:butt;stroke-linejoin:miter;stroke-opacity:1"
       d="m 1465.8378,933.34796 c 4.0872,0.9975 8.1745,1.99502 12.3606,4.53277 4.1861,2.53774 8.4728,6.61755 10.4263,8.88675 1.9534,2.26919 1.5721,2.72903 -0.2707,2.05391 -1.8428,-0.67511 -5.2253,-2.52992 -9.4579,-3.89349 -4.2327,-1.36357 -9.3553,-2.258 -14.4783,-3.1525"
       id="path5764"
       inkscape:connector-curvature="0"
       inkscape:path-effect="#path-effect5766"
       inkscape:original-d="m 1465.8378,933.34796 c 4.0877,0.99553 8.175,1.993 12.2618,2.99254 4.2861,4.07666 8.5729,8.15646 12.8586,12.23776 -0.3808,0.45782 -0.7621,0.91763 -1.1437,1.37939 -3.3244,-1.77292 -6.6849,-3.66787 -10.0279,-5.4988 -5.1228,-0.89655 -10.2454,-1.79101 -15.3688,-2.68345" />
    <path
       style="fill:#ff0000;fill-opacity:1;stroke:none;stroke-width:1.38810337px;stroke-linecap:butt;stroke-linejoin:miter;stroke-opacity:1"
       d="m 1464.6383,953.94538 c 6.0523,0.91082 12.1046,1.82164 17.0867,4.62116 4.9821,2.79953 8.8962,7.48996 10.7822,10.1711 1.8861,2.68113 1.7435,3.35445 -0.4259,2.55358 -2.1693,-0.80087 -6.3396,-3.06432 -11.1032,-4.40969 -4.7636,-1.34538 -10.1082,-1.76619 -15.4534,-2.18706"
       id="path5768"
       inkscape:connector-curvature="0"
       inkscape:path-effect="#path-effect5770"
       inkscape:original-d="m 1464.6383,953.94538 c 6.0526,0.9088 12.1049,1.81957 18.1566,2.73241 3.9134,4.6873 7.8275,9.37768 11.7406,14.06951 -0.1422,0.67148 -0.2849,1.34478 -0.4279,2.02019 -4.1946,-2.27894 -8.365,-4.54233 -12.5482,-6.8105 -5.3447,-0.42284 -10.6893,-0.84371 -16.0347,-1.26252" />
  </g>
</svg>
