<?xml version="1.0" encoding="UTF-8" standalone="no"?>
<!-- Created with Inkscape (http://www.inkscape.org/) -->

<svg
   xmlns:osb="http://www.openswatchbook.org/uri/2009/osb"
   xmlns:dc="http://purl.org/dc/elements/1.1/"
   xmlns:cc="http://creativecommons.org/ns#"
   xmlns:rdf="http://www.w3.org/1999/02/22-rdf-syntax-ns#"
   xmlns:svg="http://www.w3.org/2000/svg"
   xmlns="http://www.w3.org/2000/svg"
   xmlns:sodipodi="http://sodipodi.sourceforge.net/DTD/sodipodi-0.dtd"
   xmlns:inkscape="http://www.inkscape.org/namespaces/inkscape"
   width="1920px"
   height="1080px"
   viewBox="0 0 1920 1080"
   version="1.1"
   id="SVGRoot"
   inkscape:version="0.92.2 (5c3e80d, 2017-08-06)"
   sodipodi:docname="Sauropoda.svg">
  <sodipodi:namedview
     id="base"
     pagecolor="#ffffff"
     bordercolor="#666666"
     borderopacity="1.0"
     inkscape:pageopacity="0.0"
     inkscape:pageshadow="2"
     inkscape:zoom="0.49497475"
     inkscape:cx="1052.4378"
     inkscape:cy="465.53021"
     inkscape:document-units="px"
     inkscape:current-layer="layer1"
     showgrid="false"
     inkscape:window-width="1920"
     inkscape:window-height="1027"
     inkscape:window-x="-8"
     inkscape:window-y="-8"
     inkscape:window-maximized="1" />
  <defs
     id="defs5119">
    <linearGradient
       id="linearGradient5708"
       osb:paint="solid">
      <stop
         style="stop-color:#000000;stop-opacity:1;"
         offset="0"
         id="stop5706" />
    </linearGradient>
    <inkscape:path-effect
       effect="bspline"
       id="path-effect5704"
       is_visible="true"
       weight="33.333333"
       steps="2"
       helper_size="0"
       apply_no_weight="true"
       apply_with_weight="true"
       only_selected="false" />
    <inkscape:path-effect
       effect="bspline"
       id="path-effect5700"
       is_visible="true"
       weight="33.333333"
       steps="2"
       helper_size="0"
       apply_no_weight="true"
       apply_with_weight="true"
       only_selected="false" />
    <inkscape:path-effect
       only_selected="false"
       apply_with_weight="true"
       apply_no_weight="true"
       helper_size="0"
       steps="2"
       weight="33.333333"
       is_visible="true"
       id="path-effect5696"
       effect="bspline" />
    <inkscape:path-effect
       effect="bspline"
       id="path-effect5692"
       is_visible="true"
       weight="33.333333"
       steps="2"
       helper_size="0"
       apply_no_weight="true"
       apply_with_weight="true"
       only_selected="false" />
  </defs>
  <metadata
     id="metadata5122">
    <rdf:RDF>
      <cc:Work
         rdf:about="">
        <dc:format>image/svg+xml</dc:format>
        <dc:type
           rdf:resource="http://purl.org/dc/dcmitype/StillImage" />
        <dc:title></dc:title>
      </cc:Work>
    </rdf:RDF>
  </metadata>
  <g
     id="layer1"
     inkscape:groupmode="layer"
     inkscape:label="Layer 1">
    <path
       style="fill:none;stroke:#000000;stroke-width:1px;stroke-linecap:butt;stroke-linejoin:miter;stroke-opacity:1"
       d="m 83.296623,649.50646 c 64.860157,-5.219 190.792507,-14.6471 300.225327,-25.75876 109.43283,-11.11166 202.36765,-23.90703 283.51619,-41.41632 81.14854,-17.50929 150.51319,-39.73292 214.48892,-51.85456 63.97574,-12.12164 122.56554,-14.14198 181.15384,-12.7951 58.5883,1.34689 117.1782,6.06102 173.4097,5.72425 56.2315,-0.33677 110.1071,-5.72433 148.156,-16.16275 38.0488,-10.43843 60.2727,-25.92774 91.923,-48.82378 31.6504,-22.89603 72.7321,-53.20219 121.8921,-80.81252 49.16,-27.61034 106.4036,-52.52814 144.4524,-67.34353 38.0489,-14.81539 56.9055,-19.52954 69.478,-25.50911 12.5724,-5.97957 18.8623,-13.2248 27.7204,-16.37053 8.8581,-3.14573 20.2884,-2.1932 26.9545,0.18736 6.666,2.38056 8.5709,6.19038 6.4949,9.95907 -2.0761,3.76869 -8.3988,7.65958 -14.5899,11.70756 -6.1911,4.04798 -12.3804,8.33288 -21.1909,12.14294 -8.8106,3.81007 -20.237,7.14277 -32.8568,13.57163 -12.6198,6.42885 -26.4279,15.95168 -42.6192,29.04753 -16.1913,13.09585 -34.7612,29.76109 -64.2862,61.90525 -29.5251,32.14417 -69.999,79.76054 -107.6184,127.61817 -37.6195,47.85764 -72.3807,95.95181 -98.3331,127.85683 -25.9525,31.90502 -43.0949,47.61897 -84.0492,65.47702 -40.9543,17.85804 -105.7122,37.85681 -201.4278,42.14264 -95.7156,4.28584 -222.37998,-7.14253 -347.14235,-21.42828 C 734.28568,734.28571 611.42941,717.14297 516.66733,706.66674 421.90524,696.1905 355.23904,692.38101 290.0005,689.04765 224.76196,685.71429 160.95333,682.85719 116.81424,678.73149 72.675144,674.6058 48.207419,669.2116 33.826537,665.33592 c -14.380882,-3.87567 -18.6739,-6.23263 -18.925868,-7.91651 -0.251969,-1.68388 3.535798,-2.69395 68.395954,-7.91295 z"
       id="path5690"
       inkscape:connector-curvature="0"
       inkscape:path-effect="#path-effect5692"
       inkscape:original-d="m 22.223356,653.71563 c 125.933354,-9.42909 251.865704,-18.85718 377.797054,-28.28428 92.93425,-12.79615 185.86907,-25.59153 278.8021,-38.38579 69.36397,-22.22409 138.72862,-44.44771 208.09142,-66.67007 58.58884,-2.02127 117.17867,-4.04161 175.76657,-6.06092 58.5888,4.71297 117.1787,9.4271 175.7665,14.14214 53.875,-5.3884 107.7506,-10.77596 161.6244,-16.16244 22.2239,-15.48969 44.4477,-30.97901 66.6701,-46.46702 41.0784,-30.30402 82.1601,-60.61015 123.2386,-90.91373 57.2414,-24.91741 114.485,-49.83519 171.7259,-74.75128 18.8568,-4.71495 37.7134,-9.4291 56.5686,-14.14214 6.29,-7.24534 12.5798,-14.49059 18.8683,-21.73439 11.4278,0.95124 22.8581,1.90377 34.2857,2.85715 1.9056,3.80822 3.8105,7.61804 5.7143,11.42857 -5.7139,4.28516 -12.38,7.61805 -18.5715,11.42857 -6.1906,4.28553 -12.3799,8.57043 -18.5714,12.85714 -11.4297,3.33295 -22.8561,6.66567 -34.2857,10 -13.81,9.5238 -27.6181,19.04662 -41.4286,28.57143 -18.572,16.66705 -37.1418,33.33233 -55.7143,50 -40.4775,47.62075 -80.9514,95.2371 -121.4285,142.85714 -34.7617,48.09533 -69.5229,96.18948 -104.2858,144.28572 -17.1422,15.71365 -34.2847,31.42757 -51.4285,47.14286 -64.7649,20.00021 -129.5228,39.999 -194.2857,60 C 1110.4749,774.2845 983.81052,762.85614 857.14286,751.42857 734.28584,734.28459 611.42957,717.14186 488.57143,700 421.9053,696.18945 355.2391,692.37995 288.57143,688.57143 224.76201,685.71325 160.95338,682.85614 97.142857,680 72.6754,674.60464 48.207676,669.21043 23.738585,663.81715 c -4.292279,-2.35809 -8.585297,-4.71504 -12.879445,-7.07107 3.789378,-1.01123 7.577144,-2.0213 11.364216,-3.03045 z" />
    <path
       inkscape:original-d="m 22.223356,653.71563 c 125.933354,-9.42909 251.865704,-18.85718 377.797054,-28.28428 92.93425,-12.79615 185.86907,-25.59153 278.8021,-38.38579 69.36397,-22.22409 138.72862,-44.44771 208.09142,-66.67007 58.58884,-2.02127 117.17867,-4.04161 175.76657,-6.06092 58.5888,4.71297 117.1787,9.4271 175.7665,14.14214 53.875,-5.3884 107.7506,-10.77596 161.6244,-16.16244 22.2239,-15.48969 44.4477,-30.97901 66.6701,-46.46702 41.0784,-30.30402 82.1601,-60.61015 123.2386,-90.91373 57.2414,-24.91741 114.485,-49.83519 171.7259,-74.75128 18.8568,-4.71495 37.7134,-9.4291 56.5686,-14.14214 6.29,-7.24534 12.5798,-14.49059 18.8683,-21.73439 11.4278,0.95124 22.8581,1.90377 34.2857,2.85715 1.9056,3.80822 3.8105,7.61804 5.7143,11.42857 -5.7139,4.28516 -12.38,7.61805 -18.5715,11.42857 -6.1906,4.28553 -12.3799,8.57043 -18.5714,12.85714 -11.4297,3.33295 -22.8561,6.66567 -34.2857,10 -13.81,9.5238 -27.6181,19.04662 -41.4286,28.57143 -18.572,16.66705 -37.1418,33.33233 -55.7143,50 -40.4775,47.62075 -80.9514,95.2371 -121.4285,142.85714 -34.7617,48.09533 -69.5229,96.18948 -104.2858,144.28572 -17.1422,15.71365 -34.2847,31.42757 -51.4285,47.14286 -64.7649,20.00021 -129.5228,39.999 -194.2857,60 C 1110.4749,774.2845 983.81052,762.85614 857.14286,751.42857 734.28584,734.28459 611.42957,717.14186 488.57143,700 421.9053,696.18945 355.2391,692.37995 288.57143,688.57143 224.76201,685.71325 160.95338,682.85614 97.142857,680 72.6754,674.60464 48.207676,669.21043 23.738585,663.81715 c -4.292279,-2.35809 -8.585297,-4.71504 -12.879445,-7.07107 3.789378,-1.01123 7.577144,-2.0213 11.364216,-3.03045 z"
       inkscape:path-effect="#path-effect5696"
       inkscape:connector-curvature="0"
       id="path5694"
       d="m 83.296623,649.50646 c 64.860157,-5.219 190.792507,-14.6471 300.225327,-25.75876 109.43283,-11.11166 202.36765,-23.90703 283.51619,-41.41632 81.14854,-17.50929 150.51319,-39.73292 214.48892,-51.85456 63.97574,-12.12164 122.56554,-14.14198 181.15384,-12.7951 58.5883,1.34689 117.1782,6.06102 173.4097,5.72425 56.2315,-0.33677 110.1071,-5.72433 148.156,-16.16275 38.0488,-10.43843 60.2727,-25.92774 91.923,-48.82378 31.6504,-22.89603 72.7321,-53.20219 121.8921,-80.81252 49.16,-27.61034 106.4036,-52.52814 144.4524,-67.34353 38.0489,-14.81539 56.9055,-19.52954 69.478,-25.50911 12.5724,-5.97957 18.8623,-13.2248 27.7204,-16.37053 8.8581,-3.14573 20.2884,-2.1932 26.9545,0.18736 6.666,2.38056 8.5709,6.19038 6.4949,9.95907 -2.0761,3.76869 -8.3988,7.65958 -14.5899,11.70756 -6.1911,4.04798 -12.3804,8.33288 -21.1909,12.14294 -8.8106,3.81007 -20.237,7.14277 -32.8568,13.57163 -12.6198,6.42885 -26.4279,15.95168 -42.6192,29.04753 -16.1913,13.09585 -34.7612,29.76109 -64.2862,61.90525 -29.5251,32.14417 -69.999,79.76054 -107.6184,127.61817 -37.6195,47.85764 -72.3807,95.95181 -98.3331,127.85683 -25.9525,31.90502 -43.0949,47.61897 -84.0492,65.47702 -40.9543,17.85804 -105.7122,37.85681 -201.4278,42.14264 -95.7156,4.28584 -222.37998,-7.14253 -347.14235,-21.42828 C 734.28568,734.28571 611.42941,717.14297 516.66733,706.66674 421.90524,696.1905 355.23904,692.38101 290.0005,689.04765 224.76196,685.71429 160.95333,682.85719 116.81424,678.73149 72.675144,674.6058 48.207419,669.2116 33.826537,665.33592 c -14.380882,-3.87567 -18.6739,-6.23263 -18.925868,-7.91651 -0.251969,-1.68388 3.535798,-2.69395 68.395954,-7.91295 z"
       style="fill:#ff0000;fill-opacity:1;stroke:#fe0000;stroke-opacity:1" />
    <path
       style="fill:#ff0000;fill-opacity:1;stroke:none;stroke-width:1px;stroke-linecap:butt;stroke-linejoin:miter;stroke-opacity:1"
       d="m 810.90229,695.44877 c 8.0811,58.588 16.16232,117.17685 15.8257,172.73548 -0.33663,55.55862 -9.09116,108.0858 -12.4583,135.02385 -3.36713,26.9381 -1.34686,28.285 11.93358,31.342 13.28044,3.057 37.8261,7.8253 51.22841,8.4228 13.40232,0.5975 15.66432,-2.9741 14.95032,-6.2467 -0.71399,-3.2727 -4.40568,-6.2499 -5.71475,-7.7381 -1.30907,-1.4881 -0.23767,-1.4881 2.56101,-1.372 2.79867,0.1161 7.55841,0.3601 9.87936,-1.0091 2.32096,-1.3693 2.32096,-4.3461 0.0601,-6.6667 -2.26086,-2.3205 -6.78618,-3.9877 -6.97316,-3.9667 -0.18697,0.021 3.75837,1.6457 5.66281,1.7643 1.90445,0.1186 1.66633,-1.3101 -0.95663,-2.8393 -2.62296,-1.5291 -7.85249,-3.2317 -6.30457,-24.7825 1.54791,-21.55076 9.76121,-62.97439 16.01112,-98.92634 6.2499,-35.95194 10.53574,-66.42898 10.77377,-96.66639 0.23803,-30.23742 -3.57163,-60.23852 -7.38105,-90.23766"
       id="path5698"
       inkscape:connector-curvature="0"
       inkscape:path-effect="#path-effect5700"
       inkscape:original-d="m 810.90229,695.44877 c 8.08222,58.58785 16.16344,117.1767 24.24366,175.76655 -8.75378,52.52769 -17.50831,105.05486 -26.26396,157.58378 2.02135,1.3459 4.04161,2.6928 6.06091,4.0407 24.54104,4.7661 49.08669,9.5344 73.62853,14.3031 2.26284,-3.5723 4.52481,-7.1439 6.78572,-10.7143 -3.68827,-2.9762 -7.37995,-5.9534 -11.07143,-8.9286 1.07246,0 2.14386,0 3.21429,0 4.52058,0.3558 9.28671,0.4752 13.92857,0.7143 10e-4,-2.9766 10e-4,-5.9534 0,-8.9286 -4.52129,-1.6671 -9.04662,-3.3343 -13.57143,-5 4.16818,1.6659 8.09624,3.3324 12.14286,5 -0.23707,-1.4294 -0.47519,-2.8581 -0.71429,-4.2857 -4.99616,-1.6667 -10.2371,-3.3343 -15.35714,-5 8.21626,-41.43451 16.42957,-82.85814 24.64285,-124.28572 4.2866,-30.47634 8.57243,-60.95338 12.85715,-91.42857 -3.80839,-29.9999 -7.61805,-60.001 -11.42858,-90" />
    <path
       style="fill:#ff0000;fill-opacity:1;stroke:none;stroke-width:1.5433104px;stroke-linecap:butt;stroke-linejoin:miter;stroke-opacity:1"
       d="m 1290.1161,652.50912 c -10.8079,68.0692 -21.3632,134.54784 -23.6354,174.99904 -2.2723,40.4512 3.8652,54.07702 18.6506,84.79045 14.7855,30.71343 38.2156,78.50744 50.8572,102.11649 12.6416,23.6091 14.9156,22.8971 22.4768,22.1703 7.5612,-0.7269 20.6489,-1.5372 26.8474,-3.8166 6.1985,-2.2795 5.5229,-6.0278 7.3687,-7.2488 1.8458,-1.2211 6.2156,0.084 8.5775,-0.7884 2.3619,-0.8721 2.7204,-3.9223 3.8523,-5.3289 1.132,-1.4066 3.0389,-1.1731 3.506,-8.0551 0.4671,-6.882 -0.5029,-20.89796 -2.7033,-28.48029 -2.2004,-7.58234 -6.0087,-8.87014 -15.5152,-28.99491 -9.5065,-20.12476 -24.8956,-59.14359 -22.4969,-100.75102 2.3987,-41.60744 22.5861,-85.80191 32.5255,-117.01271 9.9394,-31.2108 9.6321,-49.44079 9.3248,-67.66859"
       id="path5702"
       inkscape:connector-curvature="0"
       inkscape:path-effect="#path-effect5704"
       inkscape:original-d="m 1290.1161,652.50912 c -10.5403,68.11168 -21.3619,134.54804 -32.0452,201.82438 6.1396,13.62491 12.2768,27.25085 18.4129,40.87854 23.4348,47.79911 46.865,95.59306 70.295,143.39186 1.8417,-0.6102 4.125,-1.2925 6.1849,-1.9366 13.0627,-0.8103 26.1504,-1.6206 39.2232,-2.4285 -0.6746,-3.7497 -1.3501,-7.498 -2.0264,-11.2439 4.3671,1.3028 8.7369,2.6077 13.102,3.9125 0.3591,-3.0478 0.7177,-6.098 1.0749,-9.1447 1.9059,0.2323 3.8128,0.4658 5.7157,0.6999 -0.9672,-13.9971 -1.9372,-28.01307 -2.9081,-42.01726 -3.3969,-1.26263 -7.2392,-2.45005 -10.8612,-3.67275 -15.3896,-39.02572 -30.7787,-78.04457 -46.1706,-117.0645 20.1881,-44.19378 40.3755,-88.38827 60.5608,-132.58007 -0.3056,-18.23018 -0.613,-36.46017 -0.9219,-54.68794"
       sodipodi:nodetypes="ccccccccccccccc" />
  </g>
</svg>
