<?xml version="1.0" encoding="UTF-8" standalone="no"?>
<!-- Created with Inkscape (http://www.inkscape.org/) -->

<svg
   xmlns:osb="http://www.openswatchbook.org/uri/2009/osb"
   xmlns:dc="http://purl.org/dc/elements/1.1/"
   xmlns:cc="http://creativecommons.org/ns#"
   xmlns:rdf="http://www.w3.org/1999/02/22-rdf-syntax-ns#"
   xmlns:svg="http://www.w3.org/2000/svg"
   xmlns="http://www.w3.org/2000/svg"
   xmlns:sodipodi="http://sodipodi.sourceforge.net/DTD/sodipodi-0.dtd"
   xmlns:inkscape="http://www.inkscape.org/namespaces/inkscape"
   width="1920px"
   height="1080px"
   viewBox="0 0 1920 1080"
   version="1.1"
   id="SVGRoot"
   inkscape:version="0.92.2 (5c3e80d, 2017-08-06)"
   sodipodi:docname="Saurolophidae.svg"
   inkscape:export-filename="C:\Users\customer\Documents\ThatChapThere.github.io\dinosaurs\alt_images\Silluettes\Iguanodontia.png"
   inkscape:export-xdpi="73.809662"
   inkscape:export-ydpi="73.809662">
  <sodipodi:namedview
     id="base"
     pagecolor="#ffffff"
     bordercolor="#666666"
     borderopacity="1.0"
     inkscape:pageopacity="0.0"
     inkscape:pageshadow="2"
     inkscape:zoom="0.7"
     inkscape:cx="939.25647"
     inkscape:cy="343.37559"
     inkscape:document-units="px"
     inkscape:current-layer="layer1"
     showgrid="false"
     inkscape:window-width="1920"
     inkscape:window-height="1027"
     inkscape:window-x="-8"
     inkscape:window-y="-8"
     inkscape:window-maximized="1" />
  <defs
     id="defs5119">
    <inkscape:path-effect
       effect="bspline"
       id="path-effect5814"
       is_visible="true"
       weight="33.333333"
       steps="2"
       helper_size="0"
       apply_no_weight="true"
       apply_with_weight="true"
       only_selected="false" />
    <inkscape:path-effect
       effect="bspline"
       id="path-effect5806"
       is_visible="true"
       weight="33.333333"
       steps="2"
       helper_size="0"
       apply_no_weight="true"
       apply_with_weight="true"
       only_selected="false" />
    <inkscape:path-effect
       effect="bspline"
       id="path-effect5802"
       is_visible="true"
       weight="33.333333"
       steps="2"
       helper_size="0"
       apply_no_weight="true"
       apply_with_weight="true"
       only_selected="false" />
    <inkscape:path-effect
       effect="bspline"
       id="path-effect5770"
       is_visible="true"
       weight="33.333333"
       steps="2"
       helper_size="0"
       apply_no_weight="true"
       apply_with_weight="true"
       only_selected="false" />
    <inkscape:path-effect
       effect="bspline"
       id="path-effect5766"
       is_visible="true"
       weight="33.333333"
       steps="2"
       helper_size="0"
       apply_no_weight="true"
       apply_with_weight="true"
       only_selected="false" />
    <inkscape:path-effect
       effect="bspline"
       id="path-effect5762"
       is_visible="true"
       weight="33.333333"
       steps="2"
       helper_size="0"
       apply_no_weight="true"
       apply_with_weight="true"
       only_selected="false" />
    <inkscape:path-effect
       effect="bspline"
       id="path-effect5754"
       is_visible="true"
       weight="33.333333"
       steps="2"
       helper_size="0"
       apply_no_weight="true"
       apply_with_weight="true"
       only_selected="false" />
    <inkscape:path-effect
       effect="bspline"
       id="path-effect5746"
       is_visible="true"
       weight="33.333333"
       steps="2"
       helper_size="0"
       apply_no_weight="true"
       apply_with_weight="true"
       only_selected="false" />
    <inkscape:path-effect
       effect="bspline"
       id="path-effect5742"
       is_visible="true"
       weight="33.333333"
       steps="2"
       helper_size="0"
       apply_no_weight="true"
       apply_with_weight="true"
       only_selected="false" />
    <inkscape:path-effect
       effect="bspline"
       id="path-effect5738"
       is_visible="true"
       weight="33.333333"
       steps="2"
       helper_size="0"
       apply_no_weight="true"
       apply_with_weight="true"
       only_selected="false" />
    <inkscape:path-effect
       effect="bspline"
       id="path-effect5726"
       is_visible="true"
       weight="33.333333"
       steps="2"
       helper_size="0"
       apply_no_weight="true"
       apply_with_weight="true"
       only_selected="false" />
    <linearGradient
       id="linearGradient5708"
       osb:paint="solid">
      <stop
         style="stop-color:#000000;stop-opacity:1;"
         offset="0"
         id="stop5706" />
    </linearGradient>
    <inkscape:path-effect
       effect="bspline"
       id="path-effect5704"
       is_visible="true"
       weight="33.333333"
       steps="2"
       helper_size="0"
       apply_no_weight="true"
       apply_with_weight="true"
       only_selected="false" />
    <inkscape:path-effect
       effect="bspline"
       id="path-effect5700"
       is_visible="true"
       weight="33.333333"
       steps="2"
       helper_size="0"
       apply_no_weight="true"
       apply_with_weight="true"
       only_selected="false" />
    <inkscape:path-effect
       only_selected="false"
       apply_with_weight="true"
       apply_no_weight="true"
       helper_size="0"
       steps="2"
       weight="33.333333"
       is_visible="true"
       id="path-effect5696"
       effect="bspline" />
    <inkscape:path-effect
       effect="bspline"
       id="path-effect5692"
       is_visible="true"
       weight="33.333333"
       steps="2"
       helper_size="0"
       apply_no_weight="true"
       apply_with_weight="true"
       only_selected="false" />
  </defs>
  <metadata
     id="metadata5122">
    <rdf:RDF>
      <cc:Work
         rdf:about="">
        <dc:format>image/svg+xml</dc:format>
        <dc:type
           rdf:resource="http://purl.org/dc/dcmitype/StillImage" />
        <dc:title></dc:title>
      </cc:Work>
    </rdf:RDF>
  </metadata>
  <g
     id="layer1"
     inkscape:groupmode="layer"
     inkscape:label="Layer 1">
    <path
       style="fill:#ff0000;fill-opacity:1;stroke:none;stroke-width:1px;stroke-linecap:butt;stroke-linejoin:miter;stroke-opacity:1"
       d="m 118.62423,405.05463 c 62.53074,1.51039 172.97409,6.89787 288.80446,3.86738 115.83037,-3.03048 237.04971,-14.47898 342.44192,-26.60078 105.3922,-12.1218 194.95986,-24.91718 288.56669,-31.31473 93.6068,-6.39755 191.2561,-6.39755 263.9867,-0.67333 72.7305,5.72423 120.5449,17.17274 156.9105,15.48883 36.3655,-1.6839 61.283,-16.49971 86.5362,-27.61104 25.2532,-11.11132 50.845,-18.51948 32.6976,-33.85001 -18.1475,-15.33053 -80.0326,-38.58456 -68.0789,-43.97208 11.9536,-5.38751 94.5279,6.62346 150.2115,16.93979 55.6836,10.31633 76.4254,17.44632 88.2101,28.22074 11.7848,10.77442 13.805,24.91593 13.8893,31.23014 0.084,6.31421 -1.7675,4.7991 -5.6182,3.64614 -3.8508,-1.15297 -9.6991,-1.94339 -12.236,-1.02813 -2.537,0.91526 -1.7595,3.53481 -1.5174,5.70935 0.242,2.17454 -0.052,3.89782 0.7485,4.86732 0.8007,0.9695 2.6931,1.17977 5.3765,1.16916 2.6834,-0.0106 6.1557,-0.24209 8.4812,-0.7791 2.3254,-0.53702 3.5039,-1.37881 4.2609,-0.87373 0.757,0.50508 1.0936,2.35623 -9e-4,6.73524 -1.0945,4.379 -3.6184,11.27756 -12.8998,16.63579 -9.2814,5.35822 -25.3122,9.16821 -51.3933,8.57983 -26.0811,-0.58838 -62.1983,-5.5757 -95.0097,7.7555 -32.8114,13.3312 -62.3063,44.97932 -95.2379,72.25324 -32.9315,27.27391 -69.2958,50.16995 -129.0695,82.81538 -59.7736,32.64542 -142.949,75.0361 -228.3369,99.14085 -85.3879,24.10476 -172.9799,29.9204 -254.29361,25.56004 C 814.74048,664.60606 739.71217,650.06981 645.72598,616.97255 551.7398,583.87529 438.8017,532.21883 354.03323,500.92084 269.26477,469.62285 212.66848,458.68454 162.83421,446.63743 112.99995,434.59031 69.92872,421.43457 55.702037,413.67286 c -14.226684,-7.76172 0.391448,-10.12862 62.922193,-8.61823 z"
       id="path5800"
       inkscape:connector-curvature="0"
       inkscape:path-effect="#path-effect5802"
       inkscape:original-d="m 70.710678,401.17749 c 110.444342,5.38648 220.887692,10.77396 331.330032,16.16244 121.21827,-11.4493 242.43761,-22.89779 363.65492,-34.34519 89.56706,-12.79615 179.13472,-25.59153 268.70057,-38.38579 97.6479,-10e-4 195.2972,-10e-4 292.9442,0 47.8144,11.44728 95.6288,22.89579 143.4417,34.34518 24.9177,-14.81634 49.8352,-29.63214 74.7513,-44.44671 25.5903,-7.40843 51.1821,-14.81658 76.7715,-22.22335 -61.8836,-23.25488 -123.7687,-46.50889 -185.6545,-69.76181 85.7928,12.47797 168.3671,24.48894 257.3754,37.43693 22.3591,7.68461 43.1009,14.81458 64.6498,22.22336 2.0213,14.14111 4.0415,28.28262 6.0609,42.4264 -1.851,-1.5163 -3.7028,-3.03138 -5.5558,-4.54569 -5.8492,-0.79167 -11.6975,-1.58208 -17.5496,-2.37187 0.7792,2.62107 1.5567,5.24062 2.3342,7.86458 -0.2938,1.72561 -0.588,3.44889 -0.8839,5.17703 1.8966,0.20962 3.789,0.41989 5.6821,0.63135 3.4735,-0.23251 6.9458,-0.46399 10.4172,-0.69448 1.1795,-0.8428 2.358,-1.68459 3.5355,-2.52538 0.3377,1.85094 0.6743,3.70209 1.0102,5.55583 -2.5255,6.90467 -5.0494,13.80322 -7.5762,20.70813 -16.0367,3.81063 -32.0675,7.62062 -48.1048,11.43292 -36.1245,-4.98946 -72.2417,-9.97678 -108.3673,-14.96411 -29.4974,31.65087 -58.9923,63.29898 -88.4899,94.94999 -36.3657,22.89655 -72.73,45.79258 -109.0965,68.69038 -83.1808,42.39292 -166.3562,84.78359 -249.5373,127.17769 -87.5946,5.81489 -175.18656,11.63053 -262.78333,17.44743 C 814.7407,664.60491 739.71239,650.06866 664.68038,635.53288 551.74035,583.87409 438.80225,532.21763 325.86085,480.56112 269.26499,469.6217 212.6687,458.68339 156.07112,447.74603 113.00031,434.58912 69.929085,421.43338 26.8557,408.27829 c 14.619522,-2.36796 29.237652,-4.73487 43.854978,-7.1008 z"
       sodipodi:nodetypes="cccccccccccccccccccccccccccccccc" />
    <path
       style="fill:#ff0000;fill-opacity:1;stroke:none;stroke-width:1.26639068px;stroke-linecap:butt;stroke-linejoin:miter;stroke-opacity:1"
       d="m 604.30722,471.39625 c 108.62363,71.63689 216.54532,142.81085 269.29391,191.34535 52.7486,48.5345 49.92922,74.60574 37.48595,123.10913 -12.44327,48.50339 -34.53032,119.63441 -40.66958,158.01093 -6.13925,38.37652 3.6703,43.9928 17.45171,50.71529 13.7814,6.72245 31.53357,14.55065 53.62037,18.27825 22.0868,3.7276 48.5073,3.3547 65.97702,0.7334 17.4697,-2.6213 25.9884,-7.49 17.0521,-12.3258 -8.9364,-4.83572 -35.33529,-9.64074 -34.91859,-11.60809 0.4167,-1.96735 27.64459,-1.09749 40.65909,-3.5083 13.0145,-2.41081 11.8163,-8.10162 5.196,-11.3626 -6.6204,-3.26097 -20.1431,-4.19565 -28.3359,-5.01191 -8.19286,-0.81626 -11.79285,-1.56507 -5.4907,-2.45273 6.3022,-0.88766 22.5133,-1.91432 32.2133,-5.16553 9.7,-3.25122 12.8931,-8.72666 4.1079,-11.31069 -8.7853,-2.58402 -29.5595,-2.27835 -40.28826,-4.21359 -10.72877,-1.93524 -11.416,-6.10975 -13.55025,-14.57743 -2.13426,-8.46768 -5.7175,-21.23589 5.96489,-39.95849 11.68242,-18.72261 38.63252,-43.40741 55.90962,-83.96814 17.2772,-40.56073 24.8854,-97.00457 13.6063,-144.35102 -11.279,-47.34645 -41.4443,-85.59924 -82.14279,-116.66673 -40.69852,-31.06749 -91.93074,-54.94999 -143.16333,-78.83266"
       id="path5804"
       inkscape:connector-curvature="0"
       inkscape:path-effect="#path-effect5806"
       inkscape:original-d="m 604.30722,471.39625 c 108.44395,71.90933 216.54626,142.80943 324.81781,214.21616 -2.1213,25.73441 -5.59378,51.73503 -8.39226,77.60456 -22.08837,71.13733 -44.17542,142.26835 -66.26473,213.40455 9.81104,5.6152 19.62064,11.2314 29.42937,16.84925 17.75388,7.82713 35.50601,15.65543 53.25743,23.48503 26.42152,-0.3743 52.84202,-0.7473 79.26136,-1.1189 8.5198,-4.8701 17.0385,-9.7389 25.5563,-14.6064 -26.3899,-4.80493 -52.78884,-9.60983 -79.18594,-14.41308 27.2303,0.8685 54.45814,1.73855 81.68544,2.60965 -1.197,-5.69175 -2.3952,-11.38255 -3.5944,-17.07185 -12.0427,-0.8337 -25.5654,-1.7685 -38.3513,-2.6508 -3.59954,-0.75032 -7.19954,-1.49909 -10.80084,-2.24661 16.20524,-1.02755 32.41634,-2.05425 48.62294,-3.07933 3.1937,-5.47593 6.3868,-10.95137 9.5786,-16.42506 -20.7625,0.30418 -41.5367,0.60987 -62.30674,0.9168 -0.6863,-4.1763 -1.3735,-8.35081 -2.0618,-12.52422 -3.5801,-12.76212 -7.1633,-25.53034 -10.7466,-38.29349 26.94654,-24.68187 53.89664,-49.3667 80.84344,-74.04806 7.6086,-56.43975 15.2169,-112.88358 22.8235,-169.32336 C 1048.3144,616.42683 1018.1492,578.17396 987.98266,539.9224 936.7515,516.03855 885.51928,492.15605 834.28598,468.27489"
       sodipodi:nodetypes="cccccccccccccccccccccc" />
    <path
       style="fill:#ff0000;fill-opacity:1;stroke:none;stroke-width:1.21604729px;stroke-linecap:butt;stroke-linejoin:miter;stroke-opacity:1"
       d="m 1219.5427,524.44715 c -2.4804,60.16897 -4.9609,120.33901 -2.7104,154.92119 2.2505,34.58217 9.2318,43.575 31.4527,61.08496 22.2209,17.50997 59.6773,43.53415 85.6034,59.18457 25.9261,15.65043 40.3143,20.92397 50.6198,24.25334 10.3054,3.32938 16.5125,4.70965 20.9469,4.42753 4.4344,-0.28213 7.0935,-2.22575 1.4374,-5.96298 -5.6561,-3.73723 -19.6267,-9.26941 -22.7981,-10.25058 -3.1715,-0.98118 4.4551,2.58807 11.4409,5.35431 6.9858,2.76624 13.3288,4.72871 18.3611,3.66765 5.0323,-1.06107 8.7538,-5.14455 3.1677,-9.34076 -5.586,-4.1962 -20.4805,-8.50745 -21.5787,-8.16725 -1.0982,0.3402 11.5994,5.33157 19.6154,6.44352 8.016,1.11195 11.3499,-1.65434 7.3878,-5.35409 -3.9621,-3.69974 -15.2278,-8.33792 -15.7968,-7.29494 -0.569,1.04297 9.5536,7.7643 16.8483,8.63955 7.2946,0.87525 11.7576,-4.09547 5.536,-8.89527 -6.2216,-4.7998 -23.1288,-9.43054 -40.0349,-14.06098 0,0 0,0 2.5526,-4.35609 2.5526,-4.35609 7.6568,-13.06649 7.8181,-15.78324 0.1614,-2.71674 -4.6208,0.55996 -9.2657,2.74193 -4.6449,2.18197 -9.1528,3.26865 -18.4406,-0.8885 -9.2878,-4.15715 -23.3528,-13.55782 -38.3055,-25.54236 -14.9528,-11.98455 -30.7924,-26.5526 -31.9073,-49.98167 -1.1149,-23.42907 12.4949,-55.71885 17.6121,-85.85188 5.1172,-30.13304 1.7424,-58.11244 -1.6321,-86.08998"
       id="path5812"
       inkscape:connector-curvature="0"
       inkscape:path-effect="#path-effect5814"
       inkscape:original-d="m 1219.5427,524.44715 c -2.4789,60.16903 -4.9595,120.33907 -7.4414,180.51017 6.9829,8.99213 13.9641,17.98499 20.9442,26.97907 37.4613,26.02554 74.9178,52.04967 112.3745,78.07606 14.395,5.27448 28.7832,10.54801 43.181,15.82664 6.2129,1.3802 12.42,2.76047 18.6278,4.14226 2.6607,-1.94468 5.3198,-3.88834 7.9775,-5.83094 -13.9693,-5.53329 -27.9399,-11.06549 -41.9121,-16.59665 7.6293,3.56903 15.2559,7.13827 22.8829,10.70919 6.3444,1.96159 12.6874,3.92405 19.0292,5.88746 3.7224,-4.0843 7.444,-8.16776 11.164,-12.24964 -14.8919,-4.31178 -29.7864,-8.62304 -44.6823,-12.93339 12.6997,4.99058 25.3974,9.98189 38.0938,14.97441 3.335,-2.76716 6.6689,-5.53345 10.0013,-8.29856 -11.256,-4.6358 -22.5217,-9.27397 -33.7855,-13.90974 10.126,6.72196 20.2486,13.44326 30.3727,20.16728 4.4645,-4.97228 8.9274,-9.94304 13.3892,-14.91254 -16.9046,-4.63148 -50.7183,-13.89131 -50.7183,-13.89131 0,0 0,-7.4e-4 0,0 5.1058,-8.71184 10.2099,-17.42228 15.3129,-26.13184 -4.7809,3.27562 -9.5631,6.55229 -14.3465,9.83011 -4.5065,1.08561 -9.0144,2.1723 -13.5237,3.26004 -14.0652,-9.40268 -28.1302,-18.80341 -42.1974,-28.20352 -15.838,-14.56888 -31.6777,-29.13688 -47.5185,-43.7037 13.6107,-32.28976 27.2205,-64.57954 40.8287,-96.8677 -3.3732,-27.97841 -6.7477,-55.95784 -10.1239,-83.93518"
       sodipodi:nodetypes="cccccccccccccccccccccccccc" />
  </g>
</svg>
