<?xml version="1.0" encoding="UTF-8" standalone="no"?>
<!-- Created with Inkscape (http://www.inkscape.org/) -->

<svg
   xmlns:osb="http://www.openswatchbook.org/uri/2009/osb"
   xmlns:dc="http://purl.org/dc/elements/1.1/"
   xmlns:cc="http://creativecommons.org/ns#"
   xmlns:rdf="http://www.w3.org/1999/02/22-rdf-syntax-ns#"
   xmlns:svg="http://www.w3.org/2000/svg"
   xmlns="http://www.w3.org/2000/svg"
   xmlns:sodipodi="http://sodipodi.sourceforge.net/DTD/sodipodi-0.dtd"
   xmlns:inkscape="http://www.inkscape.org/namespaces/inkscape"
   width="1920px"
   height="1080px"
   viewBox="0 0 1920 1080"
   version="1.1"
   id="SVGRoot"
   inkscape:version="0.92.2 (5c3e80d, 2017-08-06)"
   sodipodi:docname="Stegosauria.svg"
   inkscape:export-filename="C:\Users\customer\Documents\ThatChapThere.github.io\dinosaurs\alt_images\Silluettes\Saurolophidae.png"
   inkscape:export-xdpi="73.809662"
   inkscape:export-ydpi="73.809662">
  <sodipodi:namedview
     id="base"
     pagecolor="#ffffff"
     bordercolor="#666666"
     borderopacity="1.0"
     inkscape:pageopacity="0.0"
     inkscape:pageshadow="2"
     inkscape:zoom="0.49497475"
     inkscape:cx="1128.0688"
     inkscape:cy="692.05247"
     inkscape:document-units="px"
     inkscape:current-layer="layer1"
     showgrid="false"
     inkscape:window-width="1920"
     inkscape:window-height="1027"
     inkscape:window-x="-8"
     inkscape:window-y="-8"
     inkscape:window-maximized="1" />
  <defs
     id="defs5119">
    <inkscape:path-effect
       effect="bspline"
       id="path-effect5840"
       is_visible="true"
       weight="33.333333"
       steps="2"
       helper_size="0"
       apply_no_weight="true"
       apply_with_weight="true"
       only_selected="false" />
    <inkscape:path-effect
       effect="bspline"
       id="path-effect5836"
       is_visible="true"
       weight="33.333333"
       steps="2"
       helper_size="0"
       apply_no_weight="true"
       apply_with_weight="true"
       only_selected="false" />
    <inkscape:path-effect
       effect="bspline"
       id="path-effect5826"
       is_visible="true"
       weight="33.333333"
       steps="2"
       helper_size="0"
       apply_no_weight="true"
       apply_with_weight="true"
       only_selected="false" />
    <inkscape:path-effect
       effect="bspline"
       id="path-effect5822"
       is_visible="true"
       weight="33.333333"
       steps="2"
       helper_size="0"
       apply_no_weight="true"
       apply_with_weight="true"
       only_selected="false" />
    <inkscape:path-effect
       effect="bspline"
       id="path-effect5818"
       is_visible="true"
       weight="33.333333"
       steps="2"
       helper_size="0"
       apply_no_weight="true"
       apply_with_weight="true"
       only_selected="false" />
    <inkscape:path-effect
       effect="bspline"
       id="path-effect5814"
       is_visible="true"
       weight="33.333333"
       steps="2"
       helper_size="0"
       apply_no_weight="true"
       apply_with_weight="true"
       only_selected="false" />
    <inkscape:path-effect
       effect="bspline"
       id="path-effect5806"
       is_visible="true"
       weight="33.333333"
       steps="2"
       helper_size="0"
       apply_no_weight="true"
       apply_with_weight="true"
       only_selected="false" />
    <inkscape:path-effect
       effect="bspline"
       id="path-effect5802"
       is_visible="true"
       weight="33.333333"
       steps="2"
       helper_size="0"
       apply_no_weight="true"
       apply_with_weight="true"
       only_selected="false" />
    <inkscape:path-effect
       effect="bspline"
       id="path-effect5770"
       is_visible="true"
       weight="33.333333"
       steps="2"
       helper_size="0"
       apply_no_weight="true"
       apply_with_weight="true"
       only_selected="false" />
    <inkscape:path-effect
       effect="bspline"
       id="path-effect5766"
       is_visible="true"
       weight="33.333333"
       steps="2"
       helper_size="0"
       apply_no_weight="true"
       apply_with_weight="true"
       only_selected="false" />
    <inkscape:path-effect
       effect="bspline"
       id="path-effect5762"
       is_visible="true"
       weight="33.333333"
       steps="2"
       helper_size="0"
       apply_no_weight="true"
       apply_with_weight="true"
       only_selected="false" />
    <inkscape:path-effect
       effect="bspline"
       id="path-effect5754"
       is_visible="true"
       weight="33.333333"
       steps="2"
       helper_size="0"
       apply_no_weight="true"
       apply_with_weight="true"
       only_selected="false" />
    <inkscape:path-effect
       effect="bspline"
       id="path-effect5746"
       is_visible="true"
       weight="33.333333"
       steps="2"
       helper_size="0"
       apply_no_weight="true"
       apply_with_weight="true"
       only_selected="false" />
    <inkscape:path-effect
       effect="bspline"
       id="path-effect5742"
       is_visible="true"
       weight="33.333333"
       steps="2"
       helper_size="0"
       apply_no_weight="true"
       apply_with_weight="true"
       only_selected="false" />
    <inkscape:path-effect
       effect="bspline"
       id="path-effect5738"
       is_visible="true"
       weight="33.333333"
       steps="2"
       helper_size="0"
       apply_no_weight="true"
       apply_with_weight="true"
       only_selected="false" />
    <inkscape:path-effect
       effect="bspline"
       id="path-effect5726"
       is_visible="true"
       weight="33.333333"
       steps="2"
       helper_size="0"
       apply_no_weight="true"
       apply_with_weight="true"
       only_selected="false" />
    <linearGradient
       id="linearGradient5708"
       osb:paint="solid">
      <stop
         style="stop-color:#000000;stop-opacity:1;"
         offset="0"
         id="stop5706" />
    </linearGradient>
    <inkscape:path-effect
       effect="bspline"
       id="path-effect5704"
       is_visible="true"
       weight="33.333333"
       steps="2"
       helper_size="0"
       apply_no_weight="true"
       apply_with_weight="true"
       only_selected="false" />
    <inkscape:path-effect
       effect="bspline"
       id="path-effect5700"
       is_visible="true"
       weight="33.333333"
       steps="2"
       helper_size="0"
       apply_no_weight="true"
       apply_with_weight="true"
       only_selected="false" />
    <inkscape:path-effect
       only_selected="false"
       apply_with_weight="true"
       apply_no_weight="true"
       helper_size="0"
       steps="2"
       weight="33.333333"
       is_visible="true"
       id="path-effect5696"
       effect="bspline" />
    <inkscape:path-effect
       effect="bspline"
       id="path-effect5692"
       is_visible="true"
       weight="33.333333"
       steps="2"
       helper_size="0"
       apply_no_weight="true"
       apply_with_weight="true"
       only_selected="false" />
    <inkscape:path-effect
       effect="bspline"
       id="path-effect5840-6"
       is_visible="true"
       weight="33.333333"
       steps="2"
       helper_size="0"
       apply_no_weight="true"
       apply_with_weight="true"
       only_selected="false" />
    <inkscape:path-effect
       effect="bspline"
       id="path-effect5840-4"
       is_visible="true"
       weight="33.333333"
       steps="2"
       helper_size="0"
       apply_no_weight="true"
       apply_with_weight="true"
       only_selected="false" />
    <inkscape:path-effect
       effect="bspline"
       id="path-effect5840-0"
       is_visible="true"
       weight="33.333333"
       steps="2"
       helper_size="0"
       apply_no_weight="true"
       apply_with_weight="true"
       only_selected="false" />
    <inkscape:path-effect
       effect="bspline"
       id="path-effect5840-9"
       is_visible="true"
       weight="33.333333"
       steps="2"
       helper_size="0"
       apply_no_weight="true"
       apply_with_weight="true"
       only_selected="false" />
    <inkscape:path-effect
       effect="bspline"
       id="path-effect5840-63"
       is_visible="true"
       weight="33.333333"
       steps="2"
       helper_size="0"
       apply_no_weight="true"
       apply_with_weight="true"
       only_selected="false" />
    <inkscape:path-effect
       effect="bspline"
       id="path-effect5840-8"
       is_visible="true"
       weight="33.333333"
       steps="2"
       helper_size="0"
       apply_no_weight="true"
       apply_with_weight="true"
       only_selected="false" />
    <inkscape:path-effect
       effect="bspline"
       id="path-effect5840-3"
       is_visible="true"
       weight="33.333333"
       steps="2"
       helper_size="0"
       apply_no_weight="true"
       apply_with_weight="true"
       only_selected="false" />
    <inkscape:path-effect
       effect="bspline"
       id="path-effect5840-83"
       is_visible="true"
       weight="33.333333"
       steps="2"
       helper_size="0"
       apply_no_weight="true"
       apply_with_weight="true"
       only_selected="false" />
    <inkscape:path-effect
       effect="bspline"
       id="path-effect5840-31"
       is_visible="true"
       weight="33.333333"
       steps="2"
       helper_size="0"
       apply_no_weight="true"
       apply_with_weight="true"
       only_selected="false" />
    <inkscape:path-effect
       effect="bspline"
       id="path-effect5840-44"
       is_visible="true"
       weight="33.333333"
       steps="2"
       helper_size="0"
       apply_no_weight="true"
       apply_with_weight="true"
       only_selected="false" />
    <inkscape:path-effect
       effect="bspline"
       id="path-effect5840-84"
       is_visible="true"
       weight="33.333333"
       steps="2"
       helper_size="0"
       apply_no_weight="true"
       apply_with_weight="true"
       only_selected="false" />
    <inkscape:path-effect
       effect="bspline"
       id="path-effect5840-06"
       is_visible="true"
       weight="33.333333"
       steps="2"
       helper_size="0"
       apply_no_weight="true"
       apply_with_weight="true"
       only_selected="false" />
    <inkscape:path-effect
       effect="bspline"
       id="path-effect5840-06-0"
       is_visible="true"
       weight="33.333333"
       steps="2"
       helper_size="0"
       apply_no_weight="true"
       apply_with_weight="true"
       only_selected="false" />
    <inkscape:path-effect
       effect="bspline"
       id="path-effect5840-06-9"
       is_visible="true"
       weight="33.333333"
       steps="2"
       helper_size="0"
       apply_no_weight="true"
       apply_with_weight="true"
       only_selected="false" />
    <inkscape:path-effect
       effect="bspline"
       id="path-effect5840-06-2"
       is_visible="true"
       weight="33.333333"
       steps="2"
       helper_size="0"
       apply_no_weight="true"
       apply_with_weight="true"
       only_selected="false" />
  </defs>
  <metadata
     id="metadata5122">
    <rdf:RDF>
      <cc:Work
         rdf:about="">
        <dc:format>image/svg+xml</dc:format>
        <dc:type
           rdf:resource="http://purl.org/dc/dcmitype/StillImage" />
        <dc:title></dc:title>
      </cc:Work>
    </rdf:RDF>
  </metadata>
  <g
     id="layer1"
     inkscape:groupmode="layer"
     inkscape:label="Layer 1">
    <path
       style="fill:#ff0000;stroke:none;stroke-width:1px;stroke-linecap:butt;stroke-linejoin:miter;stroke-opacity:1;fill-opacity:1"
       d="m 150.4772,446.42856 c 75.23804,2.6191 210.95232,8.80958 304.76175,7.85712 93.80943,-0.95246 145.71456,-9.04776 235.92257,-20.94883 90.20801,-11.90106 218.83959,-27.6227 347.41018,-17.3846 128.5707,10.2381 257.1433,46.4289 337.3812,69.76221 80.238,23.3333 112.1429,33.80954 143.0952,39.52374 30.9523,5.71419 60.9529,6.66659 94.6608,1.88528 33.7079,-4.78131 71.1261,-15.29668 104.2209,-16.4869 33.0949,-1.19022 61.8687,6.94386 79.1124,13.1537 17.2437,6.20984 22.958,10.49555 25.815,14.06642 2.8571,3.57087 2.8571,5.96968 2.0287,8.73251 -0.8285,2.76282 -2.0279,4.36211 -10.1217,5.29686 -8.0938,0.93475 -22.8504,0.89844 -21.3493,1.0103 1.5011,0.11185 19.2583,0.37177 27.2558,5.23792 7.9974,4.86615 6.2325,14.33786 -3.2806,20.81761 -9.5131,6.47974 -26.7683,9.96181 -43.7626,9.06741 -16.9942,-0.89439 -33.7234,-6.16628 -65.0149,-7.14068 -31.2915,-0.97441 -77.1428,2.34884 -106.2448,12.91865 -29.1019,10.56981 -41.4485,28.3853 -51.6698,41.81756 -10.2214,13.43227 -18.3161,22.47931 -44.9853,32.00413 -26.6692,9.52481 -71.9007,19.52335 -136.1882,27.1427 -64.2875,7.61935 -147.6176,12.85725 -216.4281,12.14304 C 1084.286,706.1905 1030.0008,699.5239 949.28494,687.857 868.56911,676.19011 761.4294,659.52393 658.09555,633.33336 554.76171,607.14279 455.23867,571.42878 361.8584,539.18936 268.47814,506.94994 179.52441,477.61925 127.87268,462.6201 76.220952,447.62095 60.953315,446.66673 60.715735,445.71425 c -0.23758,-0.95247 14.52342,-1.9048 89.761465,0.71431 z"
       id="path5816"
       inkscape:connector-curvature="0"
       inkscape:path-effect="#path-effect5818"
       inkscape:original-d="m 90,442.85714 c 135.71529,6.18948 271.42957,12.37995 407.14286,18.57143 51.90539,-8.09618 103.81052,-16.19148 155.71428,-24.28571 C 781.42677,421.90409 910.001,405.71329 1038.5714,390 c 128.5713,36.18916 257.1439,72.37995 385.7143,108.57143 31.9056,10.47513 63.8105,20.95138 95.7143,31.42857 30.0004,0.95136 60.001,1.90376 90,2.85714 37.4166,-10.51565 74.8348,-21.031 112.2505,-31.54496 28.7745,8.13301 57.5483,16.26707 86.3209,24.4021 5.7153,4.28472 11.4296,8.57043 17.1429,12.85714 10e-4,2.85615 10e-4,5.25496 0,8.57143 -1.6567,2.20932 -2.8562,3.80857 -4.2857,5.71429 -14.7582,-0.0373 -29.5148,-0.0736 -44.2784,-0.10896 17.7658,0.25903 35.523,0.51895 53.283,0.77992 -1.7643,9.47248 -3.5292,18.9442 -5.2958,28.42042 -17.2606,3.48236 -34.5158,6.96442 -51.7753,10.44815 -16.7284,-5.27296 -33.4576,-10.54484 -50.1881,-15.81581 -45.853,3.32244 -91.7043,6.64569 -137.5612,9.97026 -12.3467,17.81611 -24.6933,35.63159 -37.0414,53.44888 -8.0947,9.04717 -16.1894,18.09424 -24.2857,27.14286 -45.2424,10.00017 -90.4739,19.99873 -135.7142,29.99999 -83.3346,5.23724 -166.6647,10.47514 -250,15.71429 -54.2854,-6.66774 -108.5706,-13.33434 -162.85721,-20 -107.14501,-16.66815 -214.28472,-33.33433 -321.42858,-50 C 554.76214,607.14158 455.2391,571.42757 355.71429,535.71429 268.57193,506.6655 179.52481,477.61805 91.428571,448.57143 76.191372,448.09423 60.953381,446.66567 45.714286,445.71429 60.478095,444.76085 75.239095,443.80852 90,442.85714 Z"
       sodipodi:nodetypes="cccccccccccccccccccccccccccc" />
    <path
       style="fill:#ff0000;stroke:none;stroke-width:1px;stroke-linecap:butt;stroke-linejoin:miter;stroke-opacity:1;fill-opacity:1"
       d="m 747.51288,520.37549 c 27.65322,53.31517 55.56203,107.12312 59.65413,139.94477 4.09209,32.82165 -15.50444,44.90142 -25.35593,75.02826 -9.85149,30.12684 -9.95301,78.29001 -8.32024,108.09827 1.63276,29.80827 4.99986,41.2564 9.71421,49.67484 4.71434,8.41845 10.77491,13.80562 14.48649,20.92681 3.71158,7.12118 5.04289,15.77472 13.12538,20.15246 8.08248,4.37774 22.89665,4.37774 34.34477,4.37774 11.44812,0 19.52989,0 24.58033,-2.02065 5.05043,-2.02066 7.07099,-6.06177 5.05145,-9.76447 -2.01953,-3.70269 -8.08225,-7.07087 -14.4803,-13.1322 -6.39804,-6.06133 -13.13201,-14.81549 -19.19289,-22.89666 -6.06088,-8.08118 -11.44845,-15.48909 -5.02312,-35.27604 6.42533,-19.78696 25.26076,-53.00692 36.28054,-87.29428 11.01978,-34.28737 14.52353,-70.16966 15.35678,-103.99422 0.83326,-33.82457 -1.00382,-65.59156 -9.17454,-92.35289 -8.17072,-26.76133 -23.2976,-49.45166 -38.11302,-71.67479"
       id="path5820"
       inkscape:connector-curvature="0"
       inkscape:path-effect="#path-effect5822"
       inkscape:original-d="m 747.51288,520.37549 c 27.65441,53.31455 55.56322,107.1225 83.34375,160.68605 -19.5977,12.08009 -39.19423,24.15986 -58.79551,36.24293 -0.10054,48.17089 -0.20205,96.33406 -0.30458,144.50258 3.36826,11.44766 6.73535,22.89579 10.10153,34.34519 6.06226,5.38678 12.12283,10.77396 18.18275,16.16244 2.02128,8.75356 2.69474,17.50831 4.04061,26.26396 14.81797,-10e-4 29.63214,-10e-4 44.44671,0 8.08167,-10e-4 16.16344,-10e-4 24.24366,0 2.02105,-4.04111 4.04161,-8.08222 6.06091,-12.12183 -6.05811,-3.36717 -12.12083,-6.73535 -18.18274,-10.10152 -6.73373,-8.75615 -13.4677,-17.51031 -20.20305,-26.26397 -5.38639,-7.40866 -10.77396,-14.81657 -16.16244,-22.22335 18.23834,-32.16612 37.07377,-65.38608 55.60915,-98.07762 3.50474,-35.88329 7.00849,-71.76558 10.51124,-107.64688 -1.83608,-31.76798 -3.67316,-63.53497 -5.51124,-95.30096 -14.81406,-21.55018 -29.63014,-44.44771 -44.44671,-66.67007"
       sodipodi:nodetypes="ccccccccccccccccc" />
    <path
       style="fill:#ff0000;stroke:none;stroke-width:1px;stroke-linecap:butt;stroke-linejoin:miter;stroke-opacity:1;fill-opacity:1"
       d="m 1371.7067,667.14347 c -12.9169,14.95692 -25.8341,29.91406 -33.2087,40.76712 -7.3746,10.85306 -9.2045,17.59961 -12.1436,38.62696 -2.9391,21.02735 -6.9859,56.32646 -8.9453,83.01348 -1.9594,26.68701 -1.8299,44.74347 0.1735,61.1416 2.0034,16.39813 5.8804,31.13116 10.5135,38.49844 4.633,7.36727 8.6734,7.36727 17.4267,7.36727 8.7533,0 21.5513,0 27.6117,-2.35726 6.0604,-2.35726 5.3869,-7.07167 2.6936,-13.46832 -2.6934,-6.39664 -7.4083,-14.4793 -6.0964,-31.17071 1.312,-16.6914 9.5791,-45.1978 12.3917,-69.82941 2.8126,-24.63161 0.6359,-46.9915 0.5002,-60.62026 -0.1357,-13.62875 1.7691,-18.52604 16.1291,-34.97373 14.3601,-16.4477 41.175,-44.44605 67.9888,-72.44333"
       id="path5824"
       inkscape:connector-curvature="0"
       inkscape:path-effect="#path-effect5826"
       inkscape:original-d="m 1371.7067,667.14347 c -12.9169,14.95696 -25.834,29.91414 -38.7535,44.87384 -1.8292,6.74651 -3.6591,13.49306 -5.4902,20.2415 -4.0468,35.30619 -8.0937,70.6053 -12.1429,105.91734 0.1306,18.06188 0.2601,36.11834 0.3887,54.18058 3.8784,14.73373 7.7554,29.46675 11.6316,44.20161 5.3887,-0.001 9.4291,-0.001 14.1422,0 12.7935,-0.001 25.5915,-0.001 38.3858,0 -0.6724,-4.71468 -1.3459,-9.42909 -2.0203,-14.14214 -4.7122,-8.08078 -9.4271,-16.16344 -14.1422,-24.24366 7.3384,-25.30172 15.6056,-53.8081 23.4069,-80.71068 -2.1757,-22.36094 -4.3524,-44.72083 -6.5301,-67.07978 1.9057,-4.89827 3.8105,-9.79554 5.7143,-14.69181 26.8158,-27.99932 53.6307,-55.99763 80.4445,-83.99495"
       sodipodi:nodetypes="cccccccccccccc" />
    <path
       style="fill:#ff0000;stroke:none;stroke-width:1px;stroke-linecap:butt;stroke-linejoin:miter;stroke-opacity:1;fill-opacity:1"
       d="m 185.86807,467.84756 -32.32488,-181.82746 54.54823,175.76654 40.40611,-121.2183 -20.20305,121.2183 z"
       id="path5828"
       inkscape:connector-curvature="0" />
    <path
       style="fill:#ff0000;stroke:none;stroke-width:1px;stroke-linecap:butt;stroke-linejoin:miter;stroke-opacity:1;fill-opacity:1"
       d="m 345.47217,486.0303 -40.4061,-183.84776 68.69037,171.72593 60.60915,-94.95434 -36.36549,113.13709 z"
       id="path5832"
       inkscape:connector-curvature="0" />
    <path
       style="fill:#ff0000;fill-opacity:1;stroke:none;stroke-width:1px;stroke-linecap:butt;stroke-linejoin:miter;stroke-opacity:1"
       d="m 512.14763,511.28351 c -23.23381,-5.05016 -57.57899,-39.39534 -66.33321,-67.34345 -8.75423,-27.94811 8.08165,-49.49802 21.55006,-67.34371 13.46842,-17.84568 23.57046,-31.98854 39.05829,-30.97841 15.48784,1.01013 36.366,17.17386 49.83452,30.30561 13.46852,13.13175 19.52947,23.23334 18.85625,38.04873 -0.67322,14.8154 -8.08079,34.34445 -17.84591,56.23184 -9.76511,21.88739 -21.88619,46.12956 -45.12,41.07939 z"
       id="path5838"
       inkscape:connector-curvature="0"
       inkscape:path-effect="#path-effect5840"
       inkscape:original-d="m 523.25901,540.57854 c -34.34419,-34.34619 -68.68937,-68.69137 -103.03556,-103.03556 16.83688,-21.55092 33.67275,-43.10084 50.50763,-64.64976 10.10201,-14.14241 20.20405,-28.28527 30.30457,-42.42641 20.87582,16.16014 41.75398,32.32388 62.62946,48.48732 6.06188,10.10046 12.12283,20.20205 18.18275,30.30458 -7.407,19.52918 -14.81457,39.05823 -22.22336,58.58885 -12.12158,24.24415 -24.24266,48.48632 -36.36549,72.73098 z" />
    <path
       style="fill:#ff0000;fill-opacity:1;stroke:none;stroke-width:1px;stroke-linecap:butt;stroke-linejoin:miter;stroke-opacity:1"
       d="m 558.44973,487.741 c -23.23381,-5.05016 -57.57899,-39.39534 -66.33321,-67.34345 -8.75423,-27.94811 8.08165,-49.49802 21.55006,-67.34371 13.46842,-17.84568 23.57046,-31.98854 39.05829,-30.97841 15.48784,1.01013 36.366,17.17386 49.83452,30.30561 13.46852,13.13175 19.52947,23.23334 18.85625,38.04873 -0.67322,14.8154 -8.08079,34.34445 -17.84591,56.23184 -9.76511,21.88739 -21.88619,46.12956 -45.12,41.07939 z"
       id="path5838-1"
       inkscape:connector-curvature="0"
       inkscape:path-effect="#path-effect5840-6"
       inkscape:original-d="m 569.56111,517.03603 c -34.34419,-34.34619 -68.68937,-68.69137 -103.03556,-103.03556 16.83688,-21.55092 33.67275,-43.10084 50.50763,-64.64976 10.10201,-14.14241 20.20405,-28.28527 30.30457,-42.42641 20.87582,16.16014 41.75398,32.32388 62.62946,48.48732 6.06188,10.10046 12.12283,20.20205 18.18275,30.30458 -7.407,19.52918 -14.81457,39.05823 -22.22336,58.58885 -12.12158,24.24415 -24.24266,48.48632 -36.36549,72.73098 z" />
    <path
       style="fill:#ff0000;fill-opacity:1;stroke:none;stroke-width:1px;stroke-linecap:butt;stroke-linejoin:miter;stroke-opacity:1"
       d="m 683.70865,495.82222 c -23.23381,-5.05016 -57.57899,-39.39534 -66.33321,-67.34345 -8.75423,-27.94811 8.08165,-49.49802 21.55006,-67.34371 13.46842,-17.84568 23.57046,-31.98854 39.05829,-30.97841 15.48784,1.01013 36.366,17.17386 49.83452,30.30561 13.46852,13.13175 19.52947,23.23334 18.85625,38.04873 -0.67322,14.8154 -8.08079,34.34445 -17.84591,56.23184 -9.76511,21.88739 -21.88619,46.12956 -45.12,41.07939 z"
       id="path5838-3"
       inkscape:connector-curvature="0"
       inkscape:path-effect="#path-effect5840-4"
       inkscape:original-d="m 694.82003,525.11725 c -34.34419,-34.34619 -68.68937,-68.69137 -103.03556,-103.03556 16.83688,-21.55092 33.67275,-43.10084 50.50763,-64.64976 10.10201,-14.14241 20.20405,-28.28527 30.30457,-42.42641 20.87582,16.16014 41.75398,32.32388 62.62946,48.48732 6.06188,10.10046 12.12283,20.20205 18.18275,30.30458 -7.407,19.52918 -14.81457,39.05823 -22.22336,58.58885 -12.12158,24.24415 -24.24266,48.48632 -36.36549,72.73098 z" />
    <path
       style="fill:#ff0000;fill-opacity:1;stroke:none;stroke-width:1px;stroke-linecap:butt;stroke-linejoin:miter;stroke-opacity:1"
       d="m 738.25687,479.65979 c -23.23381,-5.05016 -57.57899,-39.39534 -66.33321,-67.34346 -8.75423,-27.94811 8.08165,-49.49802 21.55006,-67.34371 13.46842,-17.84568 23.57046,-31.98854 39.05829,-30.97841 15.48784,1.01012 36.366,17.17386 49.83453,30.30561 13.46852,13.13175 19.52947,23.23334 18.85625,38.04873 -0.67322,14.8154 -8.0808,34.34446 -17.84591,56.23185 -9.76511,21.88739 -21.8862,46.12956 -45.12001,41.07939 z"
       id="path5838-0"
       inkscape:connector-curvature="0"
       inkscape:path-effect="#path-effect5840-0"
       inkscape:original-d="m 749.36825,508.95482 c -34.34419,-34.34619 -68.68937,-68.69137 -103.03556,-103.03557 16.83688,-21.55092 33.67275,-43.10084 50.50763,-64.64976 10.10201,-14.14241 20.20405,-28.28527 30.30457,-42.42641 20.87582,16.16014 41.75398,32.32388 62.62947,48.48732 6.06188,10.10046 12.12283,20.20205 18.18275,30.30458 -7.407,19.52918 -14.81457,39.05824 -22.22336,58.58886 -12.12158,24.24415 -24.24267,48.48632 -36.3655,72.73098 z" />
    <path
       style="fill:#ff0000;fill-opacity:1;stroke:none;stroke-width:1px;stroke-linecap:butt;stroke-linejoin:miter;stroke-opacity:1"
       d="m 834.386,441.58359 c -23.23381,-5.05017 -57.57899,-39.39535 -66.33321,-67.34346 -8.75423,-27.94811 8.08165,-49.49802 21.55006,-67.34371 13.46842,-17.84568 23.57046,-31.98854 39.05829,-30.97841 15.48784,1.01012 36.366,17.17386 49.83453,30.30561 13.46852,13.13175 19.52947,23.23334 18.85625,38.04873 -0.67322,14.8154 -8.08079,34.34445 -17.84591,56.23184 -9.76511,21.88739 -21.8862,46.12956 -45.12001,41.0794 z"
       id="path5838-6"
       inkscape:connector-curvature="0"
       inkscape:path-effect="#path-effect5840-9"
       inkscape:original-d="m 845.49738,470.87861 c -34.34419,-34.34619 -68.68937,-68.69137 -103.03556,-103.03556 16.83688,-21.55092 33.67275,-43.10084 50.50763,-64.64976 10.10201,-14.14241 20.20405,-28.28527 30.30457,-42.42641 20.87582,16.16014 41.75398,32.32388 62.62947,48.48732 6.06188,10.10046 12.12283,20.20205 18.18275,30.30458 -7.407,19.52918 -14.81457,39.05823 -22.22336,58.58885 -12.12158,24.24415 -24.24267,48.48632 -36.3655,72.73098 z" />
    <path
       style="fill:#ff0000;fill-opacity:1;stroke:none;stroke-width:1px;stroke-linecap:butt;stroke-linejoin:miter;stroke-opacity:1"
       d="m 903.9219,437.23338 c -23.23381,-5.05016 -57.57899,-39.39534 -66.33321,-67.34346 -8.75423,-27.94811 8.08165,-49.49802 21.55006,-67.34371 13.46842,-17.84568 23.57046,-31.98854 39.05829,-30.97841 15.48784,1.01013 36.366,17.17386 49.83452,30.30561 13.46852,13.13175 19.52947,23.23334 18.85625,38.04873 -0.67322,14.8154 -8.0808,34.34446 -17.84591,56.23185 -9.76511,21.88739 -21.88619,46.12956 -45.12,41.07939 z"
       id="path5838-11"
       inkscape:connector-curvature="0"
       inkscape:path-effect="#path-effect5840-63"
       inkscape:original-d="m 915.03328,466.52841 c -34.34419,-34.34619 -68.68937,-68.69137 -103.03556,-103.03557 16.83688,-21.55092 33.67275,-43.10084 50.50763,-64.64976 10.10201,-14.14241 20.20405,-28.28527 30.30457,-42.42641 20.87582,16.16014 41.75398,32.32388 62.62946,48.48732 6.06188,10.10046 12.12283,20.20205 18.18275,30.30458 -7.407,19.52918 -14.81457,39.05824 -22.22336,58.58886 -12.12158,24.24415 -24.24266,48.48632 -36.36549,72.73098 z" />
    <path
       style="fill:#ff0000;fill-opacity:1;stroke:none;stroke-width:1px;stroke-linecap:butt;stroke-linejoin:miter;stroke-opacity:1"
       d="m 1008.9778,447.3349 c -23.23383,-5.05018 -57.57902,-39.39535 -66.33325,-67.34345 -8.75423,-27.94811 8.08165,-49.49802 21.55006,-67.34371 13.46841,-17.84568 23.57045,-31.98854 39.05829,-30.97842 15.4878,1.01013 36.366,17.17387 49.8346,30.30563 13.4685,13.13175 19.5294,23.23333 18.8562,38.04873 -0.6732,14.8154 -8.0808,34.34443 -17.8459,56.23183 -9.7651,21.8874 -21.8862,46.12957 -45.12,41.07939 z"
       id="path5838-38"
       inkscape:connector-curvature="0"
       inkscape:path-effect="#path-effect5840-8"
       inkscape:original-d="m 1020.0892,476.62993 c -34.34425,-34.34619 -68.68943,-68.69137 -103.03562,-103.03556 16.83688,-21.55092 33.67275,-43.10084 50.50763,-64.64976 10.10201,-14.14241 20.20405,-28.28527 30.30456,-42.42641 20.87583,16.16014 41.75403,32.32388 62.62953,48.48732 6.0619,10.10046 12.1228,20.20205 18.1827,30.30458 -7.407,19.52918 -14.8145,39.05823 -22.2233,58.58885 -12.1216,24.24415 -24.2427,48.48632 -36.3655,72.73098 z" />
    <path
       style="fill:#ff0000;fill-opacity:1;stroke:none;stroke-width:1px;stroke-linecap:butt;stroke-linejoin:miter;stroke-opacity:1"
       d="m 1087.7696,445.3146 c -23.2338,-5.05018 -57.579,-39.39538 -66.3332,-67.34349 -8.7542,-27.94811 8.0816,-49.49801 21.55,-67.3437 13.4685,-17.8457 23.5705,-31.98853 39.0583,-30.97841 15.4878,1.01013 36.366,17.17388 49.8346,30.30564 13.4685,13.13175 19.5294,23.23333 18.8562,38.04873 -0.6732,14.8154 -8.0808,34.34444 -17.8459,56.23184 -9.7651,21.8874 -21.8862,46.12957 -45.12,41.07939 z"
       id="path5838-5"
       inkscape:connector-curvature="0"
       inkscape:path-effect="#path-effect5840-3"
       inkscape:original-d="m 1098.881,474.60963 c -34.3442,-34.34619 -68.6894,-68.69137 -103.03551,-103.03557 16.83691,-21.55092 33.67271,-43.10084 50.50751,-64.64976 10.1021,-14.14241 20.2041,-28.28527 30.3046,-42.42641 20.8758,16.16014 41.754,32.32388 62.6295,48.48732 6.0619,10.10046 12.1228,20.20205 18.1827,30.30458 -7.407,19.52918 -14.8145,39.05824 -22.2233,58.58886 -12.1216,24.24415 -24.2427,48.48632 -36.3655,72.73098 z" />
    <path
       style="fill:#ff0000;fill-opacity:1;stroke:none;stroke-width:1px;stroke-linecap:butt;stroke-linejoin:miter;stroke-opacity:1"
       d="m 1174.6428,493.80192 c -23.2338,-5.05017 -57.579,-39.39535 -66.3332,-67.34347 -8.7543,-27.94811 8.0816,-49.49805 21.55,-67.34373 13.4685,-17.84569 23.5705,-31.98852 39.0583,-30.9784 15.4878,1.01013 36.366,17.17388 49.8346,30.30564 13.4685,13.13175 19.5294,23.23333 18.8562,38.04873 -0.6732,14.8154 -8.0808,34.34443 -17.8459,56.23183 -9.7651,21.8874 -21.8862,46.12957 -45.12,41.0794 z"
       id="path5838-50"
       inkscape:connector-curvature="0"
       inkscape:path-effect="#path-effect5840-83"
       inkscape:original-d="m 1185.7542,523.09694 c -34.3442,-34.34619 -68.6894,-68.69137 -103.0356,-103.03556 16.8369,-21.55092 33.6728,-43.10084 50.5076,-64.64976 10.1021,-14.14241 20.2041,-28.28527 30.3046,-42.42641 20.8758,16.16014 41.754,32.32388 62.6295,48.48732 6.0619,10.10046 12.1228,20.20205 18.1827,30.30458 -7.407,19.52918 -14.8145,39.05823 -22.2233,58.58885 -12.1216,24.24415 -24.2427,48.48632 -36.3655,72.73098 z" />
    <path
       style="fill:#ff0000;fill-opacity:1;stroke:none;stroke-width:1px;stroke-linecap:butt;stroke-linejoin:miter;stroke-opacity:1"
       d="m 1217.0692,489.76132 c -23.2338,-5.05017 -57.579,-39.39535 -66.3332,-67.34347 -8.7542,-27.94811 8.0817,-49.49803 21.5501,-67.34371 13.4684,-17.84568 23.5704,-31.98854 39.0583,-30.97839 15.4878,1.01014 36.3659,17.17384 49.8345,30.30559 13.4685,13.13175 19.5295,23.23331 18.8563,38.04872 -0.6733,14.81541 -8.0808,34.34447 -17.846,56.23187 -9.7651,21.88739 -21.8862,46.12956 -45.12,41.07939 z"
       id="path5838-65"
       inkscape:connector-curvature="0"
       inkscape:path-effect="#path-effect5840-31"
       inkscape:original-d="m 1228.1806,519.05634 c -34.3442,-34.34619 -68.6894,-68.69137 -103.0356,-103.03557 16.8369,-21.55092 33.6728,-43.10084 50.5077,-64.64976 10.102,-14.14241 20.204,-28.28527 30.3045,-42.42641 20.8759,16.16014 41.754,32.32388 62.6295,48.48732 6.0619,10.10046 12.1228,20.20205 18.1828,30.30458 -7.407,19.52918 -14.8146,39.05824 -22.2234,58.58886 -12.1216,24.24415 -24.2427,48.48632 -36.3655,72.73098 z" />
    <path
       style="fill:#ff0000;fill-opacity:1;stroke:none;stroke-width:1px;stroke-linecap:butt;stroke-linejoin:miter;stroke-opacity:1"
       d="m 1320.1047,522.08617 c -23.2338,-5.05016 -57.5789,-39.39531 -66.3332,-67.34341 -8.7542,-27.9481 8.0817,-49.49804 21.5501,-67.34372 13.4684,-17.84569 23.5705,-31.98852 39.0583,-30.97841 15.4878,1.01011 36.366,17.17382 49.8345,30.30558 13.4685,13.13176 19.5295,23.23336 18.8563,38.04875 -0.6733,14.81539 -8.0808,34.34445 -17.846,56.23185 -9.7651,21.88739 -21.8862,46.12952 -45.12,41.07936 z"
       id="path5838-2"
       inkscape:connector-curvature="0"
       inkscape:path-effect="#path-effect5840-44"
       inkscape:original-d="m 1331.2161,551.38122 c -34.3442,-34.34619 -68.6893,-68.69137 -103.0355,-103.03557 16.8368,-21.55092 33.6727,-43.10084 50.5076,-64.64976 10.102,-14.14241 20.204,-28.28527 30.3046,-42.42641 20.8758,16.16014 41.7539,32.32388 62.6294,48.48732 6.0619,10.10046 12.1229,20.20205 18.1828,30.30458 -7.407,19.52918 -14.8146,39.05824 -22.2234,58.58886 -12.1216,24.24415 -24.2426,48.48632 -36.3655,72.73098 z" />
    <path
       style="fill:#ff0000;fill-opacity:1;stroke:none;stroke-width:1px;stroke-linecap:butt;stroke-linejoin:miter;stroke-opacity:1"
       d="m 1398.8966,534.20803 c -23.2338,-5.05017 -57.579,-39.39535 -66.3332,-67.34346 -8.7542,-27.94811 8.0817,-49.49803 21.5501,-67.34371 13.4684,-17.84568 23.5704,-31.98854 39.0583,-30.97839 15.4878,1.01014 36.3659,17.17384 49.8345,30.30559 13.4685,13.13175 19.5295,23.23331 18.8563,38.04872 -0.6733,14.81541 -8.0808,34.34446 -17.846,56.23186 -9.7651,21.88739 -21.8862,46.12956 -45.12,41.07939 z"
       id="path5838-66"
       inkscape:connector-curvature="0"
       inkscape:path-effect="#path-effect5840-84"
       inkscape:original-d="m 1410.008,563.50305 c -34.3442,-34.34619 -68.6894,-68.69137 -103.0356,-103.03556 16.8369,-21.55092 33.6728,-43.10084 50.5077,-64.64976 10.102,-14.14241 20.204,-28.28527 30.3045,-42.42641 20.8759,16.16014 41.754,32.32388 62.6295,48.48732 6.0619,10.10046 12.1228,20.20205 18.1828,30.30458 -7.407,19.52918 -14.8146,39.05823 -22.2234,58.58885 -12.1216,24.24415 -24.2427,48.48632 -36.3655,72.73098 z" />
    <path
       style="fill:#ff0000;stroke:none;stroke-width:0.42873505px;stroke-linecap:butt;stroke-linejoin:miter;stroke-opacity:1;fill-opacity:1"
       d="m 1499.3087,551.04454 c -10.1537,-2.12414 -25.1632,-16.56991 -28.989,-28.32508 -3.8258,-11.75517 3.5318,-20.8192 9.4178,-28.32521 5.886,-7.50602 10.3008,-13.4546 17.0693,-13.02974 6.7685,0.42487 15.8927,7.22344 21.7787,12.74674 5.886,5.52331 8.5348,9.77212 8.2406,16.00356 -0.2943,6.23144 -3.5315,14.4455 -7.7991,23.65147 -4.2675,9.20597 -9.5647,19.4024 -19.7183,17.27826 z"
       id="path5838-8"
       inkscape:connector-curvature="0"
       inkscape:path-effect="#path-effect5840-06"
       inkscape:original-d="m 1504.1646,563.36623 c -15.0092,-14.44623 -30.0187,-28.89203 -45.0287,-43.33743 7.3581,-9.06445 14.7157,-18.12849 22.0729,-27.19211 4.4148,-5.94839 8.8296,-11.89697 13.2437,-17.84482 9.1231,6.79706 18.2473,13.59563 27.3704,20.39408 2.6491,4.24832 5.2979,8.49711 7.9462,12.7463 -3.237,8.2141 -6.4743,16.42815 -9.7121,24.64286 -5.2973,10.19725 -10.5945,20.39366 -15.8924,30.59112 z" />
    <path
       style="fill:#ff0000;fill-opacity:1;stroke:none;stroke-width:0.42873505px;stroke-linecap:butt;stroke-linejoin:miter;stroke-opacity:1"
       d="m 1525.5727,544.47855 c -10.1537,-2.12414 -25.1632,-16.56991 -28.989,-28.32508 -3.8258,-11.75517 3.5318,-20.8192 9.4178,-28.32521 5.886,-7.50602 10.3008,-13.4546 17.0693,-13.02974 6.7685,0.42487 15.8927,7.22344 21.7787,12.74674 5.886,5.52331 8.5348,9.77212 8.2406,16.00356 -0.2943,6.23144 -3.5315,14.4455 -7.7991,23.65147 -4.2675,9.20597 -9.5647,19.4024 -19.7183,17.27826 z"
       id="path5838-8-9"
       inkscape:connector-curvature="0"
       inkscape:path-effect="#path-effect5840-06-0"
       inkscape:original-d="m 1530.4286,556.80024 c -15.0092,-14.44623 -30.0187,-28.89203 -45.0287,-43.33743 7.3581,-9.06445 14.7157,-18.12849 22.0729,-27.19211 4.4148,-5.94839 8.8296,-11.89697 13.2437,-17.84482 9.1231,6.79706 18.2473,13.59563 27.3704,20.39408 2.6491,4.24832 5.2979,8.49711 7.9462,12.7463 -3.237,8.2141 -6.4743,16.42815 -9.7121,24.64286 -5.2973,10.19725 -10.5945,20.39366 -15.8924,30.59112 z" />
    <path
       style="fill:#ff0000;fill-opacity:1;stroke:none;stroke-width:0.42873505px;stroke-linecap:butt;stroke-linejoin:miter;stroke-opacity:1"
       d="m 1584.1615,560.64096 c -10.1537,-2.12414 -25.1632,-16.56991 -28.989,-28.32508 -3.8258,-11.75517 3.5318,-20.8192 9.4178,-28.32521 5.886,-7.50602 10.3008,-13.4546 17.0693,-13.02974 6.7685,0.42487 15.8927,7.22344 21.7787,12.74674 5.886,5.52331 8.5348,9.77212 8.2406,16.00356 -0.2943,6.23144 -3.5315,14.4455 -7.7991,23.65147 -4.2675,9.20597 -9.5647,19.4024 -19.7183,17.27826 z"
       id="path5838-8-0"
       inkscape:connector-curvature="0"
       inkscape:path-effect="#path-effect5840-06-9"
       inkscape:original-d="m 1589.0174,572.96265 c -15.0092,-14.44623 -30.0187,-28.89203 -45.0287,-43.33743 7.3581,-9.06445 14.7157,-18.12849 22.0729,-27.19211 4.4148,-5.94839 8.8296,-11.89697 13.2437,-17.84482 9.1231,6.79706 18.2473,13.59563 27.3704,20.39408 2.6491,4.24832 5.2979,8.49711 7.9462,12.7463 -3.237,8.2141 -6.4743,16.42815 -9.7121,24.64286 -5.2973,10.19725 -10.5945,20.39366 -15.8924,30.59112 z" />
    <path
       style="fill:#ff0000;fill-opacity:1;stroke:none;stroke-width:0.42873505px;stroke-linecap:butt;stroke-linejoin:miter;stroke-opacity:1"
       d="m 1617.4964,559.12574 c -10.1537,-2.12414 -25.1632,-16.56991 -28.989,-28.32508 -3.8258,-11.75517 3.5318,-20.8192 9.4178,-28.32521 5.886,-7.50602 10.3008,-13.4546 17.0693,-13.02974 6.7685,0.42487 15.8927,7.22344 21.7787,12.74674 5.886,5.52331 8.5348,9.77212 8.2406,16.00356 -0.2943,6.23144 -3.5315,14.4455 -7.7991,23.65147 -4.2675,9.20597 -9.5647,19.4024 -19.7183,17.27826 z"
       id="path5838-8-7"
       inkscape:connector-curvature="0"
       inkscape:path-effect="#path-effect5840-06-2"
       inkscape:original-d="m 1622.3523,571.44743 c -15.0092,-14.44623 -30.0187,-28.89203 -45.0287,-43.33743 7.3581,-9.06445 14.7157,-18.12849 22.0729,-27.19211 4.4148,-5.94839 8.8296,-11.89697 13.2437,-17.84482 9.1231,6.79706 18.2473,13.59563 27.3704,20.39408 2.6491,4.24832 5.2979,8.49711 7.9462,12.7463 -3.237,8.2141 -6.4743,16.42815 -9.7121,24.64286 -5.2973,10.19725 -10.5945,20.39366 -15.8924,30.59112 z" />
  </g>
</svg>
