<?xml version="1.0" encoding="UTF-8" standalone="no"?>
<!-- Created with Inkscape (http://www.inkscape.org/) -->

<svg
   xmlns:osb="http://www.openswatchbook.org/uri/2009/osb"
   xmlns:dc="http://purl.org/dc/elements/1.1/"
   xmlns:cc="http://creativecommons.org/ns#"
   xmlns:rdf="http://www.w3.org/1999/02/22-rdf-syntax-ns#"
   xmlns:svg="http://www.w3.org/2000/svg"
   xmlns="http://www.w3.org/2000/svg"
   xmlns:sodipodi="http://sodipodi.sourceforge.net/DTD/sodipodi-0.dtd"
   xmlns:inkscape="http://www.inkscape.org/namespaces/inkscape"
   width="1920px"
   height="1080px"
   viewBox="0 0 1920 1080"
   version="1.1"
   id="SVGRoot"
   inkscape:version="0.92.2 (5c3e80d, 2017-08-06)"
   sodipodi:docname="Theropoda.svg"
   inkscape:export-filename="C:\Users\customer\Documents\ThatChapThere.github.io\dinosaurs\alt_images\Silluettes\Theropoda.png"
   inkscape:export-xdpi="64"
   inkscape:export-ydpi="64">
  <sodipodi:namedview
     id="base"
     pagecolor="#ffffff"
     bordercolor="#666666"
     borderopacity="1.0"
     inkscape:pageopacity="0.0"
     inkscape:pageshadow="2"
     inkscape:zoom="0.35"
     inkscape:cx="1176.2504"
     inkscape:cy="354.05564"
     inkscape:document-units="px"
     inkscape:current-layer="layer1"
     showgrid="false"
     inkscape:window-width="1920"
     inkscape:window-height="1027"
     inkscape:window-x="-8"
     inkscape:window-y="-8"
     inkscape:window-maximized="1" />
  <defs
     id="defs5119">
    <inkscape:path-effect
       effect="bspline"
       id="path-effect5770"
       is_visible="true"
       weight="33.333333"
       steps="2"
       helper_size="0"
       apply_no_weight="true"
       apply_with_weight="true"
       only_selected="false" />
    <inkscape:path-effect
       effect="bspline"
       id="path-effect5766"
       is_visible="true"
       weight="33.333333"
       steps="2"
       helper_size="0"
       apply_no_weight="true"
       apply_with_weight="true"
       only_selected="false" />
    <inkscape:path-effect
       effect="bspline"
       id="path-effect5762"
       is_visible="true"
       weight="33.333333"
       steps="2"
       helper_size="0"
       apply_no_weight="true"
       apply_with_weight="true"
       only_selected="false" />
    <inkscape:path-effect
       effect="bspline"
       id="path-effect5754"
       is_visible="true"
       weight="33.333333"
       steps="2"
       helper_size="0"
       apply_no_weight="true"
       apply_with_weight="true"
       only_selected="false" />
    <inkscape:path-effect
       effect="bspline"
       id="path-effect5746"
       is_visible="true"
       weight="33.333333"
       steps="2"
       helper_size="0"
       apply_no_weight="true"
       apply_with_weight="true"
       only_selected="false" />
    <inkscape:path-effect
       effect="bspline"
       id="path-effect5742"
       is_visible="true"
       weight="33.333333"
       steps="2"
       helper_size="0"
       apply_no_weight="true"
       apply_with_weight="true"
       only_selected="false" />
    <inkscape:path-effect
       effect="bspline"
       id="path-effect5738"
       is_visible="true"
       weight="33.333333"
       steps="2"
       helper_size="0"
       apply_no_weight="true"
       apply_with_weight="true"
       only_selected="false" />
    <inkscape:path-effect
       effect="bspline"
       id="path-effect5726"
       is_visible="true"
       weight="33.333333"
       steps="2"
       helper_size="0"
       apply_no_weight="true"
       apply_with_weight="true"
       only_selected="false" />
    <linearGradient
       id="linearGradient5708"
       osb:paint="solid">
      <stop
         style="stop-color:#000000;stop-opacity:1;"
         offset="0"
         id="stop5706" />
    </linearGradient>
    <inkscape:path-effect
       effect="bspline"
       id="path-effect5704"
       is_visible="true"
       weight="33.333333"
       steps="2"
       helper_size="0"
       apply_no_weight="true"
       apply_with_weight="true"
       only_selected="false" />
    <inkscape:path-effect
       effect="bspline"
       id="path-effect5700"
       is_visible="true"
       weight="33.333333"
       steps="2"
       helper_size="0"
       apply_no_weight="true"
       apply_with_weight="true"
       only_selected="false" />
    <inkscape:path-effect
       only_selected="false"
       apply_with_weight="true"
       apply_no_weight="true"
       helper_size="0"
       steps="2"
       weight="33.333333"
       is_visible="true"
       id="path-effect5696"
       effect="bspline" />
    <inkscape:path-effect
       effect="bspline"
       id="path-effect5692"
       is_visible="true"
       weight="33.333333"
       steps="2"
       helper_size="0"
       apply_no_weight="true"
       apply_with_weight="true"
       only_selected="false" />
  </defs>
  <metadata
     id="metadata5122">
    <rdf:RDF>
      <cc:Work
         rdf:about="">
        <dc:format>image/svg+xml</dc:format>
        <dc:type
           rdf:resource="http://purl.org/dc/dcmitype/StillImage" />
        <dc:title></dc:title>
      </cc:Work>
    </rdf:RDF>
  </metadata>
  <g
     id="layer1"
     inkscape:groupmode="layer"
     inkscape:label="Layer 1">
    <path
       style="fill:#ff0000;fill-opacity:1;stroke:none;stroke-width:1.13195074px;stroke-linecap:butt;stroke-linejoin:miter;stroke-opacity:1"
       d="m 190.32923,394.71343 c 84.50911,12.28007 223.61335,32.17819 331.8681,27.02313 108.25474,-5.15506 185.16772,-35.17063 283.85791,-49.93937 98.69019,-14.76875 216.66326,-13.91783 321.00216,-12.34621 104.339,1.57162 194.2907,3.85853 260.6101,2.71503 66.3195,-1.1435 109.0085,-5.71732 144.6162,-8.5911 35.6076,-2.87378 64.1361,-4.04771 82.4308,-18.91295 18.2946,-14.86524 26.3572,-43.42119 27.7271,-69.22605 1.37,-25.80486 -3.9762,-48.96416 26.6493,-59.61016 30.6255,-10.64599 97.2104,-8.83187 141.1745,-6.78135 43.9641,2.05052 65.3086,4.33742 76.5639,13.31639 11.2554,8.97896 12.4228,24.64993 12.6476,34.04672 0.2248,9.39678 -0.4933,12.51623 -31.4917,17.9334 -30.9984,5.41716 -92.254,13.12673 -112.8372,16.39878 -20.5832,3.27205 -0.4801,2.10464 30.7513,-0.23887 31.2314,-2.34351 73.591,-5.86311 95.7649,-1.54129 22.174,4.32183 24.164,16.48571 25.1592,26.37922 0.9951,9.89351 0.9951,17.51526 -19.5893,27.80805 -20.5843,10.29278 -61.7414,23.24965 -95.9729,31.60012 -34.2316,8.35047 -61.5267,12.09147 -77.5807,19.08776 -16.054,6.99628 -20.8613,17.24682 -33.1754,36.09455 -12.314,18.84773 -32.1326,46.28883 -60.7193,70.30188 -28.5868,24.01304 -65.9376,44.59407 -106.7211,65.5576 -40.7836,20.96353 -84.9951,42.30703 -142.1807,59.39167 -57.1856,17.08465 -128.8145,30.17812 -193.2866,36.06454 -64.472,5.88642 -122.5191,4.70007 -207.32561,-2.49185 -84.80648,-7.19193 -196.36416,-20.3889 -267.9152,-35.70501 C 630.80554,597.73194 599.26612,580.29755 534.0822,565.60977 468.89828,550.92198 370.07434,538.98208 283.11838,507.35657 196.16242,475.73106 121.0787,424.42124 98.492835,401.09636 75.90697,377.77148 105.82011,382.43337 190.32923,394.71343 Z"
       id="path5724"
       inkscape:connector-curvature="0"
       inkscape:path-effect="#path-effect5726"
       inkscape:original-d="m 135.73307,387.09523 c 139.10543,19.89715 278.20967,39.79527 417.31272,59.69436 77.40608,-30.20861 154.31906,-60.22418 232.21556,-90.62297 119.48409,0.86081 237.45715,1.71173 356.18385,2.56909 89.9512,2.28573 179.9029,4.57264 269.8525,6.86065 42.6892,-4.57485 85.3782,-9.14867 128.0657,-13.72131 28.5279,-1.17487 57.0564,-2.34881 85.5829,-3.52171 8.0634,-28.55645 16.126,-57.11239 24.1875,-85.66684 -5.321,-23.05573 -10.6672,-46.21503 -16.0023,-69.32086 66.5849,1.8131 133.1698,3.62721 199.7529,5.44231 21.3452,2.28588 42.6897,4.57278 64.0329,6.86065 1.1685,15.67107 2.3358,31.34204 3.5024,47.0164 -0.7173,3.11946 -1.4354,6.2389 -2.1547,9.36066 -61.2783,7.71155 -122.5339,15.42112 -183.8059,23.13363 20.1056,-1.16849 40.2087,-2.3359 60.3114,-3.50234 42.3601,-3.52055 84.7197,-7.04015 127.0777,-10.5587 1.9911,12.16292 3.9812,24.3268 5.9703,36.49195 10e-4,7.62206 10e-4,15.24381 0,22.86886 -41.1689,12.95989 -82.326,25.91678 -123.4918,38.87706 -27.2972,3.74042 -54.5923,7.48142 -81.8928,11.22402 -4.807,10.25103 -9.6143,20.50157 -14.423,30.75394 -19.8197,27.44299 -39.6382,54.88413 -59.459,82.32789 -37.3531,20.5818 -74.7039,41.16281 -112.0575,61.74591 -44.2135,21.34391 -88.425,42.68741 -132.6393,64.03281 -70.1322,12.95829 -141.7858,25.9169 -212.6803,38.87705 -58.0494,-1.18755 -116.0965,-2.3739 -174.14812,-3.55919 C 885.46544,641.56004 773.90776,628.36307 662.34562,615.16669 630.8062,597.73075 599.26678,580.29636 567.72501,562.86223 468.89841,550.92088 370.07447,538.98097 271.24752,527.04182 196.1632,475.72991 121.07948,424.4201 45.991839,373.10928 c 29.915307,4.66107 59.828451,9.32296 89.741231,13.98595 z"
       sodipodi:nodetypes="ccccccccccccccccccccccccccccccc" />
    <path
       style="fill:#ff0000;fill-opacity:1;stroke:none;stroke-width:1.75026762px;stroke-linecap:butt;stroke-linejoin:miter;stroke-opacity:1"
       d="m 770.8926,407.29102 c 77.681,72.38065 155.36166,144.76098 193.59577,189.11132 38.23413,44.35033 36.72073,64.72793 16.27712,115.70345 -20.44358,50.97552 -59.96188,134.56246 -72.90897,184.51632 -12.94709,49.95385 0.68085,66.26459 17.03492,86.14397 16.35407,19.87942 35.43304,43.32592 56.55787,55.55922 21.12479,12.2332 44.29239,13.2527 65.36639,13.0889 21.0741,-0.1638 40.0564,-1.5107 52.2732,-6.7723 12.2168,-5.2616 17.6684,-14.4371 11.2076,-21.137 -6.4609,-6.7 -24.8351,-10.9276 -43.7503,-12.803 -18.9152,-1.8754 -37.6959,-1.4148 -53.5191,-13.82325 -15.82315,-12.40849 -26.57552,-36.03144 -30.93374,-51.88464 -4.35821,-15.85319 -1.32605,-24.92592 25.47134,-52.33357 26.7973,-27.40765 79.3423,-75.60604 108.7936,-126.57838 29.4513,-50.97234 36.6481,-105.48694 36.6881,-167.40512 0.04,-61.91817 -7.0764,-131.24017 -14.1926,-200.5609"
       id="path5740"
       inkscape:connector-curvature="0"
       inkscape:path-effect="#path-effect5742"
       inkscape:original-d="m 770.8926,407.29102 c 77.6827,72.37882 155.36335,144.75917 233.042,217.14102 -1.3608,16.30959 -2.7236,36.69837 -4.08848,55.04983 -39.52313,83.59995 -79.04144,167.18689 -118.56522,250.78264 13.63052,16.30979 27.25842,32.62056 40.88457,48.93311 19.08195,23.44628 38.16095,46.89278 57.23839,70.34138 23.17034,1.018 46.33794,2.0374 69.50374,3.0583 18.9821,-1.3478 37.9644,-2.6947 56.946,-4.0406 5.4524,-9.1762 10.904,-18.3517 16.3538,-27.5248 -18.3715,-4.2282 -36.7457,-8.4557 -55.1223,-12.6826 -19.4541,0.4762 -38.2348,0.9369 -58.3606,1.4315 -11.51832,-25.31166 -22.27069,-48.93461 -33.40909,-73.39974 2.72757,-7.13736 5.45328,-16.31251 8.1769,-24.46661 50.86969,-46.66167 103.41469,-94.86007 155.12039,-142.28853 7.1981,-54.51605 14.3948,-109.03065 21.5902,-163.54383 -7.1143,-69.32355 -14.2307,-138.64554 -21.3491,-207.96605"
       sodipodi:nodetypes="cccccccccccccccc" />
    <path
       style="fill:#ff0000;fill-opacity:1;stroke:none;stroke-width:1.27824306px;stroke-linecap:butt;stroke-linejoin:miter;stroke-opacity:1"
       d="m 1445.084,514.14771 c -12.6028,48.56328 -25.2059,97.12802 -27.0063,125.52701 -1.8004,28.39898 7.2014,36.62991 25.8821,50.33774 18.6806,13.70783 44.8859,31.4352 60.0811,38.38868 15.1953,6.95347 18.3038,2.40461 22.6098,-2.44899 4.306,-4.85361 9.8137,-10.01722 2.3261,-20.5725 -7.4876,-10.55528 -27.9665,-26.50261 -38.3754,-36.27794 -10.409,-9.77533 -10.7465,-13.37649 -3.3004,-24.89708 7.4461,-11.5206 22.6842,-30.97232 30.3003,-51.89858 7.6161,-20.92626 7.6161,-43.33646 7.6161,-65.74385"
       id="path5744"
       inkscape:connector-curvature="0"
       inkscape:path-effect="#path-effect5746"
       inkscape:original-d="m 1445.084,514.14771 c -12.6018,48.56353 -25.2049,97.12828 -37.8094,145.69425 9.004,8.23033 18.0057,16.46139 27.0067,24.69393 28.3599,19.18326 54.5652,36.91062 81.8464,55.3675 3.1087,-4.54862 6.2172,-9.09749 9.323,-13.64284 5.506,-5.16201 11.0137,-10.32563 16.5194,-15.48734 -20.4797,-15.95032 -40.9587,-31.89756 -61.44,-47.84451 -0.3363,-3.60245 -0.6738,-7.20361 -1.0127,-10.80359 15.2299,-19.44094 30.468,-38.89262 45.7,-58.33708 0.3195,-22.40824 0,-44.81844 0,-67.22583"
       sodipodi:nodetypes="cccccccccc" />
    <path
       style="fill:#ff0000;fill-opacity:1;stroke:none;stroke-width:1.39478219px;stroke-linecap:butt;stroke-linejoin:miter;stroke-opacity:1"
       d="m 1098.2804,1019.357 c 10.0065,-0.5788 20.0115,-1.1575 29.2061,1.3021 9.1947,2.4596 17.5799,7.9572 21.6778,10.7778 4.0978,2.8207 3.9061,2.9662 3.7156,3.1109 -9.1476,-1.3021 -18.2944,-2.604 -27.6322,-1.5916 -9.3379,1.0124 -18.8664,4.3399 -28.3966,7.6679"
       id="path5752"
       inkscape:connector-curvature="0"
       inkscape:path-effect="#path-effect5754"
       inkscape:original-d="m 1098.2804,1019.357 c 10.0064,-0.5797 20.0114,-1.1584 30.0154,-1.7361 8.3862,5.4966 16.7714,10.9942 25.1557,16.4929 -0.1895,0.1437 -0.5716,0.434 -0.5716,0.434 0,0 -18.2942,-2.6051 -27.4427,-3.9062 -9.5276,3.3265 -19.0561,6.6539 -28.5861,9.9825"
       sodipodi:nodetypes="cccccc" />
  </g>
</svg>
